NotoTraditionalNushu-Medium.ufo
<glyph name="comma" format="2">
  <advance width="278"/>
  <unicode hex="002C"/>
  <note>
comma
</note>
  <outline>
    <contour>
      <point x="53" y="-136" type="curve"/>
      <point x="75" y="-190" type="line"/>
      <point x="120.33" y="-170.67"/>
      <point x="156" y="-142.83"/>
      <point x="182" y="-106.5" type="curve" smooth="yes"/>
      <point x="208" y="-70.17"/>
      <point x="221" y="-28.33"/>
      <point x="221" y="19" type="curve" smooth="yes"/>
      <point x="221" y="52.33"/>
      <point x="214.17" y="78.67"/>
      <point x="200.5" y="98" type="curve" smooth="yes"/>
      <point x="186.83" y="117.33"/>
      <point x="168" y="127"/>
      <point x="144" y="127" type="curve" smooth="yes"/>
      <point x="124.67" y="127"/>
      <point x="108.33" y="121"/>
      <point x="95" y="109" type="curve" smooth="yes"/>
      <point x="81.67" y="97"/>
      <point x="75" y="81.67"/>
      <point x="75" y="63" type="curve" smooth="yes"/>
      <point x="75" y="43"/>
      <point x="81.5" y="27.33"/>
      <point x="94.5" y="16" type="curve" smooth="yes"/>
      <point x="107.5" y="4.67"/>
      <point x="123.33" y="-1"/>
      <point x="142" y="-1" type="curve" smooth="yes"/>
      <point x="146.67" y="-1"/>
      <point x="150.33" y="-0.67"/>
      <point x="153" y="0" type="curve"/>
      <point x="151.67" y="-62"/>
      <point x="118.33" y="-107.33"/>
    </contour>
  </outline>
</glyph>
<glyph name="period" format="2">
  <advance width="278"/>
  <unicode hex="002E"/>
  <note>
period
</note>
  <outline>
    <contour>
      <point x="139" y="-13" type="curve" smooth="yes"/>
      <point x="157.67" y="-13"/>
      <point x="173.33" y="-6.5"/>
      <point x="186" y="6.5" type="curve" smooth="yes"/>
      <point x="198.67" y="19.5"/>
      <point x="205" y="36"/>
      <point x="205" y="56" type="curve" smooth="yes"/>
      <point x="205" y="76"/>
      <point x="198.5" y="92.83"/>
      <point x="185.5" y="106.5" type="curve" smooth="yes"/>
      <point x="172.5" y="120.17"/>
      <point x="157" y="127"/>
      <point x="139" y="127" type="curve" smooth="yes"/>
      <point x="121" y="127"/>
      <point x="105.5" y="120.17"/>
      <point x="92.5" y="106.5" type="curve" smooth="yes"/>
      <point x="79.5" y="92.83"/>
      <point x="73" y="76"/>
      <point x="73" y="56" type="curve" smooth="yes"/>
      <point x="73" y="36"/>
      <point x="79.33" y="19.5"/>
      <point x="92" y="6.5" type="curve" smooth="yes"/>
      <point x="104.67" y="-6.5"/>
      <point x="120.33" y="-13"/>
    </contour>
  </outline>
</glyph>
<glyph name="zero" format="2">
  <advance width="555"/>
  <unicode hex="0030"/>
  <note>
zero
</note>
  <outline>
    <contour>
      <point x="278" y="-13" type="curve" smooth="yes"/>
      <point x="349.33" y="-13"/>
      <point x="405.17" y="19.5"/>
      <point x="445.5" y="84.5" type="curve" smooth="yes"/>
      <point x="485.83" y="149.5"/>
      <point x="506" y="244.33"/>
      <point x="506" y="369" type="curve" smooth="yes"/>
      <point x="506" y="493"/>
      <point x="485.83" y="587"/>
      <point x="445.5" y="651" type="curve" smooth="yes"/>
      <point x="405.17" y="715"/>
      <point x="349.33" y="747"/>
      <point x="278" y="747" type="curve" smooth="yes"/>
      <point x="206" y="747"/>
      <point x="149.83" y="715.17"/>
      <point x="109.5" y="651.5" type="curve" smooth="yes"/>
      <point x="69.17" y="587.83"/>
      <point x="49" y="493.67"/>
      <point x="49" y="369" type="curve" smooth="yes"/>
      <point x="49" y="244.33"/>
      <point x="69.33" y="149.5"/>
      <point x="110" y="84.5" type="curve" smooth="yes"/>
      <point x="150.67" y="19.5"/>
      <point x="206.67" y="-13"/>
    </contour>
    <contour>
      <point x="278" y="60" type="curve" smooth="yes"/>
      <point x="234" y="60"/>
      <point x="199.67" y="85.33"/>
      <point x="175" y="136" type="curve" smooth="yes"/>
      <point x="150.33" y="186.67"/>
      <point x="138" y="264.33"/>
      <point x="138" y="369" type="curve" smooth="yes"/>
      <point x="138" y="472.33"/>
      <point x="150.33" y="548.83"/>
      <point x="175" y="598.5" type="curve" smooth="yes"/>
      <point x="199.67" y="648.17"/>
      <point x="234" y="673"/>
      <point x="278" y="673" type="curve" smooth="yes"/>
      <point x="321.33" y="673"/>
      <point x="355.33" y="648.17"/>
      <point x="380" y="598.5" type="curve" smooth="yes"/>
      <point x="404.67" y="548.83"/>
      <point x="417" y="472.33"/>
      <point x="417" y="369" type="curve" smooth="yes"/>
      <point x="417" y="265"/>
      <point x="404.67" y="187.5"/>
      <point x="380" y="136.5" type="curve" smooth="yes"/>
      <point x="355.33" y="85.5"/>
      <point x="321.33" y="60"/>
    </contour>
  </outline>
</glyph>
<glyph name="one" format="2">
  <advance width="555"/>
  <unicode hex="0031"/>
  <note>
one
</note>
  <outline>
    <contour>
      <point x="251" y="76" type="line"/>
      <point x="88" y="76" type="line"/>
      <point x="88" y="0" type="line"/>
      <point x="490" y="0" type="line"/>
      <point x="490" y="76" type="line"/>
      <point x="343" y="76" type="line"/>
      <point x="343" y="733" type="line"/>
      <point x="273" y="733" type="line"/>
      <point x="232.33" y="709.67"/>
      <point x="181.67" y="692.33"/>
      <point x="121" y="681" type="curve"/>
      <point x="121" y="623" type="line"/>
      <point x="251" y="623" type="line"/>
    </contour>
  </outline>
</glyph>
<glyph name="two" format="2">
  <advance width="555"/>
  <unicode hex="0032"/>
  <note>
two
</note>
  <outline>
    <contour>
      <point x="44" y="54" type="curve"/>
      <point x="44" y="0" type="line"/>
      <point x="505" y="0" type="line"/>
      <point x="505" y="79" type="line"/>
      <point x="302" y="79" type="line" smooth="yes"/>
      <point x="281.33" y="79"/>
      <point x="241.33" y="76.67"/>
      <point x="182" y="72" type="curve"/>
      <point x="275.33" y="160.67"/>
      <point x="346.5" y="242"/>
      <point x="395.5" y="316" type="curve" smooth="yes"/>
      <point x="444.5" y="390"/>
      <point x="469" y="461.33"/>
      <point x="469" y="530" type="curve" smooth="yes"/>
      <point x="469" y="596"/>
      <point x="449.83" y="648.67"/>
      <point x="411.5" y="688" type="curve" smooth="yes"/>
      <point x="373.17" y="727.33"/>
      <point x="321.33" y="747"/>
      <point x="256" y="747" type="curve" smooth="yes"/>
      <point x="212" y="747"/>
      <point x="173.17" y="737.83"/>
      <point x="139.5" y="719.5" type="curve" smooth="yes"/>
      <point x="105.83" y="701.17"/>
      <point x="72.67" y="674.33"/>
      <point x="40" y="639" type="curve"/>
      <point x="93" y="587" type="line"/>
      <point x="140.33" y="643.67"/>
      <point x="191" y="672"/>
      <point x="245" y="672" type="curve" smooth="yes"/>
      <point x="289" y="672"/>
      <point x="322.5" y="658.83"/>
      <point x="345.5" y="632.5" type="curve" smooth="yes"/>
      <point x="368.5" y="606.17"/>
      <point x="380" y="571"/>
      <point x="380" y="527" type="curve" smooth="yes"/>
      <point x="380" y="464.33"/>
      <point x="353" y="395.17"/>
      <point x="299" y="319.5" type="curve" smooth="yes"/>
      <point x="245" y="243.83"/>
      <point x="160" y="155.33"/>
    </contour>
  </outline>
</glyph>
<glyph name="three" format="2">
  <advance width="555"/>
  <unicode hex="0033"/>
  <note>
three
</note>
  <outline>
    <contour>
      <point x="264" y="-13" type="curve" smooth="yes"/>
      <point x="331.33" y="-13"/>
      <point x="387.33" y="5.83"/>
      <point x="432" y="43.5" type="curve" smooth="yes"/>
      <point x="476.67" y="81.17"/>
      <point x="499" y="132"/>
      <point x="499" y="196" type="curve" smooth="yes"/>
      <point x="499" y="244"/>
      <point x="484.33" y="284.33"/>
      <point x="455" y="317" type="curve" smooth="yes"/>
      <point x="425.67" y="349.67"/>
      <point x="388.33" y="371.33"/>
      <point x="343" y="382" type="curve"/>
      <point x="343" y="386" type="line"/>
      <point x="430.33" y="418.67"/>
      <point x="474" y="477.67"/>
      <point x="474" y="563" type="curve" smooth="yes"/>
      <point x="474" y="620.33"/>
      <point x="454.33" y="665.33"/>
      <point x="415" y="698" type="curve" smooth="yes"/>
      <point x="375.67" y="730.67"/>
      <point x="324.33" y="747"/>
      <point x="261" y="747" type="curve" smooth="yes"/>
      <point x="187.67" y="747"/>
      <point x="119.33" y="717.67"/>
      <point x="56" y="659" type="curve"/>
      <point x="105" y="601" type="line"/>
      <point x="151.67" y="647.67"/>
      <point x="202.33" y="672"/>
      <point x="257" y="674" type="curve"/>
      <point x="295" y="672.67"/>
      <point x="325.17" y="661.5"/>
      <point x="347.5" y="640.5" type="curve" smooth="yes"/>
      <point x="369.83" y="619.5"/>
      <point x="381" y="591.33"/>
      <point x="381" y="556" type="curve" smooth="yes"/>
      <point x="381" y="462.67"/>
      <point x="313.33" y="416"/>
      <point x="178" y="416" type="curve"/>
      <point x="178" y="346" type="line"/>
      <point x="330" y="346"/>
      <point x="406" y="297"/>
      <point x="406" y="199" type="curve" smooth="yes"/>
      <point x="406" y="157.67"/>
      <point x="392.17" y="124.67"/>
      <point x="364.5" y="100" type="curve" smooth="yes"/>
      <point x="336.83" y="75.33"/>
      <point x="301" y="63"/>
      <point x="257" y="63" type="curve" smooth="yes"/>
      <point x="189" y="63"/>
      <point x="128.33" y="91"/>
      <point x="75" y="147" type="curve"/>
      <point x="29" y="87" type="line"/>
      <point x="90.33" y="20.33"/>
      <point x="168.67" y="-13"/>
    </contour>
  </outline>
</glyph>
<glyph name="four" format="2">
  <advance width="555"/>
  <unicode hex="0034"/>
  <note>
four
</note>
  <outline>
    <contour>
      <point x="339" y="500" type="curve" smooth="yes"/>
      <point x="339" y="275" type="line"/>
      <point x="115" y="275" type="line"/>
      <point x="282" y="525" type="line"/>
      <point x="305.33" y="565"/>
      <point x="325" y="601"/>
      <point x="341" y="633" type="curve"/>
      <point x="345" y="633" type="line"/>
      <point x="341" y="557"/>
      <point x="339" y="512.67"/>
    </contour>
    <contour>
      <point x="426" y="202" type="line"/>
      <point x="523" y="202" type="line"/>
      <point x="523" y="275" type="line"/>
      <point x="426" y="275" type="line"/>
      <point x="426" y="733" type="line"/>
      <point x="325" y="733" type="line"/>
      <point x="20" y="262" type="line"/>
      <point x="20" y="202" type="line"/>
      <point x="339" y="202" type="line"/>
      <point x="339" y="0" type="line"/>
      <point x="426" y="0" type="line"/>
    </contour>
  </outline>
</glyph>
<glyph name="five" format="2">
  <advance width="555"/>
  <unicode hex="0035"/>
  <note>
five
</note>
  <outline>
    <contour>
      <point x="261" y="-13" type="curve" smooth="yes"/>
      <point x="326.33" y="-13"/>
      <point x="382.67" y="9.67"/>
      <point x="430" y="55" type="curve" smooth="yes"/>
      <point x="477.33" y="100.33"/>
      <point x="501" y="161.67"/>
      <point x="501" y="239" type="curve" smooth="yes"/>
      <point x="501" y="315.67"/>
      <point x="480.33" y="373.67"/>
      <point x="439" y="413" type="curve" smooth="yes"/>
      <point x="397.67" y="452.33"/>
      <point x="344.67" y="472"/>
      <point x="280" y="472" type="curve" smooth="yes"/>
      <point x="242" y="472"/>
      <point x="205.67" y="462.33"/>
      <point x="171" y="443" type="curve"/>
      <point x="189" y="655" type="line"/>
      <point x="466" y="655" type="line"/>
      <point x="466" y="733" type="line"/>
      <point x="109" y="733" type="line"/>
      <point x="86" y="390" type="line"/>
      <point x="135" y="360" type="line"/>
      <point x="178.33" y="388.67"/>
      <point x="219" y="403"/>
      <point x="257" y="403" type="curve" smooth="yes"/>
      <point x="303.67" y="403"/>
      <point x="340.67" y="388.17"/>
      <point x="368" y="358.5" type="curve" smooth="yes"/>
      <point x="395.33" y="328.83"/>
      <point x="409" y="288"/>
      <point x="409" y="236" type="curve" smooth="yes"/>
      <point x="409" y="184"/>
      <point x="394" y="142.17"/>
      <point x="364" y="110.5" type="curve" smooth="yes"/>
      <point x="334" y="78.83"/>
      <point x="297" y="63"/>
      <point x="253" y="63" type="curve" smooth="yes"/>
      <point x="187" y="63"/>
      <point x="127" y="90"/>
      <point x="73" y="144" type="curve"/>
      <point x="28" y="84" type="line"/>
      <point x="92.67" y="19.33"/>
      <point x="170.33" y="-13"/>
    </contour>
  </outline>
</glyph>
<glyph name="six" format="2">
  <advance width="555"/>
  <unicode hex="0036"/>
  <note>
six
</note>
  <outline>
    <contour>
      <point x="301" y="58" type="curve" smooth="yes"/>
      <point x="255" y="58"/>
      <point x="218.5" y="78.17"/>
      <point x="191.5" y="118.5" type="curve" smooth="yes"/>
      <point x="164.5" y="158.83"/>
      <point x="148.33" y="217"/>
      <point x="143" y="293" type="curve"/>
      <point x="187" y="355.67"/>
      <point x="237" y="387"/>
      <point x="293" y="387" type="curve" smooth="yes"/>
      <point x="336.33" y="387"/>
      <point x="369.17" y="372.67"/>
      <point x="391.5" y="344" type="curve" smooth="yes"/>
      <point x="413.83" y="315.33"/>
      <point x="425" y="275.67"/>
      <point x="425" y="225" type="curve" smooth="yes"/>
      <point x="425" y="175.67"/>
      <point x="413.17" y="135.5"/>
      <point x="389.5" y="104.5" type="curve" smooth="yes"/>
      <point x="365.83" y="73.5"/>
      <point x="336.33" y="58"/>
    </contour>
    <contour>
      <point x="448" y="615" type="curve"/>
      <point x="498" y="672" type="line"/>
      <point x="451.33" y="722"/>
      <point x="394.33" y="747"/>
      <point x="327" y="747" type="curve" smooth="yes"/>
      <point x="249" y="747"/>
      <point x="184.33" y="714.5"/>
      <point x="133" y="649.5" type="curve" smooth="yes"/>
      <point x="81.67" y="584.5"/>
      <point x="56" y="484.67"/>
      <point x="56" y="350" type="curve" smooth="yes"/>
      <point x="56" y="232.67"/>
      <point x="78.5" y="142.83"/>
      <point x="123.5" y="80.5" type="curve" smooth="yes"/>
      <point x="168.5" y="18.17"/>
      <point x="227.67" y="-13"/>
      <point x="301" y="-13" type="curve" smooth="yes"/>
      <point x="359.67" y="-13"/>
      <point x="409.33" y="9.33"/>
      <point x="450" y="54" type="curve" smooth="yes"/>
      <point x="490.67" y="98.67"/>
      <point x="511" y="155.67"/>
      <point x="511" y="225" type="curve" smooth="yes"/>
      <point x="511" y="299.67"/>
      <point x="493" y="356.67"/>
      <point x="457" y="396" type="curve" smooth="yes"/>
      <point x="421" y="435.33"/>
      <point x="371.33" y="455"/>
      <point x="308" y="455" type="curve" smooth="yes"/>
      <point x="278.67" y="455"/>
      <point x="249.17" y="447"/>
      <point x="219.5" y="431" type="curve" smooth="yes"/>
      <point x="189.83" y="415"/>
      <point x="163.67" y="393.33"/>
      <point x="141" y="366" type="curve"/>
      <point x="143" y="472.67"/>
      <point x="161.33" y="550.17"/>
      <point x="196" y="598.5" type="curve" smooth="yes"/>
      <point x="230.67" y="646.83"/>
      <point x="275.33" y="671"/>
      <point x="330" y="671" type="curve" smooth="yes"/>
      <point x="378" y="671"/>
      <point x="417.33" y="652.33"/>
    </contour>
  </outline>
</glyph>
<glyph name="seven" format="2">
  <advance width="555"/>
  <unicode hex="0037"/>
  <note>
seven
</note>
  <outline>
    <contour>
      <point x="198" y="0" type="curve"/>
      <point x="293" y="0" type="line"/>
      <point x="299" y="155.33"/>
      <point x="316" y="281"/>
      <point x="344" y="377" type="curve" smooth="yes"/>
      <point x="372" y="473"/>
      <point x="426.67" y="573.33"/>
      <point x="508" y="678" type="curve"/>
      <point x="508" y="733" type="line"/>
      <point x="49" y="733" type="line"/>
      <point x="49" y="655" type="line"/>
      <point x="404" y="655" type="line"/>
      <point x="333.33" y="556.33"/>
      <point x="282.83" y="457.83"/>
      <point x="252.5" y="359.5" type="curve" smooth="yes"/>
      <point x="222.17" y="261.17"/>
      <point x="204" y="141.33"/>
    </contour>
  </outline>
</glyph>
<glyph name="eight" format="2">
  <advance width="555"/>
  <unicode hex="0038"/>
  <note>
eight
</note>
  <outline>
    <contour>
      <point x="279" y="-13" type="curve" smooth="yes"/>
      <point x="347" y="-13"/>
      <point x="402.33" y="5.17"/>
      <point x="445" y="41.5" type="curve" smooth="yes"/>
      <point x="487.67" y="77.83"/>
      <point x="509" y="123"/>
      <point x="509" y="177" type="curve" smooth="yes"/>
      <point x="509" y="257"/>
      <point x="467.67" y="321"/>
      <point x="385" y="369" type="curve"/>
      <point x="385" y="374" type="line"/>
      <point x="411" y="394"/>
      <point x="433.83" y="419.67"/>
      <point x="453.5" y="451" type="curve" smooth="yes"/>
      <point x="473.17" y="482.33"/>
      <point x="483" y="515.67"/>
      <point x="483" y="551" type="curve" smooth="yes"/>
      <point x="483" y="608.33"/>
      <point x="464.83" y="654.83"/>
      <point x="428.5" y="690.5" type="curve" smooth="yes"/>
      <point x="392.17" y="726.17"/>
      <point x="343.33" y="744"/>
      <point x="282" y="744" type="curve" smooth="yes"/>
      <point x="224" y="744"/>
      <point x="176" y="726.83"/>
      <point x="138" y="692.5" type="curve" smooth="yes"/>
      <point x="100" y="658.17"/>
      <point x="81" y="613.33"/>
      <point x="81" y="558" type="curve" smooth="yes"/>
      <point x="81" y="490.67"/>
      <point x="114" y="434.33"/>
      <point x="180" y="389" type="curve"/>
      <point x="180" y="384" type="line"/>
      <point x="142" y="363.33"/>
      <point x="110" y="335.83"/>
      <point x="84" y="301.5" type="curve" smooth="yes"/>
      <point x="58" y="267.17"/>
      <point x="45" y="227.33"/>
      <point x="45" y="182" type="curve" smooth="yes"/>
      <point x="45" y="125.33"/>
      <point x="67.17" y="78.67"/>
      <point x="111.5" y="42" type="curve" smooth="yes"/>
      <point x="155.83" y="5.33"/>
      <point x="211.67" y="-13"/>
    </contour>
    <contour>
      <point x="329" y="398" type="curve"/>
      <point x="275.67" y="419.33"/>
      <point x="234.83" y="441.5"/>
      <point x="206.5" y="464.5" type="curve" smooth="yes"/>
      <point x="178.17" y="487.5"/>
      <point x="164" y="518.67"/>
      <point x="164" y="558" type="curve" smooth="yes"/>
      <point x="164" y="593.33"/>
      <point x="174.83" y="622"/>
      <point x="196.5" y="644" type="curve" smooth="yes"/>
      <point x="218.17" y="666"/>
      <point x="246" y="677"/>
      <point x="280" y="677" type="curve" smooth="yes"/>
      <point x="318" y="677"/>
      <point x="348.33" y="664.5"/>
      <point x="371" y="639.5" type="curve" smooth="yes"/>
      <point x="393.67" y="614.5"/>
      <point x="405" y="583.33"/>
      <point x="405" y="546" type="curve" smooth="yes"/>
      <point x="405" y="492"/>
      <point x="379.67" y="442.67"/>
    </contour>
    <contour>
      <point x="281" y="55" type="curve" smooth="yes"/>
      <point x="237" y="55"/>
      <point x="200.5" y="67.83"/>
      <point x="171.5" y="93.5" type="curve" smooth="yes"/>
      <point x="142.5" y="119.17"/>
      <point x="128" y="151.33"/>
      <point x="128" y="190" type="curve" smooth="yes"/>
      <point x="128" y="258"/>
      <point x="161.33" y="313.33"/>
      <point x="228" y="356" type="curve"/>
      <point x="262" y="342.67"/>
      <point x="287.5" y="331.83"/>
      <point x="304.5" y="323.5" type="curve" smooth="yes"/>
      <point x="321.5" y="315.17"/>
      <point x="340.67" y="303.83"/>
      <point x="362" y="289.5" type="curve" smooth="yes"/>
      <point x="383.33" y="275.17"/>
      <point x="398.67" y="259"/>
      <point x="408" y="241" type="curve" smooth="yes"/>
      <point x="417.33" y="223"/>
      <point x="422" y="202.33"/>
      <point x="422" y="179" type="curve" smooth="yes"/>
      <point x="422" y="142.33"/>
      <point x="409" y="112.5"/>
      <point x="383" y="89.5" type="curve" smooth="yes"/>
      <point x="357" y="66.5"/>
      <point x="323" y="55"/>
    </contour>
  </outline>
</glyph>
<glyph name="nine" format="2">
  <advance width="555"/>
  <unicode hex="0039"/>
  <note>
nine
</note>
  <outline>
    <contour>
      <point x="261" y="346" type="curve" smooth="yes"/>
      <point x="218.33" y="346"/>
      <point x="185.83" y="360.5"/>
      <point x="163.5" y="389.5" type="curve" smooth="yes"/>
      <point x="141.17" y="418.5"/>
      <point x="130" y="458.33"/>
      <point x="130" y="509" type="curve" smooth="yes"/>
      <point x="130" y="558.33"/>
      <point x="141.83" y="598.33"/>
      <point x="165.5" y="629" type="curve" smooth="yes"/>
      <point x="189.17" y="659.67"/>
      <point x="218.67" y="675"/>
      <point x="254" y="675" type="curve" smooth="yes"/>
      <point x="301.33" y="675"/>
      <point x="338.67" y="655.33"/>
      <point x="366" y="616" type="curve" smooth="yes"/>
      <point x="393.33" y="576.67"/>
      <point x="409.33" y="519.33"/>
      <point x="414" y="444" type="curve"/>
      <point x="368" y="378.67"/>
      <point x="317" y="346"/>
    </contour>
    <contour>
      <point x="108" y="119" type="curve"/>
      <point x="58" y="62" type="line"/>
      <point x="106" y="12"/>
      <point x="164.67" y="-13"/>
      <point x="234" y="-13" type="curve" smooth="yes"/>
      <point x="270" y="-13"/>
      <point x="303.33" y="-5.33"/>
      <point x="334" y="10" type="curve" smooth="yes"/>
      <point x="364.67" y="25.33"/>
      <point x="392.67" y="48.83"/>
      <point x="418" y="80.5" type="curve" smooth="yes"/>
      <point x="443.33" y="112.17"/>
      <point x="463.33" y="155.17"/>
      <point x="478" y="209.5" type="curve" smooth="yes"/>
      <point x="492.67" y="263.83"/>
      <point x="500" y="326.67"/>
      <point x="500" y="398" type="curve" smooth="yes"/>
      <point x="500" y="510.67"/>
      <point x="477.33" y="597"/>
      <point x="432" y="657" type="curve" smooth="yes"/>
      <point x="386.67" y="717"/>
      <point x="327.33" y="747"/>
      <point x="254" y="747" type="curve" smooth="yes"/>
      <point x="195.33" y="747"/>
      <point x="145.67" y="724.67"/>
      <point x="105" y="680" type="curve" smooth="yes"/>
      <point x="64.33" y="635.33"/>
      <point x="44" y="578.33"/>
      <point x="44" y="509" type="curve" smooth="yes"/>
      <point x="44" y="434.33"/>
      <point x="62" y="377.17"/>
      <point x="98" y="337.5" type="curve" smooth="yes"/>
      <point x="134" y="297.83"/>
      <point x="183.33" y="278"/>
      <point x="246" y="278" type="curve" smooth="yes"/>
      <point x="276.67" y="278"/>
      <point x="306.83" y="286.17"/>
      <point x="336.5" y="302.5" type="curve" smooth="yes"/>
      <point x="366.17" y="318.83"/>
      <point x="392.33" y="341"/>
      <point x="415" y="369" type="curve"/>
      <point x="411.67" y="262.33"/>
      <point x="393.17" y="184.67"/>
      <point x="359.5" y="136" type="curve" smooth="yes"/>
      <point x="325.83" y="87.33"/>
      <point x="283" y="63"/>
      <point x="231" y="63" type="curve" smooth="yes"/>
      <point x="182.33" y="63"/>
      <point x="141.33" y="81.67"/>
    </contour>
  </outline>
</glyph>
<glyph name="A" format="2">
  <advance width="607"/>
  <unicode hex="0041"/>
  <note>
A
</note>
  <outline>
    <contour>
      <point x="378" y="410" type="curve" smooth="yes"/>
      <point x="413" y="298" type="line"/>
      <point x="191" y="298" type="line"/>
      <point x="227" y="410" type="line" smooth="yes"/>
      <point x="257.67" y="507.33"/>
      <point x="282" y="590"/>
      <point x="300" y="658" type="curve"/>
      <point x="304" y="658" type="line"/>
      <point x="333.33" y="554.67"/>
      <point x="358" y="472"/>
    </contour>
    <contour>
      <point x="168" y="224" type="line"/>
      <point x="436" y="224" type="line"/>
      <point x="506" y="0" type="line"/>
      <point x="604" y="0" type="line"/>
      <point x="355" y="733" type="line"/>
      <point x="252" y="733" type="line"/>
      <point x="3" y="0" type="line"/>
      <point x="97" y="0" type="line"/>
    </contour>
  </outline>
</glyph>
<glyph name="B" format="2">
  <advance width="657"/>
  <unicode hex="0042"/>
  <note>
B
</note>
  <outline>
    <contour>
      <point x="318" y="733" type="curve" smooth="yes"/>
      <point x="100" y="733" type="line"/>
      <point x="100" y="0" type="line"/>
      <point x="334" y="0" type="line" smooth="yes"/>
      <point x="418.67" y="0"/>
      <point x="486.17" y="18.33"/>
      <point x="536.5" y="55" type="curve" smooth="yes"/>
      <point x="586.83" y="91.67"/>
      <point x="612" y="145"/>
      <point x="612" y="215" type="curve" smooth="yes"/>
      <point x="612" y="263"/>
      <point x="598.5" y="302"/>
      <point x="571.5" y="332" type="curve" smooth="yes"/>
      <point x="544.5" y="362"/>
      <point x="508" y="381.33"/>
      <point x="462" y="390" type="curve"/>
      <point x="462" y="395" type="line"/>
      <point x="496" y="405.67"/>
      <point x="522.5" y="425.5"/>
      <point x="541.5" y="454.5" type="curve" smooth="yes"/>
      <point x="560.5" y="483.5"/>
      <point x="570" y="516.67"/>
      <point x="570" y="554" type="curve" smooth="yes"/>
      <point x="570" y="673.33"/>
      <point x="486" y="733"/>
    </contour>
    <contour>
      <point x="302" y="421" type="curve" smooth="yes"/>
      <point x="193" y="421" type="line"/>
      <point x="193" y="660" type="line"/>
      <point x="306" y="660" type="line" smooth="yes"/>
      <point x="364.67" y="660"/>
      <point x="408.17" y="650.83"/>
      <point x="436.5" y="632.5" type="curve" smooth="yes"/>
      <point x="464.83" y="614.17"/>
      <point x="479" y="584"/>
      <point x="479" y="542" type="curve" smooth="yes"/>
      <point x="479" y="461.33"/>
      <point x="420" y="421"/>
    </contour>
    <contour>
      <point x="321" y="74" type="curve" smooth="yes"/>
      <point x="193" y="74" type="line"/>
      <point x="193" y="350" type="line"/>
      <point x="321" y="350" type="line" smooth="yes"/>
      <point x="454.33" y="350"/>
      <point x="521" y="306"/>
      <point x="521" y="218" type="curve" smooth="yes"/>
      <point x="521" y="122"/>
      <point x="454.33" y="74"/>
    </contour>
  </outline>
</glyph>
<glyph name="C" format="2">
  <advance width="638"/>
  <unicode hex="0043"/>
  <note>
C
</note>
  <outline>
    <contour>
      <point x="377" y="-13" type="curve" smooth="yes"/>
      <point x="466.33" y="-13"/>
      <point x="541.33" y="22"/>
      <point x="602" y="92" type="curve"/>
      <point x="551" y="150" type="line"/>
      <point x="500.33" y="95.33"/>
      <point x="443.67" y="68"/>
      <point x="381" y="68" type="curve" smooth="yes"/>
      <point x="311" y="68"/>
      <point x="255.5" y="95"/>
      <point x="214.5" y="149" type="curve" smooth="yes"/>
      <point x="173.5" y="203"/>
      <point x="153" y="276.33"/>
      <point x="153" y="369" type="curve" smooth="yes"/>
      <point x="153" y="459.67"/>
      <point x="174" y="531.83"/>
      <point x="216" y="585.5" type="curve" smooth="yes"/>
      <point x="258" y="639.17"/>
      <point x="314" y="666"/>
      <point x="384" y="666" type="curve" smooth="yes"/>
      <point x="440.67" y="666"/>
      <point x="490.67" y="642.67"/>
      <point x="534" y="596" type="curve"/>
      <point x="584" y="656" type="line"/>
      <point x="530" y="716.67"/>
      <point x="463" y="747"/>
      <point x="383" y="747" type="curve" smooth="yes"/>
      <point x="288.33" y="747"/>
      <point x="210.5" y="712.5"/>
      <point x="149.5" y="643.5" type="curve" smooth="yes"/>
      <point x="88.5" y="574.5"/>
      <point x="58" y="482"/>
      <point x="58" y="366" type="curve" smooth="yes"/>
      <point x="58" y="249.33"/>
      <point x="87.83" y="157"/>
      <point x="147.5" y="89" type="curve" smooth="yes"/>
      <point x="207.17" y="21"/>
      <point x="283.67" y="-13"/>
    </contour>
  </outline>
</glyph>
<glyph name="D" format="2">
  <advance width="687"/>
  <unicode hex="0044"/>
  <note>
D
</note>
  <outline>
    <contour>
      <point x="284" y="733" type="curve" smooth="yes"/>
      <point x="100" y="733" type="line"/>
      <point x="100" y="0" type="line"/>
      <point x="288" y="0" type="line" smooth="yes"/>
      <point x="398" y="0"/>
      <point x="482.5" y="32.33"/>
      <point x="541.5" y="97" type="curve" smooth="yes"/>
      <point x="600.5" y="161.67"/>
      <point x="630" y="252.33"/>
      <point x="630" y="369" type="curve" smooth="yes"/>
      <point x="630" y="485.67"/>
      <point x="600.33" y="575.5"/>
      <point x="541" y="638.5" type="curve" smooth="yes"/>
      <point x="481.67" y="701.5"/>
      <point x="396" y="733"/>
    </contour>
    <contour>
      <point x="276" y="76" type="curve" smooth="yes"/>
      <point x="193" y="76" type="line"/>
      <point x="193" y="658" type="line"/>
      <point x="276" y="658" type="line" smooth="yes"/>
      <point x="361.33" y="658"/>
      <point x="425.67" y="633.33"/>
      <point x="469" y="584" type="curve" smooth="yes"/>
      <point x="512.33" y="534.67"/>
      <point x="534" y="463"/>
      <point x="534" y="369" type="curve" smooth="yes"/>
      <point x="534" y="275"/>
      <point x="512.33" y="202.67"/>
      <point x="469" y="152" type="curve" smooth="yes"/>
      <point x="425.67" y="101.33"/>
      <point x="361.33" y="76"/>
    </contour>
  </outline>
</glyph>
<glyph name="E" format="2">
  <advance width="588"/>
  <unicode hex="0045"/>
  <note>
E
</note>
  <outline>
    <contour>
      <point x="523" y="733" type="line"/>
      <point x="100" y="733" type="line"/>
      <point x="100" y="0" type="line"/>
      <point x="534" y="0" type="line"/>
      <point x="534" y="79" type="line"/>
      <point x="193" y="79" type="line"/>
      <point x="193" y="346" type="line"/>
      <point x="471" y="346" type="line"/>
      <point x="471" y="425" type="line"/>
      <point x="193" y="425" type="line"/>
      <point x="193" y="655" type="line"/>
      <point x="523" y="655" type="line"/>
    </contour>
  </outline>
</glyph>
<glyph name="F" format="2">
  <advance width="552"/>
  <unicode hex="0046"/>
  <note>
F
</note>
  <outline>
    <contour>
      <point x="523" y="733" type="line"/>
      <point x="100" y="733" type="line"/>
      <point x="100" y="0" type="line"/>
      <point x="193" y="0" type="line"/>
      <point x="193" y="329" type="line"/>
      <point x="473" y="329" type="line"/>
      <point x="473" y="407" type="line"/>
      <point x="193" y="407" type="line"/>
      <point x="193" y="655" type="line"/>
      <point x="523" y="655" type="line"/>
    </contour>
  </outline>
</glyph>
<glyph name="G" format="2">
  <advance width="689"/>
  <unicode hex="0047"/>
  <note>
G
</note>
  <outline>
    <contour>
      <point x="388" y="-13" type="curve" smooth="yes"/>
      <point x="484.67" y="-13"/>
      <point x="560.33" y="15.33"/>
      <point x="615" y="72" type="curve"/>
      <point x="615" y="380" type="line"/>
      <point x="375" y="380" type="line"/>
      <point x="375" y="303" type="line"/>
      <point x="530" y="303" type="line"/>
      <point x="530" y="111" type="line"/>
      <point x="499.33" y="82.33"/>
      <point x="455" y="68"/>
      <point x="397" y="68" type="curve" smooth="yes"/>
      <point x="319.67" y="68"/>
      <point x="259.67" y="94.83"/>
      <point x="217" y="148.5" type="curve" smooth="yes"/>
      <point x="174.33" y="202.17"/>
      <point x="153" y="275.67"/>
      <point x="153" y="369" type="curve" smooth="yes"/>
      <point x="153" y="460.33"/>
      <point x="175" y="532.67"/>
      <point x="219" y="586" type="curve" smooth="yes"/>
      <point x="263" y="639.33"/>
      <point x="322" y="666"/>
      <point x="396" y="666" type="curve" smooth="yes"/>
      <point x="458" y="666"/>
      <point x="511" y="642.67"/>
      <point x="555" y="596" type="curve"/>
      <point x="605" y="656" type="line"/>
      <point x="548.33" y="716.67"/>
      <point x="478" y="747"/>
      <point x="394" y="747" type="curve" smooth="yes"/>
      <point x="295.33" y="747"/>
      <point x="214.67" y="712.67"/>
      <point x="152" y="644" type="curve" smooth="yes"/>
      <point x="89.33" y="575.33"/>
      <point x="58" y="482.67"/>
      <point x="58" y="366" type="curve" smooth="yes"/>
      <point x="58" y="248.67"/>
      <point x="88.5" y="156.17"/>
      <point x="149.5" y="88.5" type="curve" smooth="yes"/>
      <point x="210.5" y="20.83"/>
      <point x="290" y="-13"/>
    </contour>
  </outline>
</glyph>
<glyph name="H" format="2">
  <advance width="728"/>
  <unicode hex="0048"/>
  <note>
H
</note>
  <outline>
    <contour>
      <point x="193" y="733" type="line"/>
      <point x="100" y="733" type="line"/>
      <point x="100" y="0" type="line"/>
      <point x="193" y="0" type="line"/>
      <point x="193" y="346" type="line"/>
      <point x="535" y="346" type="line"/>
      <point x="535" y="0" type="line"/>
      <point x="627" y="0" type="line"/>
      <point x="627" y="733" type="line"/>
      <point x="535" y="733" type="line"/>
      <point x="535" y="426" type="line"/>
      <point x="193" y="426" type="line"/>
    </contour>
  </outline>
</glyph>
<glyph name="J" format="2">
  <advance width="536"/>
  <unicode hex="004A"/>
  <note>
J
</note>
  <outline>
    <contour>
      <point x="237" y="-13" type="curve" smooth="yes"/>
      <point x="305" y="-13"/>
      <point x="355.5" y="8"/>
      <point x="388.5" y="50" type="curve" smooth="yes"/>
      <point x="421.5" y="92"/>
      <point x="438" y="147"/>
      <point x="438" y="215" type="curve" smooth="yes"/>
      <point x="438" y="733" type="line"/>
      <point x="346" y="733" type="line"/>
      <point x="346" y="224" type="line" smooth="yes"/>
      <point x="346" y="169.33"/>
      <point x="336.33" y="129.67"/>
      <point x="317" y="105" type="curve" smooth="yes"/>
      <point x="297.67" y="80.33"/>
      <point x="268" y="68"/>
      <point x="228" y="68" type="curve" smooth="yes"/>
      <point x="174.67" y="68"/>
      <point x="132.33" y="95.33"/>
      <point x="101" y="150" type="curve"/>
      <point x="35" y="103" type="line"/>
      <point x="79" y="25.67"/>
      <point x="146.33" y="-13"/>
    </contour>
  </outline>
</glyph>
<glyph name="L" format="2">
  <advance width="542"/>
  <unicode hex="004C"/>
  <note>
L
</note>
  <outline>
    <contour>
      <point x="193" y="733" type="line"/>
      <point x="100" y="733" type="line"/>
      <point x="100" y="0" type="line"/>
      <point x="513" y="0" type="line"/>
      <point x="513" y="79" type="line"/>
      <point x="193" y="79" type="line"/>
    </contour>
  </outline>
</glyph>
<glyph name="M" format="2">
  <advance width="812"/>
  <unicode hex="004D"/>
  <note>
M
</note>
  <outline>
    <contour>
      <point x="212" y="733" type="line"/>
      <point x="100" y="733" type="line"/>
      <point x="100" y="0" type="line"/>
      <point x="184" y="0" type="line"/>
      <point x="184" y="406" type="line" smooth="yes"/>
      <point x="184" y="432.67"/>
      <point x="180.33" y="504.67"/>
      <point x="173" y="622" type="curve"/>
      <point x="177" y="622" type="line"/>
      <point x="235" y="455" type="line"/>
      <point x="374" y="74" type="line"/>
      <point x="436" y="74" type="line"/>
      <point x="575" y="455" type="line"/>
      <point x="633" y="622" type="line"/>
      <point x="637" y="622" type="line"/>
      <point x="629" y="519.33"/>
      <point x="625" y="447.33"/>
      <point x="625" y="406" type="curve" smooth="yes"/>
      <point x="625" y="0" type="line"/>
      <point x="712" y="0" type="line"/>
      <point x="712" y="733" type="line"/>
      <point x="600" y="733" type="line"/>
      <point x="460" y="341" type="line" smooth="yes"/>
      <point x="454.67" y="324.33"/>
      <point x="446.33" y="299"/>
      <point x="435" y="265" type="curve" smooth="yes"/>
      <point x="423.67" y="231"/>
      <point x="415.33" y="205.33"/>
      <point x="410" y="188" type="curve"/>
      <point x="405" y="188" type="line"/>
      <point x="393" y="222"/>
      <point x="375.67" y="273"/>
      <point x="353" y="341" type="curve" smooth="yes"/>
    </contour>
  </outline>
</glyph>
<glyph name="N" format="2">
  <advance width="722"/>
  <unicode hex="004E"/>
  <note>
N
</note>
  <outline>
    <contour>
      <point x="196" y="733" type="line"/>
      <point x="100" y="733" type="line"/>
      <point x="100" y="0" type="line"/>
      <point x="188" y="0" type="line"/>
      <point x="188" y="385" type="line" smooth="yes"/>
      <point x="188" y="401.67"/>
      <point x="184.33" y="478"/>
      <point x="177" y="614" type="curve"/>
      <point x="181" y="614" type="line"/>
      <point x="260" y="463" type="line"/>
      <point x="527" y="0" type="line"/>
      <point x="622" y="0" type="line"/>
      <point x="622" y="733" type="line"/>
      <point x="534" y="733" type="line"/>
      <point x="534" y="352" type="line" smooth="yes"/>
      <point x="534" y="316"/>
      <point x="538" y="238.67"/>
      <point x="546" y="120" type="curve"/>
      <point x="541" y="120" type="line"/>
      <point x="463" y="271" type="line"/>
    </contour>
  </outline>
</glyph>
<glyph name="O" format="2">
  <advance width="742"/>
  <unicode hex="004F"/>
  <note>
O
</note>
  <outline>
    <contour>
      <point x="371" y="-13" type="curve" smooth="yes"/>
      <point x="464.33" y="-13"/>
      <point x="539.83" y="21.67"/>
      <point x="597.5" y="91" type="curve" smooth="yes"/>
      <point x="655.17" y="160.33"/>
      <point x="684" y="253"/>
      <point x="684" y="369" type="curve" smooth="yes"/>
      <point x="684" y="485"/>
      <point x="655.17" y="577"/>
      <point x="597.5" y="645" type="curve" smooth="yes"/>
      <point x="539.83" y="713"/>
      <point x="464.33" y="747"/>
      <point x="371" y="747" type="curve" smooth="yes"/>
      <point x="277.67" y="747"/>
      <point x="202.17" y="713"/>
      <point x="144.5" y="645" type="curve" smooth="yes"/>
      <point x="86.83" y="577"/>
      <point x="58" y="485"/>
      <point x="58" y="369" type="curve" smooth="yes"/>
      <point x="58" y="253"/>
      <point x="86.83" y="160.33"/>
      <point x="144.5" y="91" type="curve" smooth="yes"/>
      <point x="202.17" y="21.67"/>
      <point x="277.67" y="-13"/>
    </contour>
    <contour>
      <point x="371" y="68" type="curve" smooth="yes"/>
      <point x="305" y="68"/>
      <point x="252.17" y="95.33"/>
      <point x="212.5" y="150" type="curve" smooth="yes"/>
      <point x="172.83" y="204.67"/>
      <point x="153" y="277.67"/>
      <point x="153" y="369" type="curve" smooth="yes"/>
      <point x="153" y="460.33"/>
      <point x="172.67" y="532.67"/>
      <point x="212" y="586" type="curve" smooth="yes"/>
      <point x="251.33" y="639.33"/>
      <point x="304.33" y="666"/>
      <point x="371" y="666" type="curve" smooth="yes"/>
      <point x="437" y="666"/>
      <point x="489.83" y="639.33"/>
      <point x="529.5" y="586" type="curve" smooth="yes"/>
      <point x="569.17" y="532.67"/>
      <point x="589" y="460.33"/>
      <point x="589" y="369" type="curve" smooth="yes"/>
      <point x="589" y="277.67"/>
      <point x="569.17" y="204.67"/>
      <point x="529.5" y="150" type="curve" smooth="yes"/>
      <point x="489.83" y="95.33"/>
      <point x="437" y="68"/>
    </contour>
  </outline>
</glyph>
<glyph name="P" format="2">
  <advance width="632"/>
  <unicode hex="0050"/>
  <note>
P
</note>
  <outline>
    <contour>
      <point x="309" y="733" type="curve" smooth="yes"/>
      <point x="100" y="733" type="line"/>
      <point x="100" y="0" type="line"/>
      <point x="193" y="0" type="line"/>
      <point x="193" y="291" type="line"/>
      <point x="314" y="291" type="line" smooth="yes"/>
      <point x="397.33" y="291"/>
      <point x="463.17" y="310"/>
      <point x="511.5" y="348" type="curve" smooth="yes"/>
      <point x="559.83" y="386"/>
      <point x="584" y="442.67"/>
      <point x="584" y="518" type="curve" smooth="yes"/>
      <point x="584" y="661.33"/>
      <point x="492.33" y="733"/>
    </contour>
    <contour>
      <point x="302" y="366" type="curve" smooth="yes"/>
      <point x="193" y="366" type="line"/>
      <point x="193" y="658" type="line"/>
      <point x="298" y="658" type="line" smooth="yes"/>
      <point x="364.67" y="658"/>
      <point x="413.67" y="647.5"/>
      <point x="445" y="626.5" type="curve" smooth="yes"/>
      <point x="476.33" y="605.5"/>
      <point x="492" y="569.33"/>
      <point x="492" y="518" type="curve" smooth="yes"/>
      <point x="492" y="466"/>
      <point x="476.5" y="427.67"/>
      <point x="445.5" y="403" type="curve" smooth="yes"/>
      <point x="414.5" y="378.33"/>
      <point x="366.67" y="366"/>
    </contour>
  </outline>
</glyph>
<glyph name="Q" format="2">
  <advance width="742"/>
  <unicode hex="0051"/>
  <note>
Q
</note>
  <outline>
    <contour>
      <point x="153" y="369" type="curve" smooth="yes"/>
      <point x="153" y="460.33"/>
      <point x="172.67" y="532.67"/>
      <point x="212" y="586" type="curve" smooth="yes"/>
      <point x="251.33" y="639.33"/>
      <point x="304.33" y="666"/>
      <point x="371" y="666" type="curve" smooth="yes"/>
      <point x="437" y="666"/>
      <point x="489.83" y="639.33"/>
      <point x="529.5" y="586" type="curve" smooth="yes"/>
      <point x="569.17" y="532.67"/>
      <point x="589" y="460.33"/>
      <point x="589" y="369" type="curve" smooth="yes"/>
      <point x="589" y="275.67"/>
      <point x="569.17" y="201.33"/>
      <point x="529.5" y="146" type="curve" smooth="yes"/>
      <point x="489.83" y="90.67"/>
      <point x="437" y="63"/>
      <point x="371" y="63" type="curve" smooth="yes"/>
      <point x="305" y="63"/>
      <point x="252.17" y="90.67"/>
      <point x="212.5" y="146" type="curve" smooth="yes"/>
      <point x="172.83" y="201.33"/>
      <point x="153" y="275.67"/>
    </contour>
    <contour>
      <point x="700" y="-168" type="curve"/>
      <point x="682" y="-96" type="line"/>
      <point x="658.67" y="-103.33"/>
      <point x="633" y="-107"/>
      <point x="605" y="-107" type="curve" smooth="yes"/>
      <point x="518.33" y="-107"/>
      <point x="458.33" y="-74.33"/>
      <point x="425" y="-9" type="curve"/>
      <point x="503.67" y="5"/>
      <point x="566.5" y="45.5"/>
      <point x="613.5" y="112.5" type="curve" smooth="yes"/>
      <point x="660.5" y="179.5"/>
      <point x="684" y="265"/>
      <point x="684" y="369" type="curve" smooth="yes"/>
      <point x="684" y="485"/>
      <point x="655.17" y="577"/>
      <point x="597.5" y="645" type="curve" smooth="yes"/>
      <point x="539.83" y="713"/>
      <point x="464.33" y="747"/>
      <point x="371" y="747" type="curve" smooth="yes"/>
      <point x="277.67" y="747"/>
      <point x="202.17" y="713"/>
      <point x="144.5" y="645" type="curve" smooth="yes"/>
      <point x="86.83" y="577"/>
      <point x="58" y="485"/>
      <point x="58" y="369" type="curve" smooth="yes"/>
      <point x="58" y="263"/>
      <point x="82.33" y="176.17"/>
      <point x="131" y="108.5" type="curve" smooth="yes"/>
      <point x="179.67" y="40.83"/>
      <point x="244.67" y="1.33"/>
      <point x="326" y="-10" type="curve"/>
      <point x="347.33" y="-62.67"/>
      <point x="381.17" y="-104.83"/>
      <point x="427.5" y="-136.5" type="curve" smooth="yes"/>
      <point x="473.83" y="-168.17"/>
      <point x="529.67" y="-184"/>
      <point x="595" y="-184" type="curve" smooth="yes"/>
      <point x="635.67" y="-184"/>
      <point x="670.67" y="-178.67"/>
    </contour>
  </outline>
</glyph>
<glyph name="R" format="2">
  <advance width="635"/>
  <unicode hex="0052"/>
  <note>
R
</note>
  <outline>
    <contour>
      <point x="316" y="386" type="curve" smooth="yes"/>
      <point x="193" y="386" type="line"/>
      <point x="193" y="658" type="line"/>
      <point x="316" y="658" type="line" smooth="yes"/>
      <point x="376" y="658"/>
      <point x="420.67" y="647.83"/>
      <point x="450" y="627.5" type="curve" smooth="yes"/>
      <point x="479.33" y="607.17"/>
      <point x="494" y="573.67"/>
      <point x="494" y="527" type="curve" smooth="yes"/>
      <point x="494" y="433"/>
      <point x="434.67" y="386"/>
    </contour>
    <contour>
      <point x="325" y="311" type="line"/>
      <point x="503" y="0" type="line"/>
      <point x="608" y="0" type="line"/>
      <point x="420" y="321" type="line"/>
      <point x="472" y="333.67"/>
      <point x="512.67" y="357.33"/>
      <point x="542" y="392" type="curve" smooth="yes"/>
      <point x="571.33" y="426.67"/>
      <point x="586" y="471.67"/>
      <point x="586" y="527" type="curve" smooth="yes"/>
      <point x="586" y="664.33"/>
      <point x="500.67" y="733"/>
      <point x="330" y="733" type="curve" smooth="yes"/>
      <point x="100" y="733" type="line"/>
      <point x="100" y="0" type="line"/>
      <point x="193" y="0" type="line"/>
      <point x="193" y="311" type="line"/>
    </contour>
  </outline>
</glyph>
<glyph name="S" format="2">
  <advance width="597"/>
  <unicode hex="0053"/>
  <note>
S
</note>
  <outline>
    <contour>
      <point x="304" y="-13" type="curve" smooth="yes"/>
      <point x="378.67" y="-13"/>
      <point x="438.83" y="6.83"/>
      <point x="484.5" y="46.5" type="curve" smooth="yes"/>
      <point x="530.17" y="86.17"/>
      <point x="553" y="135.67"/>
      <point x="553" y="195" type="curve" smooth="yes"/>
      <point x="553" y="245.67"/>
      <point x="540" y="285.67"/>
      <point x="514" y="315" type="curve" smooth="yes"/>
      <point x="488" y="344.33"/>
      <point x="450.67" y="369.67"/>
      <point x="402" y="391" type="curve" smooth="yes"/>
      <point x="297" y="436" type="line" smooth="yes"/>
      <point x="281.67" y="442.67"/>
      <point x="270" y="447.83"/>
      <point x="262" y="451.5" type="curve" smooth="yes"/>
      <point x="254" y="455.17"/>
      <point x="243.5" y="460.83"/>
      <point x="230.5" y="468.5" type="curve" smooth="yes"/>
      <point x="217.5" y="476.17"/>
      <point x="207.83" y="483.83"/>
      <point x="201.5" y="491.5" type="curve" smooth="yes"/>
      <point x="195.17" y="499.17"/>
      <point x="189.33" y="508.83"/>
      <point x="184" y="520.5" type="curve" smooth="yes"/>
      <point x="178.67" y="532.17"/>
      <point x="176" y="544.67"/>
      <point x="176" y="558" type="curve" smooth="yes"/>
      <point x="176" y="590.67"/>
      <point x="188.5" y="616.83"/>
      <point x="213.5" y="636.5" type="curve" smooth="yes"/>
      <point x="238.5" y="656.17"/>
      <point x="271.67" y="666"/>
      <point x="313" y="666" type="curve" smooth="yes"/>
      <point x="375" y="666"/>
      <point x="430.67" y="643"/>
      <point x="480" y="597" type="curve"/>
      <point x="529" y="656" type="line"/>
      <point x="470.33" y="716.67"/>
      <point x="398.33" y="747"/>
      <point x="313" y="747" type="curve" smooth="yes"/>
      <point x="246.33" y="747"/>
      <point x="191.17" y="728.67"/>
      <point x="147.5" y="692" type="curve" smooth="yes"/>
      <point x="103.83" y="655.33"/>
      <point x="82" y="608.67"/>
      <point x="82" y="552" type="curve" smooth="yes"/>
      <point x="82" y="469.33"/>
      <point x="131.67" y="406.67"/>
      <point x="231" y="364" type="curve" smooth="yes"/>
      <point x="337" y="318" type="line" smooth="yes"/>
      <point x="359" y="308"/>
      <point x="375.33" y="300.17"/>
      <point x="386" y="294.5" type="curve" smooth="yes"/>
      <point x="396.67" y="288.83"/>
      <point x="408.83" y="280.83"/>
      <point x="422.5" y="270.5" type="curve" smooth="yes"/>
      <point x="436.17" y="260.17"/>
      <point x="445.67" y="248.33"/>
      <point x="451" y="235" type="curve" smooth="yes"/>
      <point x="456.33" y="221.67"/>
      <point x="459" y="206"/>
      <point x="459" y="188" type="curve" smooth="yes"/>
      <point x="459" y="151.33"/>
      <point x="445.17" y="122.17"/>
      <point x="417.5" y="100.5" type="curve" smooth="yes"/>
      <point x="389.83" y="78.83"/>
      <point x="352.33" y="68"/>
      <point x="305" y="68" type="curve" smooth="yes"/>
      <point x="228.33" y="68"/>
      <point x="160.67" y="98.33"/>
      <point x="102" y="159" type="curve"/>
      <point x="47" y="96" type="line"/>
      <point x="116.33" y="23.33"/>
      <point x="202" y="-13"/>
    </contour>
  </outline>
</glyph>
<glyph name="T" format="2">
  <advance width="599"/>
  <unicode hex="0054"/>
  <note>
T
</note>
  <outline>
    <contour>
      <point x="31" y="655" type="line"/>
      <point x="253" y="655" type="line"/>
      <point x="253" y="0" type="line"/>
      <point x="346" y="0" type="line"/>
      <point x="346" y="655" type="line"/>
      <point x="568" y="655" type="line"/>
      <point x="568" y="733" type="line"/>
      <point x="31" y="733" type="line"/>
    </contour>
  </outline>
</glyph>
<glyph name="U" format="2">
  <advance width="721"/>
  <unicode hex="0055"/>
  <note>
U
</note>
  <outline>
    <contour>
      <point x="360" y="-13" type="curve" smooth="yes"/>
      <point x="441.33" y="-13"/>
      <point x="505.67" y="11.83"/>
      <point x="553" y="61.5" type="curve" smooth="yes"/>
      <point x="600.33" y="111.17"/>
      <point x="624" y="191.67"/>
      <point x="624" y="303" type="curve" smooth="yes"/>
      <point x="624" y="733" type="line"/>
      <point x="535" y="733" type="line"/>
      <point x="535" y="300" type="line" smooth="yes"/>
      <point x="535" y="145.33"/>
      <point x="476.67" y="68"/>
      <point x="360" y="68" type="curve" smooth="yes"/>
      <point x="246.67" y="68"/>
      <point x="190" y="145.33"/>
      <point x="190" y="300" type="curve" smooth="yes"/>
      <point x="190" y="733" type="line"/>
      <point x="97" y="733" type="line"/>
      <point x="97" y="303" type="line" smooth="yes"/>
      <point x="97" y="191.67"/>
      <point x="120.67" y="111.17"/>
      <point x="168" y="61.5" type="curve" smooth="yes"/>
      <point x="215.33" y="11.83"/>
      <point x="279.33" y="-13"/>
    </contour>
  </outline>
</glyph>
<glyph name="V" format="2">
  <advance width="575"/>
  <unicode hex="0056"/>
  <note>
V
</note>
  <outline>
    <contour>
      <point x="98" y="733" type="line"/>
      <point x="1" y="733" type="line"/>
      <point x="235" y="0" type="line"/>
      <point x="342" y="0" type="line"/>
      <point x="575" y="733" type="line"/>
      <point x="481" y="733" type="line"/>
      <point x="363" y="336" type="line" smooth="yes"/>
      <point x="355.67" y="312"/>
      <point x="344.5" y="273.5"/>
      <point x="329.5" y="220.5" type="curve" smooth="yes"/>
      <point x="314.5" y="167.5"/>
      <point x="302" y="125.33"/>
      <point x="292" y="94" type="curve"/>
      <point x="288" y="94" type="line"/>
      <point x="277.33" y="126.67"/>
      <point x="264.33" y="170"/>
      <point x="249" y="224" type="curve" smooth="yes"/>
      <point x="233.67" y="278"/>
      <point x="223" y="315.33"/>
      <point x="217" y="336" type="curve" smooth="yes"/>
    </contour>
  </outline>
</glyph>
<glyph name="W" format="2">
  <advance width="878"/>
  <unicode hex="0057"/>
  <note>
W
</note>
  <outline>
    <contour>
      <point x="121" y="733" type="line"/>
      <point x="25" y="733" type="line"/>
      <point x="181" y="0" type="line"/>
      <point x="291" y="0" type="line"/>
      <point x="400" y="442" type="line" smooth="yes"/>
      <point x="404.67" y="463.33"/>
      <point x="411.17" y="492.5"/>
      <point x="419.5" y="529.5" type="curve" smooth="yes"/>
      <point x="427.83" y="566.5"/>
      <point x="433.67" y="593"/>
      <point x="437" y="609" type="curve"/>
      <point x="441" y="609" type="line"/>
      <point x="461.67" y="512.33"/>
      <point x="473.67" y="456.67"/>
      <point x="477" y="442" type="curve" smooth="yes"/>
      <point x="588" y="0" type="line"/>
      <point x="699" y="0" type="line"/>
      <point x="851" y="733" type="line"/>
      <point x="762" y="733" type="line"/>
      <point x="685" y="334" type="line" smooth="yes"/>
      <point x="671" y="256"/>
      <point x="657" y="177"/>
      <point x="643" y="97" type="curve"/>
      <point x="638" y="97" type="line"/>
      <point x="617.33" y="195"/>
      <point x="600" y="274"/>
      <point x="586" y="334" type="curve" smooth="yes"/>
      <point x="483" y="733" type="line"/>
      <point x="399" y="733" type="line"/>
      <point x="298" y="334" type="line" smooth="yes"/>
      <point x="274" y="228.67"/>
      <point x="256.33" y="149.67"/>
      <point x="245" y="97" type="curve"/>
      <point x="241" y="97" type="line"/>
      <point x="236.33" y="123"/>
      <point x="229.17" y="162.33"/>
      <point x="219.5" y="215" type="curve" smooth="yes"/>
      <point x="209.83" y="267.67"/>
      <point x="202.67" y="307.33"/>
      <point x="198" y="334" type="curve" smooth="yes"/>
    </contour>
  </outline>
</glyph>
<glyph name="X" format="2">
  <advance width="573"/>
  <unicode hex="0058"/>
  <note>
X
</note>
  <outline>
    <contour>
      <point x="31" y="733" type="line"/>
      <point x="231" y="379" type="line"/>
      <point x="17" y="0" type="line"/>
      <point x="114" y="0" type="line"/>
      <point x="220" y="198" type="line" smooth="yes"/>
      <point x="238.67" y="233.33"/>
      <point x="258.33" y="272.67"/>
      <point x="279" y="316" type="curve"/>
      <point x="283" y="316" type="line"/>
      <point x="297.67" y="288.67"/>
      <point x="318.67" y="249.33"/>
      <point x="346" y="198" type="curve" smooth="yes"/>
      <point x="454" y="0" type="line"/>
      <point x="556" y="0" type="line"/>
      <point x="342" y="374" type="line"/>
      <point x="542" y="733" type="line"/>
      <point x="445" y="733" type="line"/>
      <point x="347" y="546" type="line" smooth="yes"/>
      <point x="340.33" y="532.67"/>
      <point x="323" y="497"/>
      <point x="295" y="439" type="curve"/>
      <point x="291" y="439" type="line"/>
      <point x="282.33" y="454.33"/>
      <point x="271.83" y="473.67"/>
      <point x="259.5" y="497" type="curve" smooth="yes"/>
      <point x="247.17" y="520.33"/>
      <point x="238.33" y="536.67"/>
      <point x="233" y="546" type="curve" smooth="yes"/>
      <point x="133" y="733" type="line"/>
    </contour>
  </outline>
</glyph>
<glyph name="Y" format="2">
  <advance width="531"/>
  <unicode hex="0059"/>
  <note>
Y
</note>
  <outline>
    <contour>
      <point x="-1" y="733" type="line"/>
      <point x="219" y="285" type="line"/>
      <point x="219" y="0" type="line"/>
      <point x="312" y="0" type="line"/>
      <point x="312" y="285" type="line"/>
      <point x="532" y="733" type="line"/>
      <point x="436" y="733" type="line"/>
      <point x="341" y="526" type="line" smooth="yes"/>
      <point x="330.33" y="499.33"/>
      <point x="306" y="446"/>
      <point x="268" y="366" type="curve"/>
      <point x="264" y="366" type="line"/>
      <point x="254" y="386.67"/>
      <point x="230" y="440"/>
      <point x="192" y="526" type="curve" smooth="yes"/>
      <point x="98" y="733" type="line"/>
    </contour>
  </outline>
</glyph>
<glyph name="Z" format="2">
  <advance width="603"/>
  <unicode hex="005A"/>
  <note>
Z
</note>
  <outline>
    <contour>
      <point x="437" y="655" type="line"/>
      <point x="50" y="55" type="line"/>
      <point x="50" y="0" type="line"/>
      <point x="555" y="0" type="line"/>
      <point x="555" y="79" type="line"/>
      <point x="164" y="79" type="line"/>
      <point x="551" y="679" type="line"/>
      <point x="551" y="733" type="line"/>
      <point x="85" y="733" type="line"/>
      <point x="85" y="655" type="line"/>
    </contour>
  </outline>
</glyph>
<glyph name="a" format="2">
  <advance width="564"/>
  <unicode hex="0061"/>
  <note>
a
</note>
  <outline>
    <contour>
      <point x="217" y="-13" type="curve" smooth="yes"/>
      <point x="274.33" y="-13"/>
      <point x="334.33" y="13"/>
      <point x="397" y="65" type="curve"/>
      <point x="400" y="65" type="line"/>
      <point x="408" y="0" type="line"/>
      <point x="483" y="0" type="line"/>
      <point x="483" y="334" type="line" smooth="yes"/>
      <point x="483" y="404"/>
      <point x="467.67" y="458.67"/>
      <point x="437" y="498" type="curve" smooth="yes"/>
      <point x="406.33" y="537.33"/>
      <point x="359" y="557"/>
      <point x="295" y="557" type="curve" smooth="yes"/>
      <point x="226.33" y="557"/>
      <point x="155" y="533.33"/>
      <point x="81" y="486" type="curve"/>
      <point x="117" y="423" type="line"/>
      <point x="174.33" y="461.67"/>
      <point x="228.67" y="481"/>
      <point x="280" y="481" type="curve" smooth="yes"/>
      <point x="354.67" y="481"/>
      <point x="392" y="435.33"/>
      <point x="392" y="344" type="curve"/>
      <point x="275.33" y="330.67"/>
      <point x="190.5" y="308.17"/>
      <point x="137.5" y="276.5" type="curve" smooth="yes"/>
      <point x="84.5" y="244.83"/>
      <point x="58" y="199.67"/>
      <point x="58" y="141" type="curve" smooth="yes"/>
      <point x="58" y="93"/>
      <point x="72.83" y="55.33"/>
      <point x="102.5" y="28" type="curve" smooth="yes"/>
      <point x="132.17" y="0.67"/>
      <point x="170.33" y="-13"/>
    </contour>
    <contour>
      <point x="243" y="60" type="curve" smooth="yes"/>
      <point x="214.33" y="60"/>
      <point x="191.17" y="67.17"/>
      <point x="173.5" y="81.5" type="curve" smooth="yes"/>
      <point x="155.83" y="95.83"/>
      <point x="147" y="117.67"/>
      <point x="147" y="147" type="curve" smooth="yes"/>
      <point x="147" y="183.67"/>
      <point x="165.67" y="213"/>
      <point x="203" y="235" type="curve" smooth="yes"/>
      <point x="240.33" y="257"/>
      <point x="303.33" y="273.33"/>
      <point x="392" y="284" type="curve"/>
      <point x="392" y="132" type="line"/>
      <point x="338" y="84"/>
      <point x="288.33" y="60"/>
    </contour>
  </outline>
</glyph>
<glyph name="b" format="2">
  <advance width="618"/>
  <unicode hex="0062"/>
  <note>
b
</note>
  <outline>
    <contour>
      <point x="331" y="-13" type="curve" smooth="yes"/>
      <point x="396.33" y="-13"/>
      <point x="452" y="13.5"/>
      <point x="498" y="66.5" type="curve" smooth="yes"/>
      <point x="544" y="119.5"/>
      <point x="567" y="191"/>
      <point x="567" y="281" type="curve" smooth="yes"/>
      <point x="567" y="365.67"/>
      <point x="548.17" y="432.83"/>
      <point x="510.5" y="482.5" type="curve" smooth="yes"/>
      <point x="472.83" y="532.17"/>
      <point x="419.33" y="557"/>
      <point x="350" y="557" type="curve" smooth="yes"/>
      <point x="295.33" y="557"/>
      <point x="238.67" y="531.33"/>
      <point x="180" y="480" type="curve"/>
      <point x="183" y="578" type="line"/>
      <point x="183" y="796" type="line"/>
      <point x="92" y="796" type="line"/>
      <point x="92" y="0" type="line"/>
      <point x="165" y="0" type="line"/>
      <point x="173" y="56" type="line"/>
      <point x="176" y="56" type="line"/>
      <point x="226" y="10"/>
      <point x="277.67" y="-13"/>
    </contour>
    <contour>
      <point x="316" y="63" type="curve" smooth="yes"/>
      <point x="270.67" y="63"/>
      <point x="226.33" y="82"/>
      <point x="183" y="120" type="curve"/>
      <point x="183" y="405" type="line"/>
      <point x="236.33" y="455"/>
      <point x="285" y="480"/>
      <point x="329" y="480" type="curve" smooth="yes"/>
      <point x="424.33" y="480"/>
      <point x="472" y="413"/>
      <point x="472" y="279" type="curve" smooth="yes"/>
      <point x="472" y="213"/>
      <point x="457.5" y="160.5"/>
      <point x="428.5" y="121.5" type="curve" smooth="yes"/>
      <point x="399.5" y="82.5"/>
      <point x="362" y="63"/>
    </contour>
  </outline>
</glyph>
<glyph name="c" format="2">
  <advance width="509"/>
  <unicode hex="0063"/>
  <note>
c
</note>
  <outline>
    <contour>
      <point x="306" y="-13" type="curve" smooth="yes"/>
      <point x="372.67" y="-13"/>
      <point x="431" y="10"/>
      <point x="481" y="56" type="curve"/>
      <point x="442" y="117" type="line"/>
      <point x="402.67" y="81"/>
      <point x="360" y="63"/>
      <point x="314" y="63" type="curve" smooth="yes"/>
      <point x="264" y="63"/>
      <point x="223.5" y="82"/>
      <point x="192.5" y="120" type="curve" smooth="yes"/>
      <point x="161.5" y="158"/>
      <point x="146" y="208.33"/>
      <point x="146" y="271" type="curve" smooth="yes"/>
      <point x="146" y="333"/>
      <point x="162" y="383.5"/>
      <point x="194" y="422.5" type="curve" smooth="yes"/>
      <point x="226" y="461.5"/>
      <point x="266.67" y="481"/>
      <point x="316" y="481" type="curve" smooth="yes"/>
      <point x="352.67" y="481"/>
      <point x="389" y="464.67"/>
      <point x="425" y="432" type="curve"/>
      <point x="472" y="493" type="line"/>
      <point x="423.33" y="535.67"/>
      <point x="370.33" y="557"/>
      <point x="313" y="557" type="curve" smooth="yes"/>
      <point x="240.33" y="557"/>
      <point x="178.5" y="531.17"/>
      <point x="127.5" y="479.5" type="curve" smooth="yes"/>
      <point x="76.5" y="427.83"/>
      <point x="51" y="358.33"/>
      <point x="51" y="271" type="curve" smooth="yes"/>
      <point x="51" y="183"/>
      <point x="75" y="113.67"/>
      <point x="123" y="63" type="curve" smooth="yes"/>
      <point x="171" y="12.33"/>
      <point x="232" y="-13"/>
    </contour>
  </outline>
</glyph>
<glyph name="d" format="2">
  <advance width="620"/>
  <unicode hex="0064"/>
  <note>
d
</note>
  <outline>
    <contour>
      <point x="277" y="-13" type="curve" smooth="yes"/>
      <point x="334.33" y="-13"/>
      <point x="389.33" y="12.67"/>
      <point x="442" y="64" type="curve"/>
      <point x="444" y="64" type="line"/>
      <point x="453" y="0" type="line"/>
      <point x="527" y="0" type="line"/>
      <point x="527" y="796" type="line"/>
      <point x="436" y="796" type="line"/>
      <point x="436" y="587" type="line"/>
      <point x="441" y="493" type="line"/>
      <point x="414.33" y="515"/>
      <point x="389.67" y="531.17"/>
      <point x="367" y="541.5" type="curve" smooth="yes"/>
      <point x="344.33" y="551.83"/>
      <point x="318" y="557"/>
      <point x="288" y="557" type="curve" smooth="yes"/>
      <point x="223.33" y="557"/>
      <point x="168" y="530.67"/>
      <point x="122" y="478" type="curve" smooth="yes"/>
      <point x="76" y="425.33"/>
      <point x="53" y="356.33"/>
      <point x="53" y="271" type="curve" smooth="yes"/>
      <point x="53" y="181.67"/>
      <point x="73.17" y="112"/>
      <point x="113.5" y="62" type="curve" smooth="yes"/>
      <point x="153.83" y="12"/>
      <point x="208.33" y="-13"/>
    </contour>
    <contour>
      <point x="297" y="63" type="curve" smooth="yes"/>
      <point x="249" y="63"/>
      <point x="212" y="81.33"/>
      <point x="186" y="118" type="curve" smooth="yes"/>
      <point x="160" y="154.67"/>
      <point x="147" y="206"/>
      <point x="147" y="272" type="curve" smooth="yes"/>
      <point x="147" y="333.33"/>
      <point x="162" y="383.33"/>
      <point x="192" y="422" type="curve" smooth="yes"/>
      <point x="222" y="460.67"/>
      <point x="259.33" y="480"/>
      <point x="304" y="480" type="curve" smooth="yes"/>
      <point x="349.33" y="480"/>
      <point x="393.33" y="461"/>
      <point x="436" y="423" type="curve"/>
      <point x="436" y="138" type="line"/>
      <point x="390.67" y="88"/>
      <point x="344.33" y="63"/>
    </contour>
  </outline>
</glyph>
<glyph name="e" format="2">
  <advance width="554"/>
  <unicode hex="0065"/>
  <note>
e
</note>
  <outline>
    <contour>
      <point x="311" y="-13" type="curve" smooth="yes"/>
      <point x="373" y="-13"/>
      <point x="433" y="5.67"/>
      <point x="491" y="43" type="curve"/>
      <point x="458" y="103" type="line"/>
      <point x="415.33" y="74.33"/>
      <point x="370" y="60"/>
      <point x="322" y="60" type="curve" smooth="yes"/>
      <point x="270.67" y="60"/>
      <point x="228.5" y="77.17"/>
      <point x="195.5" y="111.5" type="curve" smooth="yes"/>
      <point x="162.5" y="145.83"/>
      <point x="144.67" y="192"/>
      <point x="142" y="250" type="curve"/>
      <point x="508" y="250" type="line"/>
      <point x="510.67" y="267.33"/>
      <point x="512" y="284.67"/>
      <point x="512" y="302" type="curve" smooth="yes"/>
      <point x="512" y="380.67"/>
      <point x="493" y="442.83"/>
      <point x="455" y="488.5" type="curve" smooth="yes"/>
      <point x="417" y="534.17"/>
      <point x="364" y="557"/>
      <point x="296" y="557" type="curve" smooth="yes"/>
      <point x="230" y="557"/>
      <point x="172.67" y="530.5"/>
      <point x="124" y="477.5" type="curve" smooth="yes"/>
      <point x="75.33" y="424.5"/>
      <point x="51" y="355.67"/>
      <point x="51" y="271" type="curve" smooth="yes"/>
      <point x="51" y="184.33"/>
      <point x="75.67" y="115.33"/>
      <point x="125" y="64" type="curve" smooth="yes"/>
      <point x="174.33" y="12.67"/>
      <point x="236.33" y="-13"/>
    </contour>
    <contour>
      <point x="432" y="315" type="curve"/>
      <point x="141" y="315" type="line"/>
      <point x="146.33" y="367"/>
      <point x="163.67" y="408.17"/>
      <point x="193" y="438.5" type="curve" smooth="yes"/>
      <point x="222.33" y="468.83"/>
      <point x="257" y="484"/>
      <point x="297" y="484" type="curve" smooth="yes"/>
      <point x="339.67" y="484"/>
      <point x="372.83" y="469.5"/>
      <point x="396.5" y="440.5" type="curve" smooth="yes"/>
      <point x="420.17" y="411.5"/>
      <point x="432" y="369.67"/>
    </contour>
  </outline>
</glyph>
<glyph name="f" format="2">
  <advance width="325"/>
  <unicode hex="0066"/>
  <note>
f
</note>
  <outline>
    <contour>
      <point x="336" y="722" type="curve"/>
      <point x="356" y="791" type="line"/>
      <point x="327.33" y="803"/>
      <point x="297" y="809"/>
      <point x="265" y="809" type="curve" smooth="yes"/>
      <point x="212.33" y="809"/>
      <point x="172.83" y="793.33"/>
      <point x="146.5" y="762" type="curve" smooth="yes"/>
      <point x="120.17" y="730.67"/>
      <point x="107" y="686.67"/>
      <point x="107" y="630" type="curve" smooth="yes"/>
      <point x="107" y="543" type="line"/>
      <point x="33" y="538" type="line"/>
      <point x="33" y="469" type="line"/>
      <point x="107" y="469" type="line"/>
      <point x="107" y="0" type="line"/>
      <point x="198" y="0" type="line"/>
      <point x="198" y="469" type="line"/>
      <point x="313" y="469" type="line"/>
      <point x="313" y="543" type="line"/>
      <point x="198" y="543" type="line"/>
      <point x="198" y="629" type="line" smooth="yes"/>
      <point x="198" y="700.33"/>
      <point x="223.67" y="736"/>
      <point x="275" y="736" type="curve" smooth="yes"/>
      <point x="295" y="736"/>
      <point x="315.33" y="731.33"/>
    </contour>
  </outline>
</glyph>
<glyph name="g" format="2">
  <advance width="563"/>
  <unicode hex="0067"/>
  <note>
g
</note>
  <outline>
    <contour>
      <point x="275" y="-250" type="curve" smooth="yes"/>
      <point x="356.33" y="-250"/>
      <point x="422.33" y="-231.67"/>
      <point x="473" y="-195" type="curve" smooth="yes"/>
      <point x="523.67" y="-158.33"/>
      <point x="549" y="-114"/>
      <point x="549" y="-62" type="curve" smooth="yes"/>
      <point x="549" y="24"/>
      <point x="486" y="67"/>
      <point x="360" y="67" type="curve" smooth="yes"/>
      <point x="254" y="67" type="line" smooth="yes"/>
      <point x="190.67" y="67"/>
      <point x="159" y="86.67"/>
      <point x="159" y="126" type="curve" smooth="yes"/>
      <point x="159" y="149.33"/>
      <point x="170.67" y="171"/>
      <point x="194" y="191" type="curve"/>
      <point x="219.33" y="178.33"/>
      <point x="246.33" y="172"/>
      <point x="275" y="172" type="curve" smooth="yes"/>
      <point x="331.67" y="172"/>
      <point x="378.83" y="189.33"/>
      <point x="416.5" y="224" type="curve" smooth="yes"/>
      <point x="454.17" y="258.67"/>
      <point x="473" y="304.33"/>
      <point x="473" y="361" type="curve" smooth="yes"/>
      <point x="473" y="407.67"/>
      <point x="458.33" y="445"/>
      <point x="429" y="473" type="curve"/>
      <point x="540" y="473" type="line"/>
      <point x="540" y="543" type="line"/>
      <point x="351" y="543" type="line"/>
      <point x="325.67" y="552.33"/>
      <point x="300.33" y="557"/>
      <point x="275" y="557" type="curve" smooth="yes"/>
      <point x="218.33" y="557"/>
      <point x="170.17" y="539.17"/>
      <point x="130.5" y="503.5" type="curve" smooth="yes"/>
      <point x="90.83" y="467.83"/>
      <point x="71" y="421"/>
      <point x="71" y="363" type="curve" smooth="yes"/>
      <point x="71" y="303.67"/>
      <point x="94.67" y="255"/>
      <point x="142" y="217" type="curve"/>
      <point x="142" y="213" type="line"/>
      <point x="101.33" y="183.67"/>
      <point x="81" y="150"/>
      <point x="81" y="112" type="curve" smooth="yes"/>
      <point x="81" y="72"/>
      <point x="97.67" y="42.33"/>
      <point x="131" y="23" type="curve"/>
      <point x="131" y="19" type="line"/>
      <point x="77" y="-15.67"/>
      <point x="50" y="-56.67"/>
      <point x="50" y="-104" type="curve" smooth="yes"/>
      <point x="50" y="-150"/>
      <point x="70.5" y="-185.83"/>
      <point x="111.5" y="-211.5" type="curve" smooth="yes"/>
      <point x="152.5" y="-237.17"/>
      <point x="207" y="-250"/>
    </contour>
    <contour>
      <point x="275" y="234" type="curve" smooth="yes"/>
      <point x="242.33" y="234"/>
      <point x="214.83" y="245.83"/>
      <point x="192.5" y="269.5" type="curve" smooth="yes"/>
      <point x="170.17" y="293.17"/>
      <point x="159" y="324.33"/>
      <point x="159" y="363" type="curve" smooth="yes"/>
      <point x="159" y="401.67"/>
      <point x="170" y="432.5"/>
      <point x="192" y="455.5" type="curve" smooth="yes"/>
      <point x="214" y="478.5"/>
      <point x="241.67" y="490"/>
      <point x="275" y="490" type="curve" smooth="yes"/>
      <point x="307.67" y="490"/>
      <point x="335" y="478.5"/>
      <point x="357" y="455.5" type="curve" smooth="yes"/>
      <point x="379" y="432.5"/>
      <point x="390" y="401.67"/>
      <point x="390" y="363" type="curve" smooth="yes"/>
      <point x="390" y="324.33"/>
      <point x="378.83" y="293.17"/>
      <point x="356.5" y="269.5" type="curve" smooth="yes"/>
      <point x="334.17" y="245.83"/>
      <point x="307" y="234"/>
    </contour>
    <contour>
      <point x="288" y="-188" type="curve" smooth="yes"/>
      <point x="238.67" y="-188"/>
      <point x="200" y="-179.33"/>
      <point x="172" y="-162" type="curve" smooth="yes"/>
      <point x="144" y="-144.67"/>
      <point x="130" y="-121.33"/>
      <point x="130" y="-92" type="curve" smooth="yes"/>
      <point x="130" y="-57.33"/>
      <point x="148.67" y="-26.67"/>
      <point x="186" y="0" type="curve"/>
      <point x="210" y="-6"/>
      <point x="233.33" y="-9"/>
      <point x="256" y="-9" type="curve" smooth="yes"/>
      <point x="350" y="-9" type="line" smooth="yes"/>
      <point x="387.33" y="-9"/>
      <point x="415.17" y="-14.17"/>
      <point x="433.5" y="-24.5" type="curve" smooth="yes"/>
      <point x="451.83" y="-34.83"/>
      <point x="461" y="-52"/>
      <point x="461" y="-76" type="curve" smooth="yes"/>
      <point x="461" y="-106"/>
      <point x="444.67" y="-132.17"/>
      <point x="412" y="-154.5" type="curve" smooth="yes"/>
      <point x="379.33" y="-176.83"/>
      <point x="338" y="-188"/>
    </contour>
  </outline>
</glyph>
<glyph name="h" format="2">
  <advance width="607"/>
  <unicode hex="0068"/>
  <note>
h
</note>
  <outline>
    <contour>
      <point x="183" y="796" type="line"/>
      <point x="92" y="796" type="line"/>
      <point x="92" y="0" type="line"/>
      <point x="183" y="0" type="line"/>
      <point x="183" y="394" type="line"/>
      <point x="213" y="424"/>
      <point x="238.67" y="445.33"/>
      <point x="260" y="458" type="curve" smooth="yes"/>
      <point x="281.33" y="470.67"/>
      <point x="305.33" y="477"/>
      <point x="332" y="477" type="curve" smooth="yes"/>
      <point x="368" y="477"/>
      <point x="394.17" y="465.5"/>
      <point x="410.5" y="442.5" type="curve" smooth="yes"/>
      <point x="426.83" y="419.5"/>
      <point x="435" y="382.67"/>
      <point x="435" y="332" type="curve" smooth="yes"/>
      <point x="435" y="0" type="line"/>
      <point x="526" y="0" type="line"/>
      <point x="526" y="344" type="line" smooth="yes"/>
      <point x="526" y="486"/>
      <point x="470.67" y="557"/>
      <point x="360" y="557" type="curve" smooth="yes"/>
      <point x="300.67" y="557"/>
      <point x="240.67" y="526.67"/>
      <point x="180" y="466" type="curve"/>
      <point x="183" y="578" type="line"/>
    </contour>
  </outline>
</glyph>
<glyph name="i" format="2">
  <advance width="275"/>
  <unicode hex="0069"/>
  <note>
i
</note>
  <outline>
    <contour>
      <point x="183" y="543" type="line"/>
      <point x="92" y="543" type="line"/>
      <point x="92" y="0" type="line"/>
      <point x="183" y="0" type="line"/>
    </contour>
    <contour>
      <point x="138" y="655" type="curve" smooth="yes"/>
      <point x="156" y="655"/>
      <point x="171" y="660.67"/>
      <point x="183" y="672" type="curve" smooth="yes"/>
      <point x="195" y="683.33"/>
      <point x="201" y="697.33"/>
      <point x="201" y="714" type="curve" smooth="yes"/>
      <point x="201" y="732"/>
      <point x="195.17" y="746.33"/>
      <point x="183.5" y="757" type="curve" smooth="yes"/>
      <point x="171.83" y="767.67"/>
      <point x="156.67" y="773"/>
      <point x="138" y="773" type="curve" smooth="yes"/>
      <point x="119.33" y="773"/>
      <point x="104.17" y="767.67"/>
      <point x="92.5" y="757" type="curve" smooth="yes"/>
      <point x="80.83" y="746.33"/>
      <point x="75" y="732"/>
      <point x="75" y="714" type="curve" smooth="yes"/>
      <point x="75" y="697.33"/>
      <point x="81" y="683.33"/>
      <point x="93" y="672" type="curve" smooth="yes"/>
      <point x="105" y="660.67"/>
      <point x="120" y="655"/>
    </contour>
  </outline>
</glyph>
<glyph name="j" format="2">
  <advance width="275"/>
  <unicode hex="006A"/>
  <note>
j
</note>
  <outline>
    <contour>
      <point x="36" y="-243" type="curve" smooth="yes"/>
      <point x="134.67" y="-243"/>
      <point x="184" y="-182.67"/>
      <point x="184" y="-62" type="curve" smooth="yes"/>
      <point x="184" y="543" type="line"/>
      <point x="93" y="543" type="line"/>
      <point x="93" y="-62" type="line" smooth="yes"/>
      <point x="93" y="-98"/>
      <point x="88.17" y="-124.83"/>
      <point x="78.5" y="-142.5" type="curve" smooth="yes"/>
      <point x="68.83" y="-160.17"/>
      <point x="51" y="-169"/>
      <point x="25" y="-169" type="curve" smooth="yes"/>
      <point x="9.67" y="-169"/>
      <point x="-7.33" y="-165.67"/>
      <point x="-26" y="-159" type="curve"/>
      <point x="-44" y="-229" type="line"/>
      <point x="-18.67" y="-238.33"/>
      <point x="8" y="-243"/>
    </contour>
    <contour>
      <point x="139" y="655" type="curve" smooth="yes"/>
      <point x="156.33" y="655"/>
      <point x="171.17" y="660.67"/>
      <point x="183.5" y="672" type="curve" smooth="yes"/>
      <point x="195.83" y="683.33"/>
      <point x="202" y="697.33"/>
      <point x="202" y="714" type="curve" smooth="yes"/>
      <point x="202" y="732"/>
      <point x="196" y="746.33"/>
      <point x="184" y="757" type="curve" smooth="yes"/>
      <point x="172" y="767.67"/>
      <point x="157" y="773"/>
      <point x="139" y="773" type="curve" smooth="yes"/>
      <point x="120.33" y="773"/>
      <point x="105.17" y="767.67"/>
      <point x="93.5" y="757" type="curve" smooth="yes"/>
      <point x="81.83" y="746.33"/>
      <point x="76" y="732"/>
      <point x="76" y="714" type="curve" smooth="yes"/>
      <point x="76" y="697.33"/>
      <point x="82" y="683.33"/>
      <point x="94" y="672" type="curve" smooth="yes"/>
      <point x="106" y="660.67"/>
      <point x="121" y="655"/>
    </contour>
  </outline>
</glyph>
<glyph name="k" format="2">
  <advance width="552"/>
  <unicode hex="006B"/>
  <note>
k
</note>
  <outline>
    <contour>
      <point x="182" y="796" type="line"/>
      <point x="92" y="796" type="line"/>
      <point x="92" y="0" type="line"/>
      <point x="182" y="0" type="line"/>
      <point x="182" y="143" type="line"/>
      <point x="284" y="262" type="line"/>
      <point x="443" y="0" type="line"/>
      <point x="542" y="0" type="line"/>
      <point x="336" y="325" type="line"/>
      <point x="518" y="543" type="line"/>
      <point x="417" y="543" type="line"/>
      <point x="184" y="256" type="line"/>
      <point x="182" y="256" type="line"/>
    </contour>
  </outline>
</glyph>
<glyph name="l" format="2">
  <advance width="285"/>
  <unicode hex="006C"/>
  <note>
l
</note>
  <outline>
    <contour>
      <point x="188" y="-13" type="curve" smooth="yes"/>
      <point x="209.33" y="-13"/>
      <point x="227" y="-10.33"/>
      <point x="241" y="-5" type="curve"/>
      <point x="228" y="65" type="line"/>
      <point x="221.33" y="63.67"/>
      <point x="215" y="63"/>
      <point x="209" y="63" type="curve" smooth="yes"/>
      <point x="191.67" y="63"/>
      <point x="183" y="76"/>
      <point x="183" y="102" type="curve" smooth="yes"/>
      <point x="183" y="796" type="line"/>
      <point x="92" y="796" type="line"/>
      <point x="92" y="108" type="line" smooth="yes"/>
      <point x="92" y="27.33"/>
      <point x="124" y="-13"/>
    </contour>
  </outline>
</glyph>
<glyph name="m" format="2">
  <advance width="926"/>
  <unicode hex="006D"/>
  <note>
m
</note>
  <outline>
    <contour>
      <point x="167" y="543" type="line"/>
      <point x="92" y="543" type="line"/>
      <point x="92" y="0" type="line"/>
      <point x="183" y="0" type="line"/>
      <point x="183" y="394" type="line"/>
      <point x="232.33" y="449.33"/>
      <point x="278" y="477"/>
      <point x="320" y="477" type="curve" smooth="yes"/>
      <point x="354.67" y="477"/>
      <point x="380.17" y="465.5"/>
      <point x="396.5" y="442.5" type="curve" smooth="yes"/>
      <point x="412.83" y="419.5"/>
      <point x="421" y="382.67"/>
      <point x="421" y="332" type="curve" smooth="yes"/>
      <point x="421" y="0" type="line"/>
      <point x="512" y="0" type="line"/>
      <point x="512" y="394" type="line"/>
      <point x="562.67" y="449.33"/>
      <point x="608.33" y="477"/>
      <point x="649" y="477" type="curve" smooth="yes"/>
      <point x="683.67" y="477"/>
      <point x="709.17" y="465.5"/>
      <point x="725.5" y="442.5" type="curve" smooth="yes"/>
      <point x="741.83" y="419.5"/>
      <point x="750" y="382.67"/>
      <point x="750" y="332" type="curve" smooth="yes"/>
      <point x="750" y="0" type="line"/>
      <point x="841" y="0" type="line"/>
      <point x="841" y="344" type="line" smooth="yes"/>
      <point x="841" y="486"/>
      <point x="786" y="557"/>
      <point x="676" y="557" type="curve" smooth="yes"/>
      <point x="620" y="557"/>
      <point x="560.33" y="522.33"/>
      <point x="497" y="453" type="curve"/>
      <point x="473" y="522.33"/>
      <point x="423" y="557"/>
      <point x="347" y="557" type="curve" smooth="yes"/>
      <point x="290.33" y="557"/>
      <point x="234" y="526"/>
      <point x="178" y="464" type="curve"/>
      <point x="175" y="464" type="line"/>
    </contour>
  </outline>
</glyph>
<glyph name="n" format="2">
  <advance width="611"/>
  <unicode hex="006E"/>
  <note>
n
</note>
  <outline>
    <contour>
      <point x="167" y="543" type="line"/>
      <point x="92" y="543" type="line"/>
      <point x="92" y="0" type="line"/>
      <point x="183" y="0" type="line"/>
      <point x="183" y="394" type="line"/>
      <point x="213" y="424"/>
      <point x="238.67" y="445.33"/>
      <point x="260" y="458" type="curve" smooth="yes"/>
      <point x="281.33" y="470.67"/>
      <point x="305.33" y="477"/>
      <point x="332" y="477" type="curve" smooth="yes"/>
      <point x="368" y="477"/>
      <point x="394.17" y="465.5"/>
      <point x="410.5" y="442.5" type="curve" smooth="yes"/>
      <point x="426.83" y="419.5"/>
      <point x="435" y="382.67"/>
      <point x="435" y="332" type="curve" smooth="yes"/>
      <point x="435" y="0" type="line"/>
      <point x="526" y="0" type="line"/>
      <point x="526" y="344" type="line" smooth="yes"/>
      <point x="526" y="486"/>
      <point x="470.67" y="557"/>
      <point x="360" y="557" type="curve" smooth="yes"/>
      <point x="301.33" y="557"/>
      <point x="240.67" y="526.33"/>
      <point x="178" y="465" type="curve"/>
      <point x="175" y="465" type="line"/>
    </contour>
  </outline>
</glyph>
<glyph name="o" format="2">
  <advance width="606"/>
  <unicode hex="006F"/>
  <note>
o
</note>
  <outline>
    <contour>
      <point x="303" y="-13" type="curve" smooth="yes"/>
      <point x="373" y="-13"/>
      <point x="432.5" y="12.67"/>
      <point x="481.5" y="64" type="curve" smooth="yes"/>
      <point x="530.5" y="115.33"/>
      <point x="555" y="184.33"/>
      <point x="555" y="271" type="curve" smooth="yes"/>
      <point x="555" y="358.33"/>
      <point x="530.5" y="427.83"/>
      <point x="481.5" y="479.5" type="curve" smooth="yes"/>
      <point x="432.5" y="531.17"/>
      <point x="373" y="557"/>
      <point x="303" y="557" type="curve" smooth="yes"/>
      <point x="233" y="557"/>
      <point x="173.5" y="531.17"/>
      <point x="124.5" y="479.5" type="curve" smooth="yes"/>
      <point x="75.5" y="427.83"/>
      <point x="51" y="358.33"/>
      <point x="51" y="271" type="curve" smooth="yes"/>
      <point x="51" y="184.33"/>
      <point x="75.5" y="115.33"/>
      <point x="124.5" y="64" type="curve" smooth="yes"/>
      <point x="173.5" y="12.67"/>
      <point x="233" y="-13"/>
    </contour>
    <contour>
      <point x="303" y="63" type="curve" smooth="yes"/>
      <point x="255.67" y="63"/>
      <point x="217.67" y="82"/>
      <point x="189" y="120" type="curve" smooth="yes"/>
      <point x="160.33" y="158"/>
      <point x="146" y="208.33"/>
      <point x="146" y="271" type="curve" smooth="yes"/>
      <point x="146" y="333.67"/>
      <point x="160.5" y="384.33"/>
      <point x="189.5" y="423" type="curve" smooth="yes"/>
      <point x="218.5" y="461.67"/>
      <point x="256.33" y="481"/>
      <point x="303" y="481" type="curve" smooth="yes"/>
      <point x="350.33" y="481"/>
      <point x="388.5" y="461.67"/>
      <point x="417.5" y="423" type="curve" smooth="yes"/>
      <point x="446.5" y="384.33"/>
      <point x="461" y="333.67"/>
      <point x="461" y="271" type="curve" smooth="yes"/>
      <point x="461" y="208.33"/>
      <point x="446.5" y="158"/>
      <point x="417.5" y="120" type="curve" smooth="yes"/>
      <point x="388.5" y="82"/>
      <point x="350.33" y="63"/>
    </contour>
  </outline>
</glyph>
<glyph name="p" format="2">
  <advance width="620"/>
  <unicode hex="0070"/>
  <note>
p
</note>
  <outline>
    <contour>
      <point x="167" y="543" type="line"/>
      <point x="92" y="543" type="line"/>
      <point x="92" y="-229" type="line"/>
      <point x="183" y="-229" type="line"/>
      <point x="183" y="-45" type="line"/>
      <point x="181" y="50" type="line"/>
      <point x="232.33" y="8"/>
      <point x="282.33" y="-13"/>
      <point x="331" y="-13" type="curve" smooth="yes"/>
      <point x="396.33" y="-13"/>
      <point x="452" y="13.5"/>
      <point x="498" y="66.5" type="curve" smooth="yes"/>
      <point x="544" y="119.5"/>
      <point x="567" y="190.67"/>
      <point x="567" y="280" type="curve" smooth="yes"/>
      <point x="567" y="365.33"/>
      <point x="548.17" y="432.83"/>
      <point x="510.5" y="482.5" type="curve" smooth="yes"/>
      <point x="472.83" y="532.17"/>
      <point x="419.67" y="557"/>
      <point x="351" y="557" type="curve" smooth="yes"/>
      <point x="297.67" y="557"/>
      <point x="240" y="531.67"/>
      <point x="178" y="481" type="curve"/>
      <point x="175" y="481" type="line"/>
    </contour>
    <contour>
      <point x="316" y="63" type="curve" smooth="yes"/>
      <point x="272" y="63"/>
      <point x="227.67" y="82"/>
      <point x="183" y="120" type="curve"/>
      <point x="183" y="405" type="line"/>
      <point x="237" y="455"/>
      <point x="285.67" y="480"/>
      <point x="329" y="480" type="curve" smooth="yes"/>
      <point x="424.33" y="480"/>
      <point x="472" y="413"/>
      <point x="472" y="279" type="curve" smooth="yes"/>
      <point x="472" y="213"/>
      <point x="457.5" y="160.5"/>
      <point x="428.5" y="121.5" type="curve" smooth="yes"/>
      <point x="399.5" y="82.5"/>
      <point x="362" y="63"/>
    </contour>
  </outline>
</glyph>
<glyph name="q" format="2">
  <advance width="620"/>
  <unicode hex="0071"/>
  <note>
q
</note>
  <outline>
    <contour>
      <point x="441" y="63" type="curve"/>
      <point x="436" y="-36" type="line"/>
      <point x="436" y="-229" type="line"/>
      <point x="527" y="-229" type="line"/>
      <point x="527" y="543" type="line"/>
      <point x="455" y="543" type="line"/>
      <point x="446" y="491" type="line"/>
      <point x="443" y="491" type="line"/>
      <point x="395" y="535"/>
      <point x="343.33" y="557"/>
      <point x="288" y="557" type="curve" smooth="yes"/>
      <point x="223.33" y="557"/>
      <point x="168" y="530.67"/>
      <point x="122" y="478" type="curve" smooth="yes"/>
      <point x="76" y="425.33"/>
      <point x="53" y="356.33"/>
      <point x="53" y="271" type="curve" smooth="yes"/>
      <point x="53" y="181.67"/>
      <point x="73.17" y="112"/>
      <point x="113.5" y="62" type="curve" smooth="yes"/>
      <point x="153.83" y="12"/>
      <point x="208.33" y="-13"/>
      <point x="277" y="-13" type="curve" smooth="yes"/>
      <point x="334.33" y="-13"/>
      <point x="389" y="12.33"/>
    </contour>
    <contour>
      <point x="297" y="63" type="curve" smooth="yes"/>
      <point x="249" y="63"/>
      <point x="212" y="81.33"/>
      <point x="186" y="118" type="curve" smooth="yes"/>
      <point x="160" y="154.67"/>
      <point x="147" y="206"/>
      <point x="147" y="272" type="curve" smooth="yes"/>
      <point x="147" y="333.33"/>
      <point x="162" y="383.33"/>
      <point x="192" y="422" type="curve" smooth="yes"/>
      <point x="222" y="460.67"/>
      <point x="259.33" y="480"/>
      <point x="304" y="480" type="curve" smooth="yes"/>
      <point x="349.33" y="480"/>
      <point x="393.33" y="461"/>
      <point x="436" y="423" type="curve"/>
      <point x="436" y="138" type="line"/>
      <point x="390.67" y="88"/>
      <point x="344.33" y="63"/>
    </contour>
  </outline>
</glyph>
<glyph name="r" format="2">
  <advance width="388"/>
  <unicode hex="0072"/>
  <note>
r
</note>
  <outline>
    <contour>
      <point x="167" y="543" type="line"/>
      <point x="92" y="543" type="line"/>
      <point x="92" y="0" type="line"/>
      <point x="183" y="0" type="line"/>
      <point x="183" y="349" type="line"/>
      <point x="199.67" y="392.33"/>
      <point x="220.33" y="424"/>
      <point x="245" y="444" type="curve" smooth="yes"/>
      <point x="269.67" y="464"/>
      <point x="294.67" y="474"/>
      <point x="320" y="474" type="curve" smooth="yes"/>
      <point x="340" y="474"/>
      <point x="357.67" y="471"/>
      <point x="373" y="465" type="curve"/>
      <point x="390" y="545" type="line"/>
      <point x="374.67" y="553"/>
      <point x="355.33" y="557"/>
      <point x="332" y="557" type="curve" smooth="yes"/>
      <point x="302" y="557"/>
      <point x="273.67" y="547"/>
      <point x="247" y="527" type="curve" smooth="yes"/>
      <point x="220.33" y="507"/>
      <point x="197.33" y="479.33"/>
      <point x="178" y="444" type="curve"/>
      <point x="175" y="444" type="line"/>
    </contour>
  </outline>
</glyph>
<glyph name="s" format="2">
  <advance width="468"/>
  <unicode hex="0073"/>
  <note>
s
</note>
  <outline>
    <contour>
      <point x="234" y="-13" type="curve" smooth="yes"/>
      <point x="296" y="-13"/>
      <point x="344.5" y="2.33"/>
      <point x="379.5" y="33" type="curve" smooth="yes"/>
      <point x="414.5" y="63.67"/>
      <point x="432" y="102"/>
      <point x="432" y="148" type="curve" smooth="yes"/>
      <point x="432" y="168"/>
      <point x="428.33" y="186.17"/>
      <point x="421" y="202.5" type="curve" smooth="yes"/>
      <point x="413.67" y="218.83"/>
      <point x="405.67" y="232"/>
      <point x="397" y="242" type="curve" smooth="yes"/>
      <point x="388.33" y="252"/>
      <point x="375.17" y="262"/>
      <point x="357.5" y="272" type="curve" smooth="yes"/>
      <point x="339.83" y="282"/>
      <point x="325.67" y="289.33"/>
      <point x="315" y="294" type="curve" smooth="yes"/>
      <point x="304.33" y="298.67"/>
      <point x="288" y="305"/>
      <point x="266" y="313" type="curve" smooth="yes"/>
      <point x="264" y="313.67"/>
      <point x="260.61" y="314.94"/>
      <point x="255.83" y="316.82" type="curve" smooth="yes"/>
      <point x="229.28" y="326.94"/>
      <point x="210.5" y="334.5"/>
      <point x="199.5" y="339.5" type="curve" smooth="yes"/>
      <point x="188.5" y="344.5"/>
      <point x="176.83" y="353.17"/>
      <point x="164.5" y="365.5" type="curve" smooth="yes"/>
      <point x="152.17" y="377.83"/>
      <point x="146" y="391.67"/>
      <point x="146" y="407" type="curve" smooth="yes"/>
      <point x="146" y="429.67"/>
      <point x="154.5" y="448.33"/>
      <point x="171.5" y="463" type="curve" smooth="yes"/>
      <point x="188.5" y="477.67"/>
      <point x="213" y="485"/>
      <point x="245" y="485" type="curve" smooth="yes"/>
      <point x="285" y="485"/>
      <point x="326.67" y="469"/>
      <point x="370" y="437" type="curve"/>
      <point x="414" y="496" type="line"/>
      <point x="361.33" y="536.67"/>
      <point x="305" y="557"/>
      <point x="245" y="557" type="curve" smooth="yes"/>
      <point x="187.67" y="557"/>
      <point x="142.17" y="542.5"/>
      <point x="108.5" y="513.5" type="curve" smooth="yes"/>
      <point x="74.83" y="484.5"/>
      <point x="58" y="447.67"/>
      <point x="58" y="403" type="curve" smooth="yes"/>
      <point x="58" y="381"/>
      <point x="62.5" y="361.33"/>
      <point x="71.5" y="344" type="curve" smooth="yes"/>
      <point x="80.5" y="326.67"/>
      <point x="93.83" y="311.83"/>
      <point x="111.5" y="299.5" type="curve" smooth="yes"/>
      <point x="129.17" y="287.17"/>
      <point x="145.83" y="277.33"/>
      <point x="161.5" y="270" type="curve" smooth="yes"/>
      <point x="177.17" y="262.67"/>
      <point x="196.67" y="254.67"/>
      <point x="220" y="246" type="curve" smooth="yes"/>
      <point x="246.67" y="236"/>
      <point x="267" y="227.67"/>
      <point x="281" y="221" type="curve" smooth="yes"/>
      <point x="295" y="214.33"/>
      <point x="309" y="204"/>
      <point x="323" y="190" type="curve" smooth="yes"/>
      <point x="337" y="176"/>
      <point x="344" y="160.33"/>
      <point x="344" y="143" type="curve" smooth="yes"/>
      <point x="344" y="118.33"/>
      <point x="334.83" y="98"/>
      <point x="316.5" y="82" type="curve" smooth="yes"/>
      <point x="298.17" y="66"/>
      <point x="271.67" y="58"/>
      <point x="237" y="58" type="curve" smooth="yes"/>
      <point x="182.33" y="58"/>
      <point x="128.67" y="79.33"/>
      <point x="76" y="122" type="curve"/>
      <point x="31" y="62" type="line"/>
      <point x="91.67" y="12"/>
      <point x="159.33" y="-13"/>
    </contour>
  </outline>
</glyph>
<glyph name="t" format="2">
  <advance width="377"/>
  <unicode hex="0074"/>
  <note>
t
</note>
  <outline>
    <contour>
      <point x="263" y="-13" type="curve" smooth="yes"/>
      <point x="288.33" y="-13"/>
      <point x="321.67" y="-6.33"/>
      <point x="363" y="7" type="curve"/>
      <point x="345" y="75" type="line"/>
      <point x="321" y="65.67"/>
      <point x="300.33" y="61"/>
      <point x="283" y="61" type="curve" smooth="yes"/>
      <point x="252.33" y="61"/>
      <point x="230.67" y="69.67"/>
      <point x="218" y="87" type="curve" smooth="yes"/>
      <point x="205.33" y="104.33"/>
      <point x="199" y="130.67"/>
      <point x="199" y="166" type="curve" smooth="yes"/>
      <point x="199" y="469" type="line"/>
      <point x="346" y="469" type="line"/>
      <point x="346" y="543" type="line"/>
      <point x="199" y="543" type="line"/>
      <point x="199" y="695" type="line"/>
      <point x="123" y="695" type="line"/>
      <point x="112" y="543" type="line"/>
      <point x="27" y="538" type="line"/>
      <point x="27" y="469" type="line"/>
      <point x="108" y="469" type="line"/>
      <point x="108" y="168" type="line" smooth="yes"/>
      <point x="108" y="47.33"/>
      <point x="159.67" y="-13"/>
    </contour>
  </outline>
</glyph>
<glyph name="u" format="2">
  <advance width="607"/>
  <unicode hex="0075"/>
  <note>
u
</note>
  <outline>
    <contour>
      <point x="250" y="-13" type="curve" smooth="yes"/>
      <point x="313.33" y="-13"/>
      <point x="373.33" y="19.67"/>
      <point x="430" y="85" type="curve"/>
      <point x="433" y="85" type="line"/>
      <point x="440" y="0" type="line"/>
      <point x="516" y="0" type="line"/>
      <point x="516" y="543" type="line"/>
      <point x="425" y="543" type="line"/>
      <point x="425" y="158" type="line"/>
      <point x="398.33" y="124.67"/>
      <point x="374" y="101"/>
      <point x="352" y="87" type="curve" smooth="yes"/>
      <point x="330" y="73"/>
      <point x="305.33" y="66"/>
      <point x="278" y="66" type="curve" smooth="yes"/>
      <point x="242" y="66"/>
      <point x="216" y="77.33"/>
      <point x="200" y="100" type="curve" smooth="yes"/>
      <point x="184" y="122.67"/>
      <point x="176" y="159.33"/>
      <point x="176" y="210" type="curve" smooth="yes"/>
      <point x="176" y="543" type="line"/>
      <point x="85" y="543" type="line"/>
      <point x="85" y="199" type="line" smooth="yes"/>
      <point x="85" y="57.67"/>
      <point x="140" y="-13"/>
    </contour>
  </outline>
</glyph>
<glyph name="v" format="2">
  <advance width="521"/>
  <unicode hex="0076"/>
  <note>
v
</note>
  <outline>
    <contour>
      <point x="108" y="543" type="line"/>
      <point x="13" y="543" type="line"/>
      <point x="209" y="0" type="line"/>
      <point x="315" y="0" type="line"/>
      <point x="508" y="543" type="line"/>
      <point x="418" y="543" type="line"/>
      <point x="315" y="234" type="line" smooth="yes"/>
      <point x="311.67" y="222.67"/>
      <point x="295" y="169.33"/>
      <point x="265" y="74" type="curve"/>
      <point x="261" y="74" type="line"/>
      <point x="254.33" y="94"/>
      <point x="244.83" y="123.5"/>
      <point x="232.5" y="162.5" type="curve" smooth="yes"/>
      <point x="220.17" y="201.5"/>
      <point x="212.67" y="225.33"/>
      <point x="210" y="234" type="curve" smooth="yes"/>
    </contour>
  </outline>
</glyph>
<glyph name="w" format="2">
  <advance width="802"/>
  <unicode hex="0077"/>
  <note>
w
</note>
  <outline>
    <contour>
      <point x="120" y="543" type="line"/>
      <point x="27" y="543" type="line"/>
      <point x="178" y="0" type="line"/>
      <point x="285" y="0" type="line"/>
      <point x="361" y="291" type="line" smooth="yes"/>
      <point x="369.67" y="324.33"/>
      <point x="382" y="377"/>
      <point x="398" y="449" type="curve"/>
      <point x="403" y="449" type="line"/>
      <point x="427" y="347"/>
      <point x="439.33" y="295"/>
      <point x="440" y="293" type="curve" smooth="yes"/>
      <point x="519" y="0" type="line"/>
      <point x="629" y="0" type="line"/>
      <point x="775" y="543" type="line"/>
      <point x="689" y="543" type="line"/>
      <point x="609" y="229" type="line" smooth="yes"/>
      <point x="605.67" y="213"/>
      <point x="600.17" y="188.17"/>
      <point x="592.5" y="154.5" type="curve" smooth="yes"/>
      <point x="584.83" y="120.83"/>
      <point x="579" y="95"/>
      <point x="575" y="77" type="curve"/>
      <point x="571" y="77" type="line"/>
      <point x="567" y="92.33"/>
      <point x="563" y="108.33"/>
      <point x="559" y="125" type="curve" smooth="yes"/>
      <point x="555" y="141.67"/>
      <point x="550.33" y="160.33"/>
      <point x="545" y="181" type="curve" smooth="yes"/>
      <point x="539.67" y="201.67"/>
      <point x="535.67" y="217.67"/>
      <point x="533" y="229" type="curve" smooth="yes"/>
      <point x="448" y="543" type="line"/>
      <point x="359" y="543" type="line"/>
      <point x="275" y="229" type="line" smooth="yes"/>
      <point x="269" y="208.33"/>
      <point x="256.67" y="157.67"/>
      <point x="238" y="77" type="curve"/>
      <point x="233" y="77" type="line"/>
      <point x="231.67" y="83.67"/>
      <point x="221" y="134.33"/>
      <point x="201" y="229" type="curve"/>
    </contour>
  </outline>
</glyph>
<glyph name="x" format="2">
  <advance width="498"/>
  <unicode hex="0078"/>
  <note>
x
</note>
  <outline>
    <contour>
      <point x="29" y="543" type="line"/>
      <point x="194" y="283" type="line"/>
      <point x="15" y="0" type="line"/>
      <point x="111" y="0" type="line"/>
      <point x="184" y="127" type="line" smooth="yes"/>
      <point x="220" y="189"/>
      <point x="238.67" y="221.33"/>
      <point x="240" y="224" type="curve"/>
      <point x="245" y="224" type="line"/>
      <point x="267" y="190"/>
      <point x="286.33" y="157.67"/>
      <point x="303" y="127" type="curve"/>
      <point x="383" y="0" type="line"/>
      <point x="483" y="0" type="line"/>
      <point x="304" y="274" type="line"/>
      <point x="469" y="543" type="line"/>
      <point x="374" y="543" type="line"/>
      <point x="307" y="423" type="line" smooth="yes"/>
      <point x="285.67" y="383"/>
      <point x="269.33" y="353"/>
      <point x="258" y="333" type="curve"/>
      <point x="254" y="333" type="line"/>
      <point x="200" y="423" type="line"/>
      <point x="127" y="543" type="line"/>
    </contour>
  </outline>
</glyph>
<glyph name="y" format="2">
  <advance width="521"/>
  <unicode hex="0079"/>
  <note>
y
</note>
  <outline>
    <contour>
      <point x="101" y="-234" type="curve" smooth="yes"/>
      <point x="151" y="-234"/>
      <point x="191.83" y="-217.33"/>
      <point x="223.5" y="-184" type="curve" smooth="yes"/>
      <point x="255.17" y="-150.67"/>
      <point x="281.67" y="-104.33"/>
      <point x="303" y="-45" type="curve" smooth="yes"/>
      <point x="508" y="543" type="line"/>
      <point x="419" y="543" type="line"/>
      <point x="322" y="241" type="line" smooth="yes"/>
      <point x="316.67" y="223"/>
      <point x="308.67" y="196.33"/>
      <point x="298" y="161" type="curve" smooth="yes"/>
      <point x="287.33" y="125.67"/>
      <point x="280" y="101.67"/>
      <point x="276" y="89" type="curve"/>
      <point x="271" y="89" type="line"/>
      <point x="261.67" y="115"/>
      <point x="244.33" y="165.67"/>
      <point x="219" y="241" type="curve" smooth="yes"/>
      <point x="108" y="543" type="line"/>
      <point x="13" y="543" type="line"/>
      <point x="231" y="-1" type="line"/>
      <point x="219" y="-42" type="line" smooth="yes"/>
      <point x="193.67" y="-120"/>
      <point x="152.67" y="-159"/>
      <point x="96" y="-159" type="curve" smooth="yes"/>
      <point x="85.33" y="-159"/>
      <point x="71.67" y="-156"/>
      <point x="55" y="-150" type="curve"/>
      <point x="37" y="-223" type="line"/>
      <point x="55" y="-230.33"/>
      <point x="76.33" y="-234"/>
    </contour>
  </outline>
</glyph>
<glyph name="z" format="2">
  <advance width="474"/>
  <unicode hex="007A"/>
  <note>
z
</note>
  <outline>
    <contour>
      <point x="321" y="469" type="line"/>
      <point x="35" y="49" type="line"/>
      <point x="35" y="0" type="line"/>
      <point x="446" y="0" type="line"/>
      <point x="446" y="74" type="line"/>
      <point x="150" y="74" type="line"/>
      <point x="436" y="494" type="line"/>
      <point x="436" y="543" type="line"/>
      <point x="66" y="543" type="line"/>
      <point x="66" y="469" type="line"/>
    </contour>
  </outline>
</glyph>
<glyph name="uni3002" format="2">
  <advance width="1000"/>
  <unicode hex="3002"/>
  <note>
uni3002
</note>
  <outline>
    <contour>
      <point x="194" y="244" type="curve" smooth="yes"/>
      <point x="152.67" y="244"/>
      <point x="117" y="229.17"/>
      <point x="87" y="199.5" type="curve" smooth="yes"/>
      <point x="57" y="169.83"/>
      <point x="42" y="134"/>
      <point x="42" y="92" type="curve" smooth="yes"/>
      <point x="42" y="50"/>
      <point x="57" y="14"/>
      <point x="87" y="-16" type="curve" smooth="yes"/>
      <point x="117" y="-46"/>
      <point x="152.67" y="-61"/>
      <point x="194" y="-61" type="curve" smooth="yes"/>
      <point x="236.67" y="-61"/>
      <point x="272.83" y="-46"/>
      <point x="302.5" y="-16" type="curve" smooth="yes"/>
      <point x="332.17" y="14"/>
      <point x="347" y="50"/>
      <point x="347" y="92" type="curve" smooth="yes"/>
      <point x="347" y="134"/>
      <point x="332.17" y="169.83"/>
      <point x="302.5" y="199.5" type="curve" smooth="yes"/>
      <point x="272.83" y="229.17"/>
      <point x="236.67" y="244"/>
    </contour>
    <contour>
      <point x="194" y="-10" type="curve" smooth="yes"/>
      <point x="166" y="-10"/>
      <point x="142.17" y="0"/>
      <point x="122.5" y="20" type="curve" smooth="yes"/>
      <point x="102.83" y="40"/>
      <point x="93" y="64"/>
      <point x="93" y="92" type="curve" smooth="yes"/>
      <point x="93" y="119.33"/>
      <point x="103" y="143"/>
      <point x="123" y="163" type="curve" smooth="yes"/>
      <point x="143" y="183"/>
      <point x="166.67" y="193"/>
      <point x="194" y="193" type="curve" smooth="yes"/>
      <point x="222" y="193"/>
      <point x="245.83" y="183.17"/>
      <point x="265.5" y="163.5" type="curve" smooth="yes"/>
      <point x="285.17" y="143.83"/>
      <point x="295" y="120"/>
      <point x="295" y="92" type="curve" smooth="yes"/>
      <point x="295" y="63.33"/>
      <point x="285.33" y="39.17"/>
      <point x="266" y="19.5" type="curve" smooth="yes"/>
      <point x="246.67" y="-0.17"/>
      <point x="222.67" y="-10"/>
    </contour>
  </outline>
</glyph>
<glyph name="uni4E00" format="2">
  <advance width="1024"/>
  <unicode hex="4E00"/>
  <note>
uni4E00
</note>
  <outline>
    <contour>
      <point x="974" y="385" type="line"/>
      <point x="974" y="406" type="line"/>
      <point x="910" y="460" type="line"/>
      <point x="856" y="406" type="line"/>
      <point x="50" y="406" type="line"/>
      <point x="50" y="385" type="line"/>
    </contour>
  </outline>
</glyph>
<glyph name="uniFE12" format="2">
  <advance width="1000"/>
  <unicode hex="FE12"/>
  <note>
uniFE12
</note>
  <outline>
    <contour>
      <point x="803" y="815" type="curve" smooth="yes"/>
      <point x="762.33" y="815"/>
      <point x="727.17" y="800.17"/>
      <point x="697.5" y="770.5" type="curve" smooth="yes"/>
      <point x="667.83" y="740.83"/>
      <point x="653" y="705.67"/>
      <point x="653" y="665" type="curve" smooth="yes"/>
      <point x="653" y="623.67"/>
      <point x="667.67" y="588.33"/>
      <point x="697" y="559" type="curve" smooth="yes"/>
      <point x="726.33" y="529.67"/>
      <point x="761.67" y="515"/>
      <point x="803" y="515" type="curve" smooth="yes"/>
      <point x="844.33" y="515"/>
      <point x="879.5" y="529.67"/>
      <point x="908.5" y="559" type="curve" smooth="yes"/>
      <point x="937.5" y="588.33"/>
      <point x="952" y="623.67"/>
      <point x="952" y="665" type="curve" smooth="yes"/>
      <point x="952" y="706.33"/>
      <point x="937.5" y="741.67"/>
      <point x="908.5" y="771" type="curve" smooth="yes"/>
      <point x="879.5" y="800.33"/>
      <point x="844.33" y="815"/>
    </contour>
    <contour>
      <point x="803" y="565" type="curve" smooth="yes"/>
      <point x="775.67" y="565"/>
      <point x="752.17" y="574.67"/>
      <point x="732.5" y="594" type="curve" smooth="yes"/>
      <point x="712.83" y="613.33"/>
      <point x="703" y="637"/>
      <point x="703" y="665" type="curve" smooth="yes"/>
      <point x="703" y="692.33"/>
      <point x="712.83" y="715.67"/>
      <point x="732.5" y="735" type="curve" smooth="yes"/>
      <point x="752.17" y="754.33"/>
      <point x="775.67" y="764"/>
      <point x="803" y="764" type="curve" smooth="yes"/>
      <point x="830.33" y="764"/>
      <point x="853.67" y="754.33"/>
      <point x="873" y="735" type="curve" smooth="yes"/>
      <point x="892.33" y="715.67"/>
      <point x="902" y="692.33"/>
      <point x="902" y="665" type="curve" smooth="yes"/>
      <point x="902" y="637"/>
      <point x="892.33" y="613.33"/>
      <point x="873" y="594" type="curve" smooth="yes"/>
      <point x="853.67" y="574.67"/>
      <point x="830.33" y="565"/>
    </contour>
  </outline>
</glyph>
<glyph name="u16FE1" format="2">
  <advance width="740"/>
  <unicode hex="16FE1"/>
  <note>
u16FE1
</note>
  <outline>
    <contour>
      <point x="45" y="387" type="curve" smooth="yes"/>
      <point x="45" y="371.67"/>
      <point x="50" y="358.67"/>
      <point x="60" y="348" type="curve" smooth="yes"/>
      <point x="70" y="337.33"/>
      <point x="82.33" y="332"/>
      <point x="97" y="332" type="curve" smooth="yes"/>
      <point x="113" y="332"/>
      <point x="125.67" y="337.17"/>
      <point x="135" y="347.5" type="curve" smooth="yes"/>
      <point x="144.33" y="357.83"/>
      <point x="149" y="371"/>
      <point x="149" y="387" type="curve" smooth="yes"/>
      <point x="149" y="403.67"/>
      <point x="144.33" y="417.17"/>
      <point x="135" y="427.5" type="curve" smooth="yes"/>
      <point x="125.67" y="437.83"/>
      <point x="113" y="443"/>
      <point x="97" y="443" type="curve" smooth="yes"/>
      <point x="81.67" y="443"/>
      <point x="69.17" y="437.83"/>
      <point x="59.5" y="427.5" type="curve" smooth="yes"/>
      <point x="49.83" y="417.17"/>
      <point x="45" y="403.67"/>
    </contour>
    <contour>
      <point x="162" y="677" type="line"/>
      <point x="321" y="251" type="line"/>
      <point x="385" y="237" type="line"/>
      <point x="462.33" y="323"/>
      <point x="522.83" y="432.67"/>
      <point x="566.5" y="566" type="curve" smooth="yes"/>
      <point x="610.17" y="699.33"/>
      <point x="633.33" y="844"/>
      <point x="636" y="1000" type="curve"/>
      <point x="555" y="1000" type="line"/>
      <point x="553.67" y="862"/>
      <point x="534.83" y="732.83"/>
      <point x="498.5" y="612.5" type="curve" smooth="yes"/>
      <point x="462.17" y="492.17"/>
      <point x="413" y="396.67"/>
      <point x="351" y="326" type="curve"/>
      <point x="385" y="302" type="line"/>
      <point x="239" y="704" type="line"/>
    </contour>
    <contour>
      <point x="553" y="596" type="curve"/>
      <point x="502" y="509" type="line"/>
      <point x="528" y="441.67"/>
      <point x="540.67" y="378"/>
      <point x="540" y="318" type="curve" smooth="yes"/>
      <point x="538.67" y="263.33"/>
      <point x="518.5" y="202.83"/>
      <point x="479.5" y="136.5" type="curve" smooth="yes"/>
      <point x="440.5" y="70.17"/>
      <point x="386.67" y="4.33"/>
      <point x="318" y="-61" type="curve"/>
      <point x="372" y="-120" type="line"/>
      <point x="448.67" y="-47.33"/>
      <point x="508.83" y="27"/>
      <point x="552.5" y="103" type="curve" smooth="yes"/>
      <point x="596.17" y="179"/>
      <point x="618.67" y="250"/>
      <point x="620" y="316" type="curve" smooth="yes"/>
      <point x="622" y="407.33"/>
      <point x="599.67" y="500.67"/>
    </contour>
    <contour>
      <point x="333" y="710" type="curve" smooth="yes"/>
      <point x="333" y="694.67"/>
      <point x="338" y="681.67"/>
      <point x="348" y="671" type="curve" smooth="yes"/>
      <point x="358" y="660.33"/>
      <point x="370.33" y="655"/>
      <point x="385" y="655" type="curve" smooth="yes"/>
      <point x="401" y="655"/>
      <point x="413.67" y="660.17"/>
      <point x="423" y="670.5" type="curve" smooth="yes"/>
      <point x="432.33" y="680.83"/>
      <point x="437" y="694"/>
      <point x="437" y="710" type="curve" smooth="yes"/>
      <point x="437" y="726.67"/>
      <point x="432.33" y="740.17"/>
      <point x="423" y="750.5" type="curve" smooth="yes"/>
      <point x="413.67" y="760.83"/>
      <point x="401" y="766"/>
      <point x="385" y="766" type="curve" smooth="yes"/>
      <point x="369.67" y="766"/>
      <point x="357.17" y="760.83"/>
      <point x="347.5" y="750.5" type="curve" smooth="yes"/>
      <point x="337.83" y="740.17"/>
      <point x="333" y="726.67"/>
    </contour>
  </outline>
</glyph>
<glyph name="u1B170" format="2">
  <advance width="740"/>
  <unicode hex="1B170"/>
  <note>
u1B170
</note>
  <outline>
    <contour>
      <point x="112" y="-58" type="curve"/>
      <point x="169" y="-120" type="line"/>
      <point x="322.33" y="30"/>
      <point x="434" y="202"/>
      <point x="504" y="396" type="curve" smooth="yes"/>
      <point x="567.33" y="569.33"/>
      <point x="601" y="770.67"/>
      <point x="605" y="1000" type="curve"/>
      <point x="521" y="1000" type="line"/>
      <point x="517" y="781.33"/>
      <point x="485.33" y="589.33"/>
      <point x="426" y="424" type="curve" smooth="yes"/>
      <point x="358.67" y="242"/>
      <point x="254" y="81.33"/>
    </contour>
  </outline>
</glyph>
<glyph name="u1B171" format="2">
  <advance width="740"/>
  <unicode hex="1B171"/>
  <note>
u1B171
</note>
  <outline>
    <contour>
      <point x="149" y="281" type="curve"/>
      <point x="196" y="214" type="line"/>
      <point x="338" y="317.33"/>
      <point x="443.67" y="438.67"/>
      <point x="513" y="578" type="curve" smooth="yes"/>
      <point x="573.67" y="702.67"/>
      <point x="609.33" y="842"/>
      <point x="620" y="996" type="curve"/>
      <point x="538" y="1000" type="line"/>
      <point x="528.67" y="857.33"/>
      <point x="495.67" y="728.67"/>
      <point x="439" y="614" type="curve" smooth="yes"/>
      <point x="377" y="487.33"/>
      <point x="280.33" y="376.33"/>
    </contour>
    <contour>
      <point x="120" y="-52" type="curve"/>
      <point x="166" y="-120" type="line"/>
      <point x="234" y="-74"/>
      <point x="302" y="-21.33"/>
      <point x="370" y="38" type="curve" smooth="yes"/>
      <point x="430" y="90.67"/>
      <point x="484" y="146"/>
      <point x="532" y="204" type="curve"/>
      <point x="468" y="255" type="line"/>
      <point x="425.33" y="203.67"/>
      <point x="374.67" y="152"/>
      <point x="316" y="100" type="curve" smooth="yes"/>
      <point x="254.67" y="46"/>
      <point x="189.33" y="-4.67"/>
    </contour>
  </outline>
</glyph>
<glyph name="u1B172" format="2">
  <advance width="740"/>
  <unicode hex="1B172"/>
  <note>
u1B172
</note>
  <outline>
    <contour>
      <point x="79" y="279" type="curve"/>
      <point x="122" y="211" type="line"/>
      <point x="304.67" y="327"/>
      <point x="433.67" y="450.67"/>
      <point x="509" y="582" type="curve" smooth="yes"/>
      <point x="575" y="696.67"/>
      <point x="614" y="837.67"/>
      <point x="626" y="1005" type="curve"/>
      <point x="547" y="1010" type="line"/>
      <point x="535.67" y="854.67"/>
      <point x="499.67" y="725.33"/>
      <point x="439" y="622" type="curve" smooth="yes"/>
      <point x="370.33" y="502"/>
      <point x="250.33" y="387.67"/>
    </contour>
    <contour>
      <point x="312" y="793" type="curve"/>
      <point x="239" y="761" type="line"/>
      <point x="287.67" y="641.67"/>
      <point x="322.5" y="543.83"/>
      <point x="343.5" y="467.5" type="curve" smooth="yes"/>
      <point x="364.5" y="391.17"/>
      <point x="375" y="323.67"/>
      <point x="375" y="265" type="curve" smooth="yes"/>
      <point x="375" y="204.33"/>
      <point x="363.67" y="148"/>
      <point x="341" y="96" type="curve" smooth="yes"/>
      <point x="318.33" y="44"/>
      <point x="282" y="-9"/>
      <point x="232" y="-63" type="curve"/>
      <point x="288" y="-120" type="line"/>
      <point x="346" y="-58"/>
      <point x="388.33" y="4"/>
      <point x="415" y="66" type="curve" smooth="yes"/>
      <point x="441.67" y="128"/>
      <point x="455" y="194.33"/>
      <point x="455" y="265" type="curve" smooth="yes"/>
      <point x="455" y="387.67"/>
      <point x="407.33" y="563.67"/>
    </contour>
  </outline>
</glyph>
<glyph name="u1B173" format="2">
  <advance width="740"/>
  <unicode hex="1B173"/>
  <note>
u1B173
</note>
  <outline>
    <contour>
      <point x="389" y="461" type="curve"/>
      <point x="358" y="368" type="line"/>
      <point x="396" y="316.67"/>
      <point x="435.33" y="255"/>
      <point x="476" y="183" type="curve" smooth="yes"/>
      <point x="521.33" y="102.33"/>
      <point x="562.67" y="17.67"/>
      <point x="600" y="-71" type="curve"/>
      <point x="675" y="-40" type="line"/>
      <point x="633.67" y="56.67"/>
      <point x="590.67" y="144.33"/>
      <point x="546" y="223" type="curve" smooth="yes"/>
      <point x="494.67" y="314.33"/>
      <point x="442.33" y="393.67"/>
    </contour>
    <contour>
      <point x="72" y="-61" type="curve"/>
      <point x="129" y="-120" type="line"/>
      <point x="277.67" y="37.33"/>
      <point x="377.67" y="229.67"/>
      <point x="429" y="457" type="curve" smooth="yes"/>
      <point x="461" y="607"/>
      <point x="479.33" y="787.33"/>
      <point x="484" y="998" type="curve"/>
      <point x="403" y="1000" type="line"/>
      <point x="398.33" y="790.67"/>
      <point x="380.33" y="615.67"/>
      <point x="349" y="475" type="curve" smooth="yes"/>
      <point x="324.33" y="364.33"/>
      <point x="289.83" y="265.83"/>
      <point x="245.5" y="179.5" type="curve" smooth="yes"/>
      <point x="201.17" y="93.17"/>
      <point x="143.33" y="13"/>
    </contour>
  </outline>
</glyph>
<glyph name="u1B174" format="2">
  <advance width="740"/>
  <unicode hex="1B174"/>
  <note>
u1B174
</note>
  <outline>
    <contour>
      <point x="73" y="-80" type="curve"/>
      <point x="143" y="-120" type="line"/>
      <point x="236.33" y="53.33"/>
      <point x="283" y="222.67"/>
      <point x="283" y="388" type="curve" smooth="yes"/>
      <point x="283" y="526.67"/>
      <point x="250.33" y="672"/>
      <point x="185" y="824" type="curve"/>
      <point x="112" y="791" type="line"/>
      <point x="172.67" y="649.67"/>
      <point x="203" y="515.33"/>
      <point x="203" y="388" type="curve" smooth="yes"/>
      <point x="203" y="235.33"/>
      <point x="159.67" y="79.33"/>
    </contour>
    <contour>
      <point x="600" y="56" type="curve"/>
      <point x="670" y="96" type="line"/>
      <point x="584" y="254"/>
      <point x="541" y="410"/>
      <point x="541" y="564" type="curve" smooth="yes"/>
      <point x="541" y="692.67"/>
      <point x="571" y="827"/>
      <point x="631" y="967" type="curve"/>
      <point x="558" y="1000" type="line"/>
      <point x="493.33" y="850"/>
      <point x="461" y="704.67"/>
      <point x="461" y="564" type="curve" smooth="yes"/>
      <point x="461" y="398"/>
      <point x="507.33" y="228.67"/>
    </contour>
  </outline>
</glyph>
<glyph name="u1B175" format="2">
  <advance width="740"/>
  <unicode hex="1B175"/>
  <note>
u1B175
</note>
  <outline>
    <contour>
      <point x="60" y="-63" type="curve"/>
      <point x="117" y="-120" type="line"/>
      <point x="203" y="-31.33"/>
      <point x="273.17" y="53"/>
      <point x="327.5" y="133" type="curve" smooth="yes"/>
      <point x="381.83" y="213"/>
      <point x="425.67" y="297"/>
      <point x="459" y="385" type="curve" smooth="yes"/>
      <point x="519.67" y="543"/>
      <point x="558" y="747"/>
      <point x="574" y="997" type="curve"/>
      <point x="494" y="1000" type="line"/>
      <point x="476.67" y="760.67"/>
      <point x="439.67" y="565"/>
      <point x="383" y="413" type="curve" smooth="yes"/>
      <point x="320.33" y="253.67"/>
      <point x="212.67" y="95"/>
    </contour>
    <contour>
      <point x="193" y="742" type="curve"/>
      <point x="133" y="689" type="line"/>
      <point x="230.33" y="578.33"/>
      <point x="318" y="457.33"/>
      <point x="396" y="326" type="curve" smooth="yes"/>
      <point x="459.33" y="218.67"/>
      <point x="514" y="110"/>
      <point x="560" y="0" type="curve"/>
      <point x="635" y="29" type="line"/>
      <point x="585.67" y="147.67"/>
      <point x="528.67" y="260.67"/>
      <point x="464" y="368" type="curve" smooth="yes"/>
      <point x="384" y="505.33"/>
      <point x="293.67" y="630"/>
    </contour>
  </outline>
</glyph>
<glyph name="u1B176" format="2">
  <advance width="740"/>
  <unicode hex="1B176"/>
  <note>
u1B176
</note>
  <outline>
    <contour>
      <point x="120" y="403" type="curve" smooth="yes"/>
      <point x="120" y="385.67"/>
      <point x="125.5" y="371.17"/>
      <point x="136.5" y="359.5" type="curve" smooth="yes"/>
      <point x="147.5" y="347.83"/>
      <point x="161.33" y="342"/>
      <point x="178" y="342" type="curve" smooth="yes"/>
      <point x="195.33" y="342"/>
      <point x="209.33" y="347.83"/>
      <point x="220" y="359.5" type="curve" smooth="yes"/>
      <point x="230.67" y="371.17"/>
      <point x="236" y="385.67"/>
      <point x="236" y="403" type="curve" smooth="yes"/>
      <point x="236" y="421"/>
      <point x="230.83" y="435.83"/>
      <point x="220.5" y="447.5" type="curve" smooth="yes"/>
      <point x="210.17" y="459.17"/>
      <point x="196" y="465"/>
      <point x="178" y="465" type="curve" smooth="yes"/>
      <point x="161.33" y="465"/>
      <point x="147.5" y="459.17"/>
      <point x="136.5" y="447.5" type="curve" smooth="yes"/>
      <point x="125.5" y="435.83"/>
      <point x="120" y="421"/>
    </contour>
    <contour>
      <point x="281" y="-65" type="curve"/>
      <point x="344" y="-120" type="line"/>
      <point x="478" y="33.33"/>
      <point x="553.33" y="207.67"/>
      <point x="570" y="403" type="curve" smooth="yes"/>
      <point x="586" y="582.33"/>
      <point x="553.33" y="781.33"/>
      <point x="472" y="1000" type="curve"/>
      <point x="394" y="971" type="line"/>
      <point x="470" y="749.67"/>
      <point x="501" y="562.67"/>
      <point x="487" y="410" type="curve" smooth="yes"/>
      <point x="472.33" y="234"/>
      <point x="403.67" y="75.67"/>
    </contour>
  </outline>
</glyph>
<glyph name="u1B177" format="2">
  <advance width="740"/>
  <unicode hex="1B177"/>
  <note>
u1B177
</note>
  <outline>
    <contour>
      <point x="622" y="403" type="curve" smooth="yes"/>
      <point x="622" y="420.33"/>
      <point x="616.33" y="435"/>
      <point x="605" y="447" type="curve" smooth="yes"/>
      <point x="593.67" y="459"/>
      <point x="579.67" y="465"/>
      <point x="563" y="465" type="curve" smooth="yes"/>
      <point x="545.67" y="465"/>
      <point x="531.67" y="459.17"/>
      <point x="521" y="447.5" type="curve" smooth="yes"/>
      <point x="510.33" y="435.83"/>
      <point x="505" y="421"/>
      <point x="505" y="403" type="curve" smooth="yes"/>
      <point x="505" y="385.67"/>
      <point x="510.33" y="371.17"/>
      <point x="521" y="359.5" type="curve" smooth="yes"/>
      <point x="531.67" y="347.83"/>
      <point x="545.67" y="342"/>
      <point x="563" y="342" type="curve" smooth="yes"/>
      <point x="579.67" y="342"/>
      <point x="593.67" y="347.83"/>
      <point x="605" y="359.5" type="curve" smooth="yes"/>
      <point x="616.33" y="371.17"/>
      <point x="622" y="385.67"/>
    </contour>
    <contour>
      <point x="350" y="-127" type="curve"/>
      <point x="416" y="-75" type="line"/>
      <point x="354" y="9"/>
      <point x="310" y="98"/>
      <point x="284" y="192" type="curve" smooth="yes"/>
      <point x="258" y="286"/>
      <point x="248.67" y="390.67"/>
      <point x="256" y="506" type="curve" smooth="yes"/>
      <point x="264" y="633.33"/>
      <point x="310.33" y="785.67"/>
      <point x="395" y="963" type="curve"/>
      <point x="320" y="1000" type="line"/>
      <point x="230" y="811.33"/>
      <point x="180.67" y="648.33"/>
      <point x="172" y="511" type="curve" smooth="yes"/>
      <point x="157.33" y="265"/>
      <point x="216.67" y="52.33"/>
    </contour>
  </outline>
</glyph>
<glyph name="u1B178" format="2">
  <advance width="740"/>
  <unicode hex="1B178"/>
  <note>
u1B178
</note>
  <outline>
    <contour>
      <point x="45" y="104" type="curve"/>
      <point x="100" y="46" type="line"/>
      <point x="196" y="146"/>
      <point x="244" y="269.67"/>
      <point x="244" y="417" type="curve" smooth="yes"/>
      <point x="244" y="485"/>
      <point x="233.33" y="559"/>
      <point x="212" y="639" type="curve"/>
      <point x="135" y="616" type="line"/>
      <point x="154.33" y="542.67"/>
      <point x="164" y="476.33"/>
      <point x="164" y="417" type="curve" smooth="yes"/>
      <point x="164" y="291.67"/>
      <point x="124.33" y="187.33"/>
    </contour>
    <contour>
      <point x="626" y="-81" type="curve"/>
      <point x="695" y="-41" type="line"/>
      <point x="643.67" y="55.67"/>
      <point x="618" y="152.33"/>
      <point x="618" y="249" type="curve" smooth="yes"/>
      <point x="618" y="329"/>
      <point x="636" y="414"/>
      <point x="672" y="504" type="curve"/>
      <point x="599" y="536" type="line"/>
      <point x="558.33" y="438"/>
      <point x="538" y="342.33"/>
      <point x="538" y="249" type="curve" smooth="yes"/>
      <point x="538" y="138.33"/>
      <point x="567.33" y="28.33"/>
    </contour>
    <contour>
      <point x="177" y="-63" type="curve"/>
      <point x="235" y="-120" type="line"/>
      <point x="313.67" y="-31.33"/>
      <point x="372" y="75"/>
      <point x="410" y="199" type="curve" smooth="yes"/>
      <point x="448" y="323"/>
      <point x="467" y="470"/>
      <point x="467" y="640" type="curve" smooth="yes"/>
      <point x="467" y="744"/>
      <point x="460" y="864"/>
      <point x="446" y="1000" type="curve"/>
      <point x="367" y="990" type="line"/>
      <point x="380.33" y="853.33"/>
      <point x="387" y="736.67"/>
      <point x="387" y="640" type="curve" smooth="yes"/>
      <point x="387" y="480"/>
      <point x="370" y="343"/>
      <point x="336" y="229" type="curve" smooth="yes"/>
      <point x="302" y="115"/>
      <point x="249" y="17.67"/>
    </contour>
  </outline>
</glyph>
<glyph name="u1B179" format="2">
  <advance width="740"/>
  <unicode hex="1B179"/>
  <note>
u1B179
</note>
  <outline>
    <contour>
      <point x="125" y="520" type="curve"/>
      <point x="156" y="443" type="line"/>
      <point x="416.67" y="555.67"/>
      <point x="571.67" y="736.67"/>
      <point x="621" y="986" type="curve"/>
      <point x="540" y="1000" type="line"/>
      <point x="495.33" y="782"/>
      <point x="357" y="622"/>
    </contour>
    <contour>
      <point x="119" y="250" type="curve"/>
      <point x="146" y="171" type="line"/>
      <point x="269.33" y="219"/>
      <point x="361" y="274.67"/>
      <point x="421" y="338" type="curve" smooth="yes"/>
      <point x="481" y="401.33"/>
      <point x="511" y="474.33"/>
      <point x="511" y="557" type="curve" smooth="yes"/>
      <point x="511" y="605"/>
      <point x="500" y="659.33"/>
      <point x="478" y="720" type="curve"/>
      <point x="404" y="689" type="line"/>
      <point x="421.33" y="641"/>
      <point x="430" y="598"/>
      <point x="430" y="560" type="curve" smooth="yes"/>
      <point x="430" y="496"/>
      <point x="404.83" y="438.83"/>
      <point x="354.5" y="388.5" type="curve" smooth="yes"/>
      <point x="304.17" y="338.17"/>
      <point x="225.67" y="292"/>
    </contour>
    <contour>
      <point x="316" y="-105" type="curve"/>
      <point x="399" y="-120" type="line"/>
      <point x="417" y="-37.33"/>
      <point x="426" y="52.67"/>
      <point x="426" y="150" type="curve" smooth="yes"/>
      <point x="426" y="220"/>
      <point x="421.67" y="285.67"/>
      <point x="413" y="347" type="curve"/>
      <point x="330" y="334" type="line"/>
      <point x="338" y="274"/>
      <point x="342" y="212.67"/>
      <point x="342" y="150" type="curve" smooth="yes"/>
      <point x="342" y="58.67"/>
      <point x="333.33" y="-26.33"/>
    </contour>
  </outline>
</glyph>
<glyph name="u1B17A" format="2">
  <advance width="740"/>
  <unicode hex="1B17A"/>
  <note>
u1B17A
</note>
  <outline>
    <contour>
      <point x="329" y="-86" type="curve"/>
      <point x="401" y="-120" type="line"/>
      <point x="439.67" y="-27.33"/>
      <point x="459" y="69"/>
      <point x="459" y="169" type="curve" smooth="yes"/>
      <point x="459" y="226.33"/>
      <point x="453" y="286"/>
      <point x="441" y="348" type="curve"/>
      <point x="364" y="332" type="line"/>
      <point x="374.67" y="271.33"/>
      <point x="380" y="217"/>
      <point x="380" y="169" type="curve" smooth="yes"/>
      <point x="380" y="80.33"/>
      <point x="363" y="-4.67"/>
    </contour>
    <contour>
      <point x="582" y="286" type="curve"/>
      <point x="653" y="321" type="line"/>
      <point x="595.67" y="431"/>
      <point x="527.67" y="530"/>
      <point x="449" y="618" type="curve" smooth="yes"/>
      <point x="383" y="691.33"/>
      <point x="296.67" y="775.33"/>
      <point x="190" y="870" type="curve"/>
      <point x="138" y="811" type="line"/>
      <point x="240.67" y="721"/>
      <point x="330.67" y="631"/>
      <point x="408" y="541" type="curve" smooth="yes"/>
      <point x="480" y="455"/>
      <point x="538" y="370"/>
    </contour>
    <contour>
      <point x="92" y="297" type="curve"/>
      <point x="136" y="231" type="line"/>
      <point x="271.33" y="330.33"/>
      <point x="375.67" y="442.33"/>
      <point x="449" y="567" type="curve" smooth="yes"/>
      <point x="522.33" y="691"/>
      <point x="567.67" y="833"/>
      <point x="585" y="993" type="curve"/>
      <point x="506" y="1000" type="line"/>
      <point x="489.33" y="850.67"/>
      <point x="447.67" y="719.67"/>
      <point x="381" y="607" type="curve" smooth="yes"/>
      <point x="313" y="493.67"/>
      <point x="216.67" y="390.33"/>
    </contour>
  </outline>
</glyph>
<glyph name="u1B17B" format="2">
  <advance width="740"/>
  <unicode hex="1B17B"/>
  <note>
u1B17B
</note>
  <outline>
    <contour>
      <point x="88" y="-61" type="curve"/>
      <point x="142" y="-120" type="line"/>
      <point x="278" y="14"/>
      <point x="389" y="159.33"/>
      <point x="475" y="316" type="curve"/>
      <point x="403" y="353" type="line"/>
      <point x="321.67" y="203.67"/>
      <point x="216.67" y="65.67"/>
    </contour>
    <contour>
      <point x="627" y="995" type="curve"/>
      <point x="547" y="1000" type="line"/>
      <point x="534.33" y="872.67"/>
      <point x="495.67" y="758.33"/>
      <point x="431" y="657" type="curve" smooth="yes"/>
      <point x="363.67" y="549.67"/>
      <point x="254.67" y="447.67"/>
      <point x="104" y="351" type="curve"/>
      <point x="146" y="283" type="line"/>
      <point x="307.33" y="386.33"/>
      <point x="425" y="497"/>
      <point x="499" y="615" type="curve" smooth="yes"/>
      <point x="570.33" y="726.33"/>
      <point x="613" y="853"/>
    </contour>
    <contour>
      <point x="305" y="816" type="line"/>
      <point x="230" y="788" type="line"/>
      <point x="517" y="0" type="line"/>
      <point x="592" y="27" type="line"/>
    </contour>
  </outline>
</glyph>
<glyph name="u1B17C" format="2">
  <advance width="740"/>
  <unicode hex="1B17C"/>
  <note>
u1B17C
</note>
  <outline>
    <contour>
      <point x="490" y="709" type="curve"/>
      <point x="438" y="615" type="line"/>
      <point x="456" y="545"/>
      <point x="465" y="481.67"/>
      <point x="465" y="425" type="curve" smooth="yes"/>
      <point x="465" y="318.33"/>
      <point x="434.83" y="229"/>
      <point x="374.5" y="157" type="curve" smooth="yes"/>
      <point x="314.17" y="85"/>
      <point x="215.67" y="16.33"/>
      <point x="79" y="-49" type="curve"/>
      <point x="116" y="-120" type="line"/>
      <point x="260" y="-53.33"/>
      <point x="367.33" y="24"/>
      <point x="438" y="112" type="curve" smooth="yes"/>
      <point x="508.67" y="200"/>
      <point x="544" y="303.67"/>
      <point x="544" y="423" type="curve" smooth="yes"/>
      <point x="544" y="509"/>
      <point x="526" y="604.33"/>
    </contour>
    <contour>
      <point x="609" y="982" type="curve"/>
      <point x="531" y="1000" type="line"/>
      <point x="504.33" y="890"/>
      <point x="468.33" y="790"/>
      <point x="423" y="700" type="curve" smooth="yes"/>
      <point x="363.67" y="582"/>
      <point x="283.67" y="473"/>
      <point x="183" y="373" type="curve"/>
      <point x="183" y="371" type="line"/>
      <point x="282.33" y="282.33"/>
      <point x="364.83" y="201.5"/>
      <point x="430.5" y="128.5" type="curve" smooth="yes"/>
      <point x="496.17" y="55.5"/>
      <point x="548.67" y="-17.33"/>
      <point x="588" y="-90" type="curve"/>
      <point x="659" y="-54" type="line"/>
      <point x="577" y="100"/>
      <point x="454.67" y="243"/>
      <point x="292" y="375" type="curve"/>
      <point x="382" y="476.33"/>
      <point x="449.67" y="572.67"/>
      <point x="495" y="664" type="curve" smooth="yes"/>
      <point x="545.67" y="768.67"/>
      <point x="583.67" y="874.67"/>
    </contour>
  </outline>
</glyph>
<glyph name="u1B17D" format="2">
  <advance width="740"/>
  <unicode hex="1B17D"/>
  <note>
u1B17D
</note>
  <outline>
    <contour>
      <point x="515" y="992" type="curve"/>
      <point x="434" y="1000" type="line"/>
      <point x="419.33" y="861.33"/>
      <point x="392.33" y="740.67"/>
      <point x="353" y="638" type="curve" smooth="yes"/>
      <point x="296.33" y="490"/>
      <point x="204.33" y="355.33"/>
      <point x="77" y="234" type="curve"/>
      <point x="132" y="174" type="line"/>
      <point x="269.33" y="304.67"/>
      <point x="368" y="449.67"/>
      <point x="428" y="609" type="curve" smooth="yes"/>
      <point x="472.67" y="724.33"/>
      <point x="501.67" y="852"/>
    </contour>
    <contour>
      <point x="416" y="659" type="curve"/>
      <point x="347" y="563" type="line"/>
      <point x="361" y="450.33"/>
      <point x="368" y="350"/>
      <point x="368" y="262" type="curve" smooth="yes"/>
      <point x="368" y="148.67"/>
      <point x="355" y="27"/>
      <point x="329" y="-103" type="curve"/>
      <point x="409" y="-120" type="line"/>
      <point x="436.33" y="17.33"/>
      <point x="450" y="144.67"/>
      <point x="450" y="262" type="curve" smooth="yes"/>
      <point x="450" y="374.67"/>
      <point x="438.67" y="507"/>
    </contour>
    <contour>
      <point x="581" y="267" type="curve" smooth="yes"/>
      <point x="581" y="251"/>
      <point x="586.33" y="237.17"/>
      <point x="597" y="225.5" type="curve" smooth="yes"/>
      <point x="607.67" y="213.83"/>
      <point x="620.67" y="208"/>
      <point x="636" y="208" type="curve" smooth="yes"/>
      <point x="652.67" y="208"/>
      <point x="666" y="213.67"/>
      <point x="676" y="225" type="curve" smooth="yes"/>
      <point x="686" y="236.33"/>
      <point x="691" y="250.33"/>
      <point x="691" y="267" type="curve" smooth="yes"/>
      <point x="691" y="284.33"/>
      <point x="686" y="298.67"/>
      <point x="676" y="310" type="curve" smooth="yes"/>
      <point x="666" y="321.33"/>
      <point x="652.67" y="327"/>
      <point x="636" y="327" type="curve" smooth="yes"/>
      <point x="620.67" y="327"/>
      <point x="607.67" y="321.17"/>
      <point x="597" y="309.5" type="curve" smooth="yes"/>
      <point x="586.33" y="297.83"/>
      <point x="581" y="283.67"/>
    </contour>
  </outline>
</glyph>
<glyph name="u1B17E" format="2">
  <advance width="740"/>
  <unicode hex="1B17E"/>
  <note>
u1B17E
</note>
  <outline>
    <contour>
      <point x="481" y="203" type="curve"/>
      <point x="565" y="197" type="line"/>
      <point x="567.67" y="215"/>
      <point x="569" y="241.33"/>
      <point x="569" y="276" type="curve" smooth="yes"/>
      <point x="569" y="352.67"/>
      <point x="557" y="429.67"/>
      <point x="533" y="507" type="curve" smooth="yes"/>
      <point x="509" y="584.33"/>
      <point x="475.33" y="654"/>
      <point x="432" y="716" type="curve"/>
      <point x="364" y="665" type="line"/>
      <point x="401.33" y="610.33"/>
      <point x="430.67" y="548.5"/>
      <point x="452" y="479.5" type="curve" smooth="yes"/>
      <point x="473.33" y="410.5"/>
      <point x="484" y="342"/>
      <point x="484" y="274" type="curve" smooth="yes"/>
      <point x="484" y="246"/>
      <point x="483" y="222.33"/>
    </contour>
    <contour>
      <point x="185" y="-84" type="curve"/>
      <point x="259" y="-120" type="line"/>
      <point x="305.67" y="-20.67"/>
      <point x="329" y="76"/>
      <point x="329" y="170" type="curve" smooth="yes"/>
      <point x="329" y="288.67"/>
      <point x="293.67" y="399.33"/>
      <point x="223" y="502" type="curve"/>
      <point x="215" y="459" type="line"/>
      <point x="299.67" y="518.33"/>
      <point x="371.67" y="589.83"/>
      <point x="431" y="673.5" type="curve" smooth="yes"/>
      <point x="490.33" y="757.17"/>
      <point x="540" y="858.33"/>
      <point x="580" y="977" type="curve"/>
      <point x="503" y="1000" type="line"/>
      <point x="465.67" y="887.33"/>
      <point x="416.83" y="790"/>
      <point x="356.5" y="708" type="curve" smooth="yes"/>
      <point x="296.17" y="626"/>
      <point x="220.67" y="554.67"/>
      <point x="130" y="494" type="curve"/>
      <point x="130" y="492" type="line"/>
      <point x="208" y="388"/>
      <point x="247" y="280.67"/>
      <point x="247" y="170" type="curve" smooth="yes"/>
      <point x="247" y="88.67"/>
      <point x="226.33" y="4"/>
    </contour>
  </outline>
</glyph>
<glyph name="u1B17F" format="2">
  <advance width="740"/>
  <unicode hex="1B17F"/>
  <note>
u1B17F
</note>
  <outline>
    <contour>
      <point x="125" y="-64" type="curve"/>
      <point x="187" y="-120" type="line"/>
      <point x="285" y="-6"/>
      <point x="353.33" y="113.17"/>
      <point x="392" y="237.5" type="curve" smooth="yes"/>
      <point x="430.67" y="361.83"/>
      <point x="450" y="522.33"/>
      <point x="450" y="719" type="curve" smooth="yes"/>
      <point x="450" y="802.33"/>
      <point x="446.67" y="896"/>
      <point x="440" y="1000" type="curve"/>
      <point x="357" y="995" type="line"/>
      <point x="363.67" y="892.33"/>
      <point x="367" y="800.33"/>
      <point x="367" y="719" type="curve" smooth="yes"/>
      <point x="367" y="532.33"/>
      <point x="349.33" y="381.67"/>
      <point x="314" y="267" type="curve" smooth="yes"/>
      <point x="278.67" y="152.33"/>
      <point x="215.67" y="42"/>
    </contour>
    <contour>
      <point x="45" y="333" type="curve" smooth="yes"/>
      <point x="45" y="316.33"/>
      <point x="50.33" y="302.17"/>
      <point x="61" y="290.5" type="curve" smooth="yes"/>
      <point x="71.67" y="278.83"/>
      <point x="85" y="273"/>
      <point x="101" y="273" type="curve" smooth="yes"/>
      <point x="118.33" y="273"/>
      <point x="132" y="278.67"/>
      <point x="142" y="290" type="curve" smooth="yes"/>
      <point x="152" y="301.33"/>
      <point x="157" y="315.67"/>
      <point x="157" y="333" type="curve" smooth="yes"/>
      <point x="157" y="351"/>
      <point x="152" y="365.67"/>
      <point x="142" y="377" type="curve" smooth="yes"/>
      <point x="132" y="388.33"/>
      <point x="118.33" y="394"/>
      <point x="101" y="394" type="curve" smooth="yes"/>
      <point x="85" y="394"/>
      <point x="71.67" y="388.17"/>
      <point x="61" y="376.5" type="curve" smooth="yes"/>
      <point x="50.33" y="364.83"/>
      <point x="45" y="350.33"/>
    </contour>
    <contour>
      <point x="583" y="335" type="curve" smooth="yes"/>
      <point x="583" y="318.33"/>
      <point x="588.33" y="304.17"/>
      <point x="599" y="292.5" type="curve" smooth="yes"/>
      <point x="609.67" y="280.83"/>
      <point x="623" y="275"/>
      <point x="639" y="275" type="curve" smooth="yes"/>
      <point x="656.33" y="275"/>
      <point x="670" y="280.67"/>
      <point x="680" y="292" type="curve" smooth="yes"/>
      <point x="690" y="303.33"/>
      <point x="695" y="317.67"/>
      <point x="695" y="335" type="curve" smooth="yes"/>
      <point x="695" y="353"/>
      <point x="690" y="367.67"/>
      <point x="680" y="379" type="curve" smooth="yes"/>
      <point x="670" y="390.33"/>
      <point x="656.33" y="396"/>
      <point x="639" y="396" type="curve" smooth="yes"/>
      <point x="623" y="396"/>
      <point x="609.67" y="390.17"/>
      <point x="599" y="378.5" type="curve" smooth="yes"/>
      <point x="588.33" y="366.83"/>
      <point x="583" y="352.33"/>
    </contour>
  </outline>
</glyph>
<glyph name="u1B180" format="2">
  <advance width="740"/>
  <unicode hex="1B180"/>
  <note>
u1B180
</note>
  <outline>
    <contour>
      <point x="210" y="733" type="line"/>
      <point x="135" y="706" type="line"/>
      <point x="368" y="66" type="line"/>
      <point x="443" y="93" type="line"/>
    </contour>
    <contour>
      <point x="600" y="218" type="curve"/>
      <point x="540" y="272" type="line"/>
      <point x="431.33" y="150.67"/>
      <point x="306.33" y="43"/>
      <point x="165" y="-51" type="curve"/>
      <point x="209" y="-120" type="line"/>
      <point x="353" y="-22.67"/>
      <point x="483.33" y="90"/>
    </contour>
    <contour>
      <point x="80" y="225" type="curve"/>
      <point x="123" y="156" type="line"/>
      <point x="273" y="258.67"/>
      <point x="385.33" y="376"/>
      <point x="460" y="508" type="curve" smooth="yes"/>
      <point x="536" y="640.67"/>
      <point x="579.67" y="803.33"/>
      <point x="591" y="996" type="curve"/>
      <point x="510" y="1000" type="line"/>
      <point x="499.33" y="822.67"/>
      <point x="459" y="672.33"/>
      <point x="389" y="549" type="curve" smooth="yes"/>
      <point x="321" y="427"/>
      <point x="218" y="319"/>
    </contour>
  </outline>
</glyph>
<glyph name="u1B181" format="2">
  <advance width="740"/>
  <unicode hex="1B181"/>
  <note>
u1B181
</note>
  <outline>
    <contour>
      <point x="613" y="980" type="curve"/>
      <point x="536" y="1000" type="line"/>
      <point x="499.33" y="887.33"/>
      <point x="450.83" y="788.33"/>
      <point x="390.5" y="703" type="curve" smooth="yes"/>
      <point x="330.17" y="617.67"/>
      <point x="242.33" y="523.67"/>
      <point x="127" y="421" type="curve"/>
      <point x="127" y="417" type="line"/>
      <point x="239.67" y="316.33"/>
      <point x="326.67" y="226.5"/>
      <point x="388" y="147.5" type="curve" smooth="yes"/>
      <point x="449.33" y="68.5"/>
      <point x="501.33" y="-20.67"/>
      <point x="544" y="-120" type="curve"/>
      <point x="617" y="-87" type="line"/>
      <point x="533.67" y="106.33"/>
      <point x="401" y="280.33"/>
      <point x="219" y="435" type="curve"/>
      <point x="215" y="399" type="line"/>
      <point x="313" y="479"/>
      <point x="394.17" y="566"/>
      <point x="458.5" y="660" type="curve" smooth="yes"/>
      <point x="522.83" y="754"/>
      <point x="574.33" y="860.67"/>
    </contour>
    <contour>
      <point x="126" y="20" type="curve"/>
      <point x="162" y="-51" type="line"/>
      <point x="280.67" y="-1"/>
      <point x="367.83" y="60.67"/>
      <point x="423.5" y="134" type="curve" smooth="yes"/>
      <point x="479.17" y="207.33"/>
      <point x="507" y="296.67"/>
      <point x="507" y="402" type="curve" smooth="yes"/>
      <point x="507" y="507.33"/>
      <point x="483.5" y="597.17"/>
      <point x="436.5" y="671.5" type="curve" smooth="yes"/>
      <point x="389.5" y="745.83"/>
      <point x="316.33" y="808.67"/>
      <point x="217" y="860" type="curve"/>
      <point x="177" y="796" type="line"/>
      <point x="262.33" y="746"/>
      <point x="325.17" y="689.17"/>
      <point x="365.5" y="625.5" type="curve" smooth="yes"/>
      <point x="405.83" y="561.83"/>
      <point x="426" y="487.33"/>
      <point x="426" y="402" type="curve" smooth="yes"/>
      <point x="426" y="315.33"/>
      <point x="401.67" y="241.17"/>
      <point x="353" y="179.5" type="curve" smooth="yes"/>
      <point x="304.33" y="117.83"/>
      <point x="228.67" y="64.67"/>
    </contour>
  </outline>
</glyph>
<glyph name="u1B182" format="2">
  <advance width="740"/>
  <unicode hex="1B182"/>
  <note>
u1B182
</note>
  <outline>
    <contour>
      <point x="222" y="733" type="line"/>
      <point x="148" y="706" type="line"/>
      <point x="449" y="-120" type="line"/>
      <point x="523" y="-93" type="line"/>
    </contour>
    <contour>
      <point x="510" y="769" type="curve"/>
      <point x="458" y="680" type="line"/>
      <point x="476" y="608.67"/>
      <point x="485" y="543"/>
      <point x="485" y="483" type="curve" smooth="yes"/>
      <point x="485" y="384.33"/>
      <point x="453.83" y="296.83"/>
      <point x="391.5" y="220.5" type="curve" smooth="yes"/>
      <point x="329.17" y="144.17"/>
      <point x="232" y="74.33"/>
      <point x="100" y="11" type="curve"/>
      <point x="133" y="-61" type="line"/>
      <point x="281" y="7.67"/>
      <point x="389.83" y="86"/>
      <point x="459.5" y="174" type="curve" smooth="yes"/>
      <point x="529.17" y="262"/>
      <point x="564" y="365.33"/>
      <point x="564" y="484" type="curve" smooth="yes"/>
      <point x="564" y="568.67"/>
      <point x="546" y="663.67"/>
    </contour>
    <contour>
      <point x="258" y="442" type="curve"/>
      <point x="314" y="389" type="line"/>
      <point x="396.67" y="483.67"/>
      <point x="460.33" y="575.33"/>
      <point x="505" y="664" type="curve" smooth="yes"/>
      <point x="555.67" y="768"/>
      <point x="594" y="875.67"/>
      <point x="620" y="987" type="curve"/>
      <point x="541" y="1000" type="line"/>
      <point x="514.33" y="890"/>
      <point x="478.33" y="790"/>
      <point x="433" y="700" type="curve" smooth="yes"/>
      <point x="390.33" y="613.33"/>
      <point x="332" y="527.33"/>
    </contour>
  </outline>
</glyph>
<glyph name="u1B183" format="2">
  <advance width="740"/>
  <unicode hex="1B183"/>
  <note>
u1B183
</note>
  <outline>
    <contour>
      <point x="163" y="-53" type="curve"/>
      <point x="208" y="-120" type="line"/>
      <point x="359.33" y="-15.33"/>
      <point x="501" y="114.33"/>
      <point x="633" y="269" type="curve"/>
      <point x="571" y="320" type="line"/>
      <point x="441.67" y="168.67"/>
      <point x="305.67" y="44.33"/>
    </contour>
    <contour>
      <point x="575" y="997" type="curve"/>
      <point x="494" y="1000" type="line"/>
      <point x="480.67" y="845.33"/>
      <point x="441.33" y="710"/>
      <point x="376" y="594" type="curve" smooth="yes"/>
      <point x="308" y="472"/>
      <point x="205" y="364"/>
      <point x="67" y="270" type="curve"/>
      <point x="110" y="201" type="line"/>
      <point x="260" y="303.67"/>
      <point x="372.33" y="421"/>
      <point x="447" y="553" type="curve" smooth="yes"/>
      <point x="517" y="675.67"/>
      <point x="559.67" y="823.67"/>
    </contour>
    <contour>
      <point x="313" y="460" type="line"/>
      <point x="252" y="391" type="line"/>
      <point x="367" y="76" type="line"/>
      <point x="443" y="103" type="line"/>
    </contour>
  </outline>
</glyph>
<glyph name="u1B184" format="2">
  <advance width="740"/>
  <unicode hex="1B184"/>
  <note>
u1B184
</note>
  <outline>
    <contour>
      <point x="559" y="984" type="curve"/>
      <point x="479" y="1000" type="line"/>
      <point x="414.33" y="730"/>
      <point x="294.67" y="506.67"/>
      <point x="120" y="330" type="curve"/>
      <point x="177" y="271" type="line"/>
      <point x="269" y="363.67"/>
      <point x="348" y="472.17"/>
      <point x="414" y="596.5" type="curve" smooth="yes"/>
      <point x="480" y="720.83"/>
      <point x="528.33" y="850"/>
    </contour>
    <contour>
      <point x="220" y="157" type="curve" smooth="yes"/>
      <point x="220" y="141"/>
      <point x="225.33" y="127.17"/>
      <point x="236" y="115.5" type="curve" smooth="yes"/>
      <point x="246.67" y="103.83"/>
      <point x="259.67" y="98"/>
      <point x="275" y="98" type="curve" smooth="yes"/>
      <point x="291.67" y="98"/>
      <point x="305" y="103.67"/>
      <point x="315" y="115" type="curve" smooth="yes"/>
      <point x="325" y="126.33"/>
      <point x="330" y="140.33"/>
      <point x="330" y="157" type="curve" smooth="yes"/>
      <point x="330" y="174.33"/>
      <point x="325" y="188.67"/>
      <point x="315" y="200" type="curve" smooth="yes"/>
      <point x="305" y="211.33"/>
      <point x="291.67" y="217"/>
      <point x="275" y="217" type="curve" smooth="yes"/>
      <point x="259.67" y="217"/>
      <point x="246.67" y="211.17"/>
      <point x="236" y="199.5" type="curve" smooth="yes"/>
      <point x="225.33" y="187.83"/>
      <point x="220" y="173.67"/>
    </contour>
    <contour>
      <point x="311" y="-65" type="curve"/>
      <point x="368" y="-120" type="line"/>
      <point x="436" y="-52.67"/>
      <point x="488" y="22.33"/>
      <point x="524" y="105" type="curve" smooth="yes"/>
      <point x="560" y="187.67"/>
      <point x="578" y="273.33"/>
      <point x="578" y="362" type="curve" smooth="yes"/>
      <point x="578" y="497.33"/>
      <point x="540" y="626"/>
      <point x="464" y="748" type="curve"/>
      <point x="398" y="700" type="line"/>
      <point x="464" y="591.33"/>
      <point x="497" y="478.33"/>
      <point x="497" y="361" type="curve" smooth="yes"/>
      <point x="497" y="197.67"/>
      <point x="435" y="55.67"/>
    </contour>
  </outline>
</glyph>
<glyph name="u1B185" format="2">
  <advance width="740"/>
  <unicode hex="1B185"/>
  <note>
u1B185
</note>
  <outline>
    <contour>
      <point x="77" y="339" type="curve"/>
      <point x="127" y="277" type="line"/>
      <point x="237.67" y="365.67"/>
      <point x="316.33" y="471.67"/>
      <point x="363" y="595" type="curve" smooth="yes"/>
      <point x="402.33" y="699.67"/>
      <point x="423.33" y="834.33"/>
      <point x="426" y="999" type="curve"/>
      <point x="345" y="1000" type="line"/>
      <point x="342.33" y="845.33"/>
      <point x="323.33" y="719.67"/>
      <point x="288" y="623" type="curve" smooth="yes"/>
      <point x="247.33" y="516.33"/>
      <point x="177" y="421.67"/>
    </contour>
    <contour>
      <point x="310" y="-99" type="curve"/>
      <point x="389" y="-120" type="line"/>
      <point x="409.67" y="-24.67"/>
      <point x="420" y="75.33"/>
      <point x="420" y="180" type="curve" smooth="yes"/>
      <point x="420" y="253.33"/>
      <point x="415.67" y="322.33"/>
      <point x="407" y="387" type="curve"/>
      <point x="327" y="374" type="line"/>
      <point x="335" y="311.33"/>
      <point x="339" y="246.67"/>
      <point x="339" y="180" type="curve" smooth="yes"/>
      <point x="339" y="80.67"/>
      <point x="329.33" y="-12.33"/>
    </contour>
    <contour>
      <point x="597" y="314" type="curve"/>
      <point x="665" y="359" type="line"/>
      <point x="584.33" y="480.33"/>
      <point x="486.33" y="597.67"/>
      <point x="371" y="711" type="curve"/>
      <point x="316" y="651" type="line"/>
      <point x="410.67" y="561.67"/>
      <point x="504.33" y="449.33"/>
    </contour>
  </outline>
</glyph>
<glyph name="u1B186" format="2">
  <advance width="740"/>
  <unicode hex="1B186"/>
  <note>
u1B186
</note>
  <outline>
    <contour>
      <point x="606" y="995" type="curve"/>
      <point x="526" y="1000" type="line"/>
      <point x="511.33" y="840"/>
      <point x="469.33" y="700.33"/>
      <point x="400" y="581" type="curve" smooth="yes"/>
      <point x="358.67" y="507.67"/>
      <point x="305.33" y="440"/>
      <point x="240" y="378" type="curve"/>
      <point x="240" y="271" type="line"/>
      <point x="334.67" y="351"/>
      <point x="411.33" y="441"/>
      <point x="470" y="541" type="curve" smooth="yes"/>
      <point x="544.67" y="670.33"/>
      <point x="590" y="821.67"/>
    </contour>
    <contour>
      <point x="88" y="-81" type="curve"/>
      <point x="157" y="-120" type="line"/>
      <point x="250.33" y="52"/>
      <point x="297" y="221.33"/>
      <point x="297" y="388" type="curve" smooth="yes"/>
      <point x="297" y="525.33"/>
      <point x="264.67" y="670.67"/>
      <point x="200" y="824" type="curve"/>
      <point x="127" y="792" type="line"/>
      <point x="187" y="649.33"/>
      <point x="217" y="514.67"/>
      <point x="217" y="388" type="curve" smooth="yes"/>
      <point x="217" y="236.67"/>
      <point x="174" y="80.33"/>
    </contour>
    <contour>
      <point x="629" y="31" type="line"/>
      <point x="454" y="571" type="line"/>
      <point x="396" y="491" type="line"/>
      <point x="553" y="6" type="line"/>
    </contour>
  </outline>
</glyph>
<glyph name="u1B187" format="2">
  <advance width="740"/>
  <unicode hex="1B187"/>
  <note>
u1B187
</note>
  <outline>
    <contour>
      <point x="608" y="992" type="curve"/>
      <point x="530" y="1000" type="line"/>
      <point x="514" y="870.67"/>
      <point x="470.67" y="755.67"/>
      <point x="400" y="655" type="curve" smooth="yes"/>
      <point x="340" y="569.67"/>
      <point x="241.33" y="483.67"/>
      <point x="104" y="397" type="curve"/>
      <point x="144" y="330" type="line"/>
      <point x="290" y="421.33"/>
      <point x="396.67" y="515"/>
      <point x="464" y="611" type="curve" smooth="yes"/>
      <point x="542" y="720.33"/>
      <point x="590" y="847.33"/>
    </contour>
    <contour>
      <point x="120" y="153" type="curve"/>
      <point x="158" y="85" type="line"/>
      <point x="254" y="141"/>
      <point x="341.33" y="201.33"/>
      <point x="420" y="266" type="curve" smooth="yes"/>
      <point x="498" y="330"/>
      <point x="564.67" y="399.33"/>
      <point x="620" y="474" type="curve"/>
      <point x="555" y="519" type="line"/>
      <point x="505" y="449.67"/>
      <point x="443.33" y="385.33"/>
      <point x="370" y="326" type="curve" smooth="yes"/>
      <point x="296.67" y="265.33"/>
      <point x="213.33" y="207.67"/>
    </contour>
    <contour>
      <point x="286" y="-91" type="curve"/>
      <point x="359" y="-120" type="line"/>
      <point x="402.33" y="0"/>
      <point x="424" y="119"/>
      <point x="424" y="237" type="curve" smooth="yes"/>
      <point x="424" y="405"/>
      <point x="365.67" y="613.33"/>
      <point x="249" y="862" type="curve"/>
      <point x="178" y="825" type="line"/>
      <point x="289.33" y="589"/>
      <point x="345" y="393"/>
      <point x="345" y="237" type="curve" smooth="yes"/>
      <point x="345" y="126.33"/>
      <point x="325.33" y="17"/>
    </contour>
  </outline>
</glyph>
<glyph name="u1B188" format="2">
  <advance width="740"/>
  <unicode hex="1B188"/>
  <note>
u1B188
</note>
  <outline>
    <contour>
      <point x="383" y="-112" type="line"/>
      <point x="460" y="-120" type="line"/>
      <point x="514.67" y="-12"/>
      <point x="556.83" y="122.83"/>
      <point x="586.5" y="284.5" type="curve" smooth="yes"/>
      <point x="616.17" y="446.17"/>
      <point x="631" y="622.33"/>
      <point x="631" y="813" type="curve" smooth="yes"/>
      <point x="631" y="871"/>
      <point x="629.33" y="933.33"/>
      <point x="626" y="1000" type="curve"/>
      <point x="542" y="995" type="line"/>
      <point x="544.67" y="943.67"/>
      <point x="546" y="883"/>
      <point x="546" y="813" type="curve" smooth="yes"/>
      <point x="546" y="470.33"/>
      <point x="501.33" y="189.67"/>
      <point x="412" y="-29" type="curve"/>
      <point x="444" y="-30" type="line"/>
      <point x="245" y="517" type="line"/>
      <point x="164" y="489" type="line"/>
    </contour>
    <contour>
      <point x="44" y="44" type="curve" smooth="yes"/>
      <point x="44" y="27.33"/>
      <point x="49.33" y="13.17"/>
      <point x="60" y="1.5" type="curve" smooth="yes"/>
      <point x="70.67" y="-10.17"/>
      <point x="84" y="-16"/>
      <point x="100" y="-16" type="curve" smooth="yes"/>
      <point x="117.33" y="-16"/>
      <point x="131" y="-10.33"/>
      <point x="141" y="1" type="curve" smooth="yes"/>
      <point x="151" y="12.33"/>
      <point x="156" y="26.67"/>
      <point x="156" y="44" type="curve" smooth="yes"/>
      <point x="156" y="62"/>
      <point x="151" y="76.67"/>
      <point x="141" y="88" type="curve" smooth="yes"/>
      <point x="131" y="99.33"/>
      <point x="117.33" y="105"/>
      <point x="100" y="105" type="curve" smooth="yes"/>
      <point x="84" y="105"/>
      <point x="70.67" y="99.17"/>
      <point x="60" y="87.5" type="curve" smooth="yes"/>
      <point x="49.33" y="75.83"/>
      <point x="44" y="61.33"/>
    </contour>
  </outline>
</glyph>
<glyph name="u1B189" format="2">
  <advance width="740"/>
  <unicode hex="1B189"/>
  <note>
u1B189
</note>
  <outline>
    <contour>
      <point x="352" y="589" type="curve"/>
      <point x="287" y="535" type="line"/>
      <point x="325.67" y="408.33"/>
      <point x="345" y="295.67"/>
      <point x="345" y="197" type="curve" smooth="yes"/>
      <point x="345" y="100.33"/>
      <point x="325.33" y="4.33"/>
      <point x="286" y="-91" type="curve"/>
      <point x="359" y="-120" type="line"/>
      <point x="402.33" y="-13.33"/>
      <point x="424" y="92.33"/>
      <point x="424" y="197" type="curve" smooth="yes"/>
      <point x="424" y="309.67"/>
      <point x="400" y="440.33"/>
    </contour>
    <contour>
      <point x="601" y="987" type="curve"/>
      <point x="523" y="1000" type="line"/>
      <point x="499" y="881.33"/>
      <point x="453.5" y="777.67"/>
      <point x="386.5" y="689" type="curve" smooth="yes"/>
      <point x="319.5" y="600.33"/>
      <point x="225.33" y="519"/>
      <point x="104" y="445" type="curve"/>
      <point x="144" y="377" type="line"/>
      <point x="275.33" y="457"/>
      <point x="377.83" y="546"/>
      <point x="451.5" y="644" type="curve" smooth="yes"/>
      <point x="525.17" y="742"/>
      <point x="575" y="856.33"/>
    </contour>
    <contour>
      <point x="120" y="178" type="curve"/>
      <point x="160" y="105" type="line"/>
      <point x="359.33" y="224.33"/>
      <point x="513" y="352.67"/>
      <point x="621" y="490" type="curve"/>
      <point x="558" y="537" type="line"/>
      <point x="454.67" y="409"/>
      <point x="308.67" y="289.33"/>
    </contour>
  </outline>
</glyph>
<glyph name="u1B18A" format="2">
  <advance width="740"/>
  <unicode hex="1B18A"/>
  <note>
u1B18A
</note>
  <outline>
    <contour>
      <point x="622" y="989" type="curve"/>
      <point x="543" y="1000" type="line"/>
      <point x="527" y="912.67"/>
      <point x="497" y="830.67"/>
      <point x="453" y="754" type="curve" smooth="yes"/>
      <point x="391.67" y="648.67"/>
      <point x="297.67" y="548"/>
      <point x="171" y="452" type="curve"/>
      <point x="218" y="387" type="line"/>
      <point x="353.33" y="489"/>
      <point x="455" y="598"/>
      <point x="523" y="714" type="curve" smooth="yes"/>
      <point x="571.67" y="800"/>
      <point x="604.67" y="891.67"/>
    </contour>
    <contour>
      <point x="189" y="224" type="curve"/>
      <point x="233" y="158" type="line"/>
      <point x="297.67" y="201.33"/>
      <point x="359.33" y="250.83"/>
      <point x="418" y="306.5" type="curve" smooth="yes"/>
      <point x="476.67" y="362.17"/>
      <point x="526" y="418.33"/>
      <point x="566" y="475" type="curve"/>
      <point x="499" y="518" type="line"/>
      <point x="462.33" y="466.67"/>
      <point x="416.5" y="415"/>
      <point x="361.5" y="363" type="curve" smooth="yes"/>
      <point x="306.5" y="311"/>
      <point x="249" y="264.67"/>
    </contour>
    <contour>
      <point x="579" y="209" type="curve"/>
      <point x="518" y="261" type="line"/>
      <point x="472" y="209"/>
      <point x="414" y="155.5"/>
      <point x="344" y="100.5" type="curve" smooth="yes"/>
      <point x="274" y="45.5"/>
      <point x="199.33" y="-5"/>
      <point x="120" y="-51" type="curve"/>
      <point x="160" y="-120" type="line"/>
      <point x="238" y="-78.67"/>
      <point x="313.83" y="-29"/>
      <point x="387.5" y="29" type="curve" smooth="yes"/>
      <point x="461.17" y="87"/>
      <point x="525" y="147"/>
    </contour>
  </outline>
</glyph>
<glyph name="u1B18B" format="2">
  <advance width="740"/>
  <unicode hex="1B18B"/>
  <note>
u1B18B
</note>
  <outline>
    <contour>
      <point x="506" y="14" type="curve"/>
      <point x="585" y="0" type="line"/>
      <point x="593" y="44"/>
      <point x="597" y="86.67"/>
      <point x="597" y="128" type="curve" smooth="yes"/>
      <point x="597" y="246.67"/>
      <point x="561.33" y="359.67"/>
      <point x="490" y="467" type="curve"/>
      <point x="553.33" y="565"/>
      <point x="589.33" y="699.33"/>
      <point x="598" y="870" type="curve"/>
      <point x="518" y="873" type="line"/>
      <point x="514" y="784.33"/>
      <point x="502.33" y="708.67"/>
      <point x="483" y="646" type="curve" smooth="yes"/>
      <point x="463.67" y="583.33"/>
      <point x="433.33" y="523"/>
      <point x="392" y="465" type="curve"/>
      <point x="392" y="461" type="line"/>
      <point x="475.33" y="359"/>
      <point x="517" y="249.67"/>
      <point x="517" y="133" type="curve" smooth="yes"/>
      <point x="517" y="99"/>
      <point x="513.33" y="59.33"/>
    </contour>
    <contour>
      <point x="249" y="-98" type="curve"/>
      <point x="326" y="-120" type="line"/>
      <point x="350" y="-43"/>
      <point x="362" y="30"/>
      <point x="362" y="99" type="curve" smooth="yes"/>
      <point x="362" y="227.67"/>
      <point x="318" y="350.33"/>
      <point x="230" y="467" type="curve"/>
      <point x="321.33" y="593.67"/>
      <point x="368" y="771.33"/>
      <point x="370" y="1000" type="curve"/>
      <point x="290" y="998" type="line"/>
      <point x="288.67" y="765.33"/>
      <point x="234" y="587.67"/>
      <point x="126" y="465" type="curve"/>
      <point x="126" y="461" type="line"/>
      <point x="230" y="357"/>
      <point x="282" y="234.67"/>
      <point x="282" y="94" type="curve" smooth="yes"/>
      <point x="282" y="34"/>
      <point x="271" y="-30"/>
    </contour>
  </outline>
</glyph>
<glyph name="u1B18C" format="2">
  <advance width="740"/>
  <unicode hex="1B18C"/>
  <note>
u1B18C
</note>
  <outline>
    <contour>
      <point x="114" y="-77" type="curve"/>
      <point x="181" y="-120" type="line"/>
      <point x="281.67" y="44"/>
      <point x="332" y="209"/>
      <point x="332" y="375" type="curve" smooth="yes"/>
      <point x="332" y="521.67"/>
      <point x="290" y="672"/>
      <point x="206" y="826" type="curve"/>
      <point x="137" y="787" type="line"/>
      <point x="213.67" y="643.67"/>
      <point x="252" y="506.33"/>
      <point x="252" y="375" type="curve" smooth="yes"/>
      <point x="252" y="225.67"/>
      <point x="206" y="75"/>
    </contour>
    <contour>
      <point x="564" y="77" type="curve"/>
      <point x="632" y="118" type="line"/>
      <point x="544.67" y="270.67"/>
      <point x="501" y="421.67"/>
      <point x="501" y="571" type="curve" smooth="yes"/>
      <point x="501" y="699"/>
      <point x="533.33" y="830"/>
      <point x="598" y="964" type="curve"/>
      <point x="526" y="1000" type="line"/>
      <point x="456" y="853.33"/>
      <point x="421" y="710.33"/>
      <point x="421" y="571" type="curve" smooth="yes"/>
      <point x="421" y="407"/>
      <point x="468.67" y="242.33"/>
    </contour>
    <contour>
      <point x="44" y="372" type="curve" smooth="yes"/>
      <point x="44" y="355.33"/>
      <point x="49.33" y="341.17"/>
      <point x="60" y="329.5" type="curve" smooth="yes"/>
      <point x="70.67" y="317.83"/>
      <point x="84" y="312"/>
      <point x="100" y="312" type="curve" smooth="yes"/>
      <point x="117.33" y="312"/>
      <point x="131" y="317.67"/>
      <point x="141" y="329" type="curve" smooth="yes"/>
      <point x="151" y="340.33"/>
      <point x="156" y="354.67"/>
      <point x="156" y="372" type="curve" smooth="yes"/>
      <point x="156" y="390"/>
      <point x="151" y="404.67"/>
      <point x="141" y="416" type="curve" smooth="yes"/>
      <point x="131" y="427.33"/>
      <point x="117.33" y="433"/>
      <point x="100" y="433" type="curve" smooth="yes"/>
      <point x="84" y="433"/>
      <point x="70.67" y="427.17"/>
      <point x="60" y="415.5" type="curve" smooth="yes"/>
      <point x="49.33" y="403.83"/>
      <point x="44" y="389.33"/>
    </contour>
    <contour>
      <point x="584" y="525" type="curve" smooth="yes"/>
      <point x="584" y="508.33"/>
      <point x="589.33" y="494.17"/>
      <point x="600" y="482.5" type="curve" smooth="yes"/>
      <point x="610.67" y="470.83"/>
      <point x="624" y="465"/>
      <point x="640" y="465" type="curve" smooth="yes"/>
      <point x="657.33" y="465"/>
      <point x="671" y="470.67"/>
      <point x="681" y="482" type="curve" smooth="yes"/>
      <point x="691" y="493.33"/>
      <point x="696" y="507.67"/>
      <point x="696" y="525" type="curve" smooth="yes"/>
      <point x="696" y="543"/>
      <point x="691" y="557.67"/>
      <point x="681" y="569" type="curve" smooth="yes"/>
      <point x="671" y="580.33"/>
      <point x="657.33" y="586"/>
      <point x="640" y="586" type="curve" smooth="yes"/>
      <point x="624" y="586"/>
      <point x="610.67" y="580.17"/>
      <point x="600" y="568.5" type="curve" smooth="yes"/>
      <point x="589.33" y="556.83"/>
      <point x="584" y="542.33"/>
    </contour>
  </outline>
</glyph>
<glyph name="u1B18D" format="2">
  <advance width="740"/>
  <unicode hex="1B18D"/>
  <note>
u1B18D
</note>
  <outline>
    <contour>
      <point x="504" y="143" type="curve"/>
      <point x="586" y="177" type="line"/>
      <point x="592.67" y="223.67"/>
      <point x="596" y="265"/>
      <point x="596" y="301" type="curve" smooth="yes"/>
      <point x="596" y="455.67"/>
      <point x="546.33" y="606"/>
      <point x="447" y="752" type="curve"/>
      <point x="383" y="705" type="line"/>
      <point x="475.67" y="571.67"/>
      <point x="522" y="435.33"/>
      <point x="522" y="296" type="curve" smooth="yes"/>
      <point x="522" y="274.67"/>
      <point x="521" y="253.67"/>
      <point x="519" y="233" type="curve"/>
      <point x="472.33" y="291"/>
      <point x="434.33" y="364.67"/>
      <point x="405" y="454" type="curve"/>
      <point x="329" y="431" type="line"/>
      <point x="370.33" y="310.33"/>
      <point x="428.67" y="214.33"/>
    </contour>
    <contour>
      <point x="175" y="-84" type="curve"/>
      <point x="247" y="-120" type="line"/>
      <point x="293.67" y="-20.67"/>
      <point x="317" y="76"/>
      <point x="317" y="170" type="curve" smooth="yes"/>
      <point x="317" y="288.67"/>
      <point x="281.67" y="399.33"/>
      <point x="211" y="502" type="curve"/>
      <point x="205" y="459" type="line"/>
      <point x="289.67" y="518.33"/>
      <point x="361.67" y="589.83"/>
      <point x="421" y="673.5" type="curve" smooth="yes"/>
      <point x="480.33" y="757.17"/>
      <point x="530" y="858.33"/>
      <point x="570" y="977" type="curve"/>
      <point x="493" y="1000" type="line"/>
      <point x="455.67" y="887.33"/>
      <point x="406.83" y="790"/>
      <point x="346.5" y="708" type="curve" smooth="yes"/>
      <point x="286.17" y="626"/>
      <point x="210.67" y="554.67"/>
      <point x="120" y="494" type="curve"/>
      <point x="120" y="492" type="line"/>
      <point x="198" y="388"/>
      <point x="237" y="280.67"/>
      <point x="237" y="170" type="curve" smooth="yes"/>
      <point x="237" y="88.67"/>
      <point x="216.33" y="4"/>
    </contour>
  </outline>
</glyph>
<glyph name="u1B18E" format="2">
  <advance width="740"/>
  <unicode hex="1B18E"/>
  <note>
u1B18E
</note>
  <outline>
    <contour>
      <point x="612" y="993" type="curve"/>
      <point x="532" y="1000" type="line"/>
      <point x="517.33" y="906.67"/>
      <point x="481.67" y="815"/>
      <point x="425" y="725" type="curve" smooth="yes"/>
      <point x="345.67" y="598.33"/>
      <point x="232.67" y="492"/>
      <point x="86" y="406" type="curve"/>
      <point x="126" y="335" type="line"/>
      <point x="283.33" y="429"/>
      <point x="405.67" y="544.67"/>
      <point x="493" y="682" type="curve" smooth="yes"/>
      <point x="555" y="778.67"/>
      <point x="594.67" y="882.33"/>
    </contour>
    <contour>
      <point x="75" y="0" type="curve"/>
      <point x="131" y="-58" type="line"/>
      <point x="198.33" y="8"/>
      <point x="262.33" y="82"/>
      <point x="323" y="164" type="curve" smooth="yes"/>
      <point x="375" y="234"/>
      <point x="421.67" y="307.33"/>
      <point x="463" y="384" type="curve"/>
      <point x="391" y="421" type="line"/>
      <point x="353" y="350.33"/>
      <point x="308.67" y="280.67"/>
      <point x="258" y="212" type="curve" smooth="yes"/>
      <point x="202" y="136"/>
      <point x="141" y="65.33"/>
    </contour>
    <contour>
      <point x="334" y="-61" type="curve" smooth="yes"/>
      <point x="334" y="-77"/>
      <point x="339.33" y="-90.83"/>
      <point x="350" y="-102.5" type="curve" smooth="yes"/>
      <point x="360.67" y="-114.17"/>
      <point x="373.67" y="-120"/>
      <point x="389" y="-120" type="curve" smooth="yes"/>
      <point x="405.67" y="-120"/>
      <point x="419" y="-114.33"/>
      <point x="429" y="-103" type="curve" smooth="yes"/>
      <point x="439" y="-91.67"/>
      <point x="444" y="-77.67"/>
      <point x="444" y="-61" type="curve" smooth="yes"/>
      <point x="444" y="-43.67"/>
      <point x="439" y="-29.33"/>
      <point x="429" y="-18" type="curve" smooth="yes"/>
      <point x="419" y="-6.67"/>
      <point x="405.67" y="-1"/>
      <point x="389" y="-1" type="curve" smooth="yes"/>
      <point x="373.67" y="-1"/>
      <point x="360.67" y="-6.83"/>
      <point x="350" y="-18.5" type="curve" smooth="yes"/>
      <point x="339.33" y="-30.17"/>
      <point x="334" y="-44.33"/>
    </contour>
    <contour>
      <point x="296" y="876" type="line"/>
      <point x="220" y="848" type="line"/>
      <point x="507" y="60" type="line"/>
      <point x="583" y="87" type="line"/>
    </contour>
  </outline>
</glyph>
<glyph name="u1B18F" format="2">
  <advance width="740"/>
  <unicode hex="1B18F"/>
  <note>
u1B18F
</note>
  <outline>
    <contour>
      <point x="46" y="337" type="curve" smooth="yes"/>
      <point x="46" y="321"/>
      <point x="51.33" y="307.17"/>
      <point x="62" y="295.5" type="curve" smooth="yes"/>
      <point x="72.67" y="283.83"/>
      <point x="85.67" y="278"/>
      <point x="101" y="278" type="curve" smooth="yes"/>
      <point x="117.67" y="278"/>
      <point x="131" y="283.67"/>
      <point x="141" y="295" type="curve" smooth="yes"/>
      <point x="151" y="306.33"/>
      <point x="156" y="320.33"/>
      <point x="156" y="337" type="curve" smooth="yes"/>
      <point x="156" y="354.33"/>
      <point x="151" y="368.67"/>
      <point x="141" y="380" type="curve" smooth="yes"/>
      <point x="131" y="391.33"/>
      <point x="117.67" y="397"/>
      <point x="101" y="397" type="curve" smooth="yes"/>
      <point x="85.67" y="397"/>
      <point x="72.67" y="391.17"/>
      <point x="62" y="379.5" type="curve" smooth="yes"/>
      <point x="51.33" y="367.83"/>
      <point x="46" y="353.67"/>
    </contour>
    <contour>
      <point x="29" y="-63" type="curve"/>
      <point x="85" y="-120" type="line"/>
      <point x="171" y="-31.33"/>
      <point x="241.17" y="53"/>
      <point x="295.5" y="133" type="curve" smooth="yes"/>
      <point x="349.83" y="213"/>
      <point x="393.67" y="297"/>
      <point x="427" y="385" type="curve" smooth="yes"/>
      <point x="487.67" y="542.33"/>
      <point x="526" y="745.67"/>
      <point x="542" y="995" type="curve"/>
      <point x="463" y="1000" type="line"/>
      <point x="446.33" y="758.67"/>
      <point x="409.67" y="563"/>
      <point x="353" y="413" type="curve" smooth="yes"/>
      <point x="321" y="330.33"/>
      <point x="279.5" y="251.5"/>
      <point x="228.5" y="176.5" type="curve" smooth="yes"/>
      <point x="177.5" y="101.5"/>
      <point x="111" y="21.67"/>
    </contour>
    <contour>
      <point x="161" y="742" type="curve"/>
      <point x="101" y="689" type="line"/>
      <point x="198.33" y="578.33"/>
      <point x="286" y="457.33"/>
      <point x="364" y="326" type="curve" smooth="yes"/>
      <point x="427.33" y="218.67"/>
      <point x="482" y="110"/>
      <point x="528" y="0" type="curve"/>
      <point x="603" y="29" type="line"/>
      <point x="553" y="147.67"/>
      <point x="496" y="260.67"/>
      <point x="432" y="368" type="curve" smooth="yes"/>
      <point x="351.33" y="506"/>
      <point x="261" y="630.67"/>
    </contour>
    <contour>
      <point x="584" y="425" type="curve" smooth="yes"/>
      <point x="584" y="409"/>
      <point x="589.33" y="395.17"/>
      <point x="600" y="383.5" type="curve" smooth="yes"/>
      <point x="610.67" y="371.83"/>
      <point x="623.67" y="366"/>
      <point x="639" y="366" type="curve" smooth="yes"/>
      <point x="655.67" y="366"/>
      <point x="669" y="371.67"/>
      <point x="679" y="383" type="curve" smooth="yes"/>
      <point x="689" y="394.33"/>
      <point x="694" y="408.33"/>
      <point x="694" y="425" type="curve" smooth="yes"/>
      <point x="694" y="442.33"/>
      <point x="689" y="456.67"/>
      <point x="679" y="468" type="curve" smooth="yes"/>
      <point x="669" y="479.33"/>
      <point x="655.67" y="485"/>
      <point x="639" y="485" type="curve" smooth="yes"/>
      <point x="623.67" y="485"/>
      <point x="610.67" y="479.17"/>
      <point x="600" y="467.5" type="curve" smooth="yes"/>
      <point x="589.33" y="455.83"/>
      <point x="584" y="441.67"/>
    </contour>
  </outline>
</glyph>
<glyph name="u1B190" format="2">
  <advance width="740"/>
  <unicode hex="1B190"/>
  <note>
u1B190
</note>
  <outline>
    <contour>
      <point x="588" y="200" type="curve"/>
      <point x="653" y="246" type="line"/>
      <point x="561" y="379.33"/>
      <point x="515" y="508.33"/>
      <point x="515" y="633" type="curve" smooth="yes"/>
      <point x="515" y="733.67"/>
      <point x="543.33" y="842.67"/>
      <point x="600" y="960" type="curve"/>
      <point x="531" y="1000" type="line"/>
      <point x="467" y="870.67"/>
      <point x="435" y="748.33"/>
      <point x="435" y="633" type="curve" smooth="yes"/>
      <point x="435" y="491"/>
      <point x="486" y="346.67"/>
    </contour>
    <contour>
      <point x="87" y="170" type="curve"/>
      <point x="149" y="119" type="line"/>
      <point x="245.67" y="241"/>
      <point x="294" y="368.33"/>
      <point x="294" y="501" type="curve" smooth="yes"/>
      <point x="294" y="613.67"/>
      <point x="257.33" y="734.67"/>
      <point x="184" y="864" type="curve"/>
      <point x="115" y="823" type="line"/>
      <point x="181" y="707"/>
      <point x="214" y="599.67"/>
      <point x="214" y="501" type="curve" smooth="yes"/>
      <point x="214" y="385.67"/>
      <point x="171.67" y="275.33"/>
    </contour>
    <contour>
      <point x="397" y="-120" type="curve" smooth="yes"/>
      <point x="433" y="-120"/>
      <point x="464" y="-105.33"/>
      <point x="490" y="-76" type="curve" smooth="yes"/>
      <point x="516" y="-46.67"/>
      <point x="529" y="-7.33"/>
      <point x="529" y="42" type="curve" smooth="yes"/>
      <point x="529" y="92"/>
      <point x="516.17" y="131.83"/>
      <point x="490.5" y="161.5" type="curve" smooth="yes"/>
      <point x="464.83" y="191.17"/>
      <point x="433.67" y="206"/>
      <point x="397" y="206" type="curve" smooth="yes"/>
      <point x="359.67" y="206"/>
      <point x="327.83" y="191"/>
      <point x="301.5" y="161" type="curve" smooth="yes"/>
      <point x="275.17" y="131"/>
      <point x="262" y="91.33"/>
      <point x="262" y="42" type="curve" smooth="yes"/>
      <point x="262" y="-7.33"/>
      <point x="275.17" y="-46.67"/>
      <point x="301.5" y="-76" type="curve" smooth="yes"/>
      <point x="327.83" y="-105.33"/>
      <point x="359.67" y="-120"/>
    </contour>
    <contour>
      <point x="397" y="-48" type="curve" smooth="yes"/>
      <point x="380.33" y="-48"/>
      <point x="367" y="-39.67"/>
      <point x="357" y="-23" type="curve" smooth="yes"/>
      <point x="347" y="-6.33"/>
      <point x="342" y="15.33"/>
      <point x="342" y="42" type="curve" smooth="yes"/>
      <point x="342" y="69.33"/>
      <point x="347" y="91.5"/>
      <point x="357" y="108.5" type="curve" smooth="yes"/>
      <point x="367" y="125.5"/>
      <point x="380.33" y="134"/>
      <point x="397" y="134" type="curve" smooth="yes"/>
      <point x="412.33" y="134"/>
      <point x="425" y="125.33"/>
      <point x="435" y="108" type="curve" smooth="yes"/>
      <point x="445" y="90.67"/>
      <point x="450" y="68.67"/>
      <point x="450" y="42" type="curve" smooth="yes"/>
      <point x="450" y="15.33"/>
      <point x="445" y="-6.33"/>
      <point x="435" y="-23" type="curve" smooth="yes"/>
      <point x="425" y="-39.67"/>
      <point x="412.33" y="-48"/>
    </contour>
  </outline>
</glyph>
<glyph name="u1B191" format="2">
  <advance width="740"/>
  <unicode hex="1B191"/>
  <note>
u1B191
</note>
  <outline>
    <contour>
      <point x="626" y="983" type="curve"/>
      <point x="547" y="1000" type="line"/>
      <point x="521.67" y="890.67"/>
      <point x="474.67" y="798.17"/>
      <point x="406" y="722.5" type="curve" smooth="yes"/>
      <point x="337.33" y="646.83"/>
      <point x="243.33" y="583.67"/>
      <point x="124" y="533" type="curve"/>
      <point x="157" y="459" type="line"/>
      <point x="289.67" y="516.33"/>
      <point x="394" y="587.33"/>
      <point x="470" y="672" type="curve" smooth="yes"/>
      <point x="546" y="756.67"/>
      <point x="598" y="860.33"/>
    </contour>
    <contour>
      <point x="111" y="42" type="curve"/>
      <point x="141" y="-25" type="line"/>
      <point x="219.67" y="11.67"/>
      <point x="301.67" y="56"/>
      <point x="387" y="108" type="curve" smooth="yes"/>
      <point x="472.33" y="160"/>
      <point x="547" y="211.67"/>
      <point x="611" y="263" type="curve"/>
      <point x="562" y="322" type="line"/>
      <point x="428.67" y="216"/>
      <point x="278.33" y="122.67"/>
    </contour>
    <contour>
      <point x="481" y="764" type="curve"/>
      <point x="415" y="713" type="line"/>
      <point x="427.67" y="677"/>
      <point x="434" y="642"/>
      <point x="434" y="608" type="curve" smooth="yes"/>
      <point x="434" y="544"/>
      <point x="410.33" y="488.5"/>
      <point x="363" y="441.5" type="curve" smooth="yes"/>
      <point x="315.67" y="394.5"/>
      <point x="234.67" y="346.67"/>
      <point x="120" y="298" type="curve"/>
      <point x="150" y="225" type="line"/>
      <point x="279.33" y="280.33"/>
      <point x="372.17" y="337.5"/>
      <point x="428.5" y="396.5" type="curve" smooth="yes"/>
      <point x="484.83" y="455.5"/>
      <point x="513" y="526"/>
      <point x="513" y="608" type="curve" smooth="yes"/>
      <point x="513" y="656"/>
      <point x="502.33" y="708"/>
    </contour>
    <contour>
      <point x="307" y="-108" type="curve"/>
      <point x="381" y="-120" type="line"/>
      <point x="413.67" y="26.67"/>
      <point x="418.33" y="199"/>
      <point x="395" y="397" type="curve"/>
      <point x="319" y="380" type="line"/>
      <point x="343" y="206"/>
      <point x="339" y="43.33"/>
    </contour>
  </outline>
</glyph>
<glyph name="u1B192" format="2">
  <advance width="740"/>
  <unicode hex="1B192"/>
  <note>
u1B192
</note>
  <outline>
    <contour>
      <point x="530" y="204" type="curve"/>
      <point x="612" y="197" type="line"/>
      <point x="614.67" y="215"/>
      <point x="616" y="241.33"/>
      <point x="616" y="276" type="curve" smooth="yes"/>
      <point x="616" y="352.67"/>
      <point x="604" y="429.67"/>
      <point x="580" y="507" type="curve" smooth="yes"/>
      <point x="556" y="584.33"/>
      <point x="522.33" y="654"/>
      <point x="479" y="716" type="curve"/>
      <point x="414" y="667" type="line"/>
      <point x="451.33" y="612.33"/>
      <point x="480.67" y="550.5"/>
      <point x="502" y="481.5" type="curve" smooth="yes"/>
      <point x="523.33" y="412.5"/>
      <point x="534" y="344"/>
      <point x="534" y="276" type="curve" smooth="yes"/>
      <point x="534" y="246"/>
      <point x="532.67" y="222"/>
    </contour>
    <contour>
      <point x="264" y="-84" type="curve"/>
      <point x="338" y="-120" type="line"/>
      <point x="385.33" y="-21.33"/>
      <point x="409" y="75.33"/>
      <point x="409" y="170" type="curve" smooth="yes"/>
      <point x="409" y="285.33"/>
      <point x="374.67" y="395.67"/>
      <point x="306" y="501" type="curve"/>
      <point x="298" y="459" type="line"/>
      <point x="381.33" y="516.33"/>
      <point x="452.5" y="586.83"/>
      <point x="511.5" y="670.5" type="curve" smooth="yes"/>
      <point x="570.5" y="754.17"/>
      <point x="620.33" y="856"/>
      <point x="661" y="976" type="curve"/>
      <point x="582" y="1000" type="line"/>
      <point x="546" y="884.67"/>
      <point x="500.33" y="789.33"/>
      <point x="445" y="714" type="curve" smooth="yes"/>
      <point x="389.67" y="638.67"/>
      <point x="311" y="565.33"/>
      <point x="209" y="494" type="curve"/>
      <point x="209" y="492" type="line"/>
      <point x="287" y="388"/>
      <point x="326" y="280.67"/>
      <point x="326" y="170" type="curve" smooth="yes"/>
      <point x="326" y="88.67"/>
      <point x="305.33" y="4"/>
    </contour>
    <contour>
      <point x="46" y="156" type="curve" smooth="yes"/>
      <point x="46" y="140"/>
      <point x="51.33" y="126.17"/>
      <point x="62" y="114.5" type="curve" smooth="yes"/>
      <point x="72.67" y="102.83"/>
      <point x="85.67" y="97"/>
      <point x="101" y="97" type="curve" smooth="yes"/>
      <point x="117.67" y="97"/>
      <point x="131" y="102.67"/>
      <point x="141" y="114" type="curve" smooth="yes"/>
      <point x="151" y="125.33"/>
      <point x="156" y="139.33"/>
      <point x="156" y="156" type="curve" smooth="yes"/>
      <point x="156" y="173.33"/>
      <point x="151" y="187.67"/>
      <point x="141" y="199" type="curve" smooth="yes"/>
      <point x="131" y="210.33"/>
      <point x="117.67" y="216"/>
      <point x="101" y="216" type="curve" smooth="yes"/>
      <point x="85.67" y="216"/>
      <point x="72.67" y="210.17"/>
      <point x="62" y="198.5" type="curve" smooth="yes"/>
      <point x="51.33" y="186.83"/>
      <point x="46" y="172.67"/>
    </contour>
  </outline>
</glyph>
<glyph name="u1B193" format="2">
  <advance width="740"/>
  <unicode hex="1B193"/>
  <note>
u1B193
</note>
  <outline>
    <contour>
      <point x="45" y="92" type="curve" smooth="yes"/>
      <point x="45" y="75.33"/>
      <point x="50.33" y="61.17"/>
      <point x="61" y="49.5" type="curve" smooth="yes"/>
      <point x="71.67" y="37.83"/>
      <point x="85" y="32"/>
      <point x="101" y="32" type="curve" smooth="yes"/>
      <point x="118.33" y="32"/>
      <point x="132" y="37.67"/>
      <point x="142" y="49" type="curve" smooth="yes"/>
      <point x="152" y="60.33"/>
      <point x="157" y="74.67"/>
      <point x="157" y="92" type="curve" smooth="yes"/>
      <point x="157" y="110"/>
      <point x="152" y="124.67"/>
      <point x="142" y="136" type="curve" smooth="yes"/>
      <point x="132" y="147.33"/>
      <point x="118.33" y="153"/>
      <point x="101" y="153" type="curve" smooth="yes"/>
      <point x="85" y="153"/>
      <point x="71.67" y="147.17"/>
      <point x="61" y="135.5" type="curve" smooth="yes"/>
      <point x="50.33" y="123.83"/>
      <point x="45" y="109.33"/>
    </contour>
    <contour>
      <point x="320" y="556" type="curve" smooth="yes"/>
      <point x="320" y="539.33"/>
      <point x="325.33" y="525.17"/>
      <point x="336" y="513.5" type="curve" smooth="yes"/>
      <point x="346.67" y="501.83"/>
      <point x="360" y="496"/>
      <point x="376" y="496" type="curve" smooth="yes"/>
      <point x="393.33" y="496"/>
      <point x="407" y="501.67"/>
      <point x="417" y="513" type="curve" smooth="yes"/>
      <point x="427" y="524.33"/>
      <point x="432" y="538.67"/>
      <point x="432" y="556" type="curve" smooth="yes"/>
      <point x="432" y="574"/>
      <point x="427" y="588.67"/>
      <point x="417" y="600" type="curve" smooth="yes"/>
      <point x="407" y="611.33"/>
      <point x="393.33" y="617"/>
      <point x="376" y="617" type="curve" smooth="yes"/>
      <point x="360" y="617"/>
      <point x="346.67" y="611.17"/>
      <point x="336" y="599.5" type="curve" smooth="yes"/>
      <point x="325.33" y="587.83"/>
      <point x="320" y="573.33"/>
    </contour>
    <contour>
      <point x="362" y="-112" type="line"/>
      <point x="439" y="-120" type="line"/>
      <point x="554.33" y="78"/>
      <point x="611" y="375.67"/>
      <point x="609" y="773" type="curve" smooth="yes"/>
      <point x="609" y="851"/>
      <point x="607" y="926.67"/>
      <point x="603" y="1000" type="curve"/>
      <point x="521" y="995" type="line"/>
      <point x="524.33" y="935.67"/>
      <point x="526" y="861.67"/>
      <point x="526" y="773" type="curve" smooth="yes"/>
      <point x="528" y="424.33"/>
      <point x="485.33" y="158"/>
      <point x="398" y="-26" type="curve"/>
      <point x="418" y="-30" type="line"/>
      <point x="219" y="517" type="line"/>
      <point x="143" y="489" type="line"/>
    </contour>
  </outline>
</glyph>
<glyph name="u1B194" format="2">
  <advance width="740"/>
  <unicode hex="1B194"/>
  <note>
u1B194
</note>
  <outline>
    <contour>
      <point x="282" y="867" type="line"/>
      <point x="208" y="840" type="line"/>
      <point x="524" y="-27" type="line"/>
      <point x="598" y="0" type="line"/>
    </contour>
    <contour>
      <point x="115" y="-56" type="curve"/>
      <point x="162" y="-120" type="line"/>
      <point x="222" y="-72"/>
      <point x="277.67" y="-21.33"/>
      <point x="329" y="32" type="curve" smooth="yes"/>
      <point x="392.33" y="98.67"/>
      <point x="449.67" y="168"/>
      <point x="501" y="240" type="curve"/>
      <point x="435" y="284" type="line"/>
      <point x="385" y="213.33"/>
      <point x="330.67" y="147.67"/>
      <point x="272" y="87" type="curve" smooth="yes"/>
      <point x="224.67" y="37.67"/>
      <point x="172.33" y="-10"/>
    </contour>
    <contour>
      <point x="645" y="598" type="curve"/>
      <point x="580" y="644" type="line"/>
      <point x="524.67" y="570.67"/>
      <point x="460.67" y="503"/>
      <point x="388" y="441" type="curve" smooth="yes"/>
      <point x="316" y="378.33"/>
      <point x="233" y="318"/>
      <point x="139" y="260" type="curve"/>
      <point x="180" y="192" type="line"/>
      <point x="282" y="255.33"/>
      <point x="368.67" y="318.33"/>
      <point x="440" y="381" type="curve" smooth="yes"/>
      <point x="520.67" y="450.33"/>
      <point x="589" y="522.67"/>
    </contour>
    <contour>
      <point x="119" y="479" type="curve"/>
      <point x="160" y="411" type="line"/>
      <point x="308.67" y="507.67"/>
      <point x="420" y="613.67"/>
      <point x="494" y="729" type="curve" smooth="yes"/>
      <point x="549.33" y="814.33"/>
      <point x="586.33" y="907.67"/>
      <point x="605" y="1009" type="curve"/>
      <point x="528" y="1020" type="line"/>
      <point x="510" y="928.67"/>
      <point x="476.67" y="845.67"/>
      <point x="428" y="771" type="curve" smooth="yes"/>
      <point x="359.33" y="664.33"/>
      <point x="256.33" y="567"/>
    </contour>
  </outline>
</glyph>
<glyph name="u1B195" format="2">
  <advance width="740"/>
  <unicode hex="1B195"/>
  <note>
u1B195
</note>
  <outline>
    <contour>
      <point x="71" y="556" type="curve" smooth="yes"/>
      <point x="71" y="539.33"/>
      <point x="76.33" y="525.17"/>
      <point x="87" y="513.5" type="curve" smooth="yes"/>
      <point x="97.67" y="501.83"/>
      <point x="110.67" y="496"/>
      <point x="126" y="496" type="curve" smooth="yes"/>
      <point x="142.67" y="496"/>
      <point x="156" y="501.67"/>
      <point x="166" y="513" type="curve" smooth="yes"/>
      <point x="176" y="524.33"/>
      <point x="181" y="538.67"/>
      <point x="181" y="556" type="curve" smooth="yes"/>
      <point x="181" y="572.67"/>
      <point x="176" y="586.67"/>
      <point x="166" y="598" type="curve" smooth="yes"/>
      <point x="156" y="609.33"/>
      <point x="142.67" y="615"/>
      <point x="126" y="615" type="curve" smooth="yes"/>
      <point x="110.67" y="615"/>
      <point x="97.67" y="609.17"/>
      <point x="87" y="597.5" type="curve" smooth="yes"/>
      <point x="76.33" y="585.83"/>
      <point x="71" y="572"/>
    </contour>
    <contour>
      <point x="561" y="456" type="curve" smooth="yes"/>
      <point x="561" y="439.33"/>
      <point x="566.33" y="425.17"/>
      <point x="577" y="413.5" type="curve" smooth="yes"/>
      <point x="587.67" y="401.83"/>
      <point x="600.67" y="396"/>
      <point x="616" y="396" type="curve" smooth="yes"/>
      <point x="632.67" y="396"/>
      <point x="646" y="401.67"/>
      <point x="656" y="413" type="curve" smooth="yes"/>
      <point x="666" y="424.33"/>
      <point x="671" y="438.67"/>
      <point x="671" y="456" type="curve" smooth="yes"/>
      <point x="671" y="472.67"/>
      <point x="666" y="486.67"/>
      <point x="656" y="498" type="curve" smooth="yes"/>
      <point x="646" y="509.33"/>
      <point x="632.67" y="515"/>
      <point x="616" y="515" type="curve" smooth="yes"/>
      <point x="600.67" y="515"/>
      <point x="587.67" y="509.17"/>
      <point x="577" y="497.5" type="curve" smooth="yes"/>
      <point x="566.33" y="485.83"/>
      <point x="561" y="472"/>
    </contour>
    <contour>
      <point x="60" y="49" type="curve"/>
      <point x="119" y="-7" type="line"/>
      <point x="232.33" y="103"/>
      <point x="314.67" y="232.33"/>
      <point x="366" y="381" type="curve" smooth="yes"/>
      <point x="417.33" y="529.67"/>
      <point x="451" y="735.67"/>
      <point x="467" y="999" type="curve"/>
      <point x="386" y="1000" type="line"/>
      <point x="371.33" y="755.33"/>
      <point x="340" y="562.67"/>
      <point x="292" y="422" type="curve" smooth="yes"/>
      <point x="244" y="281.33"/>
      <point x="166.67" y="157"/>
    </contour>
    <contour>
      <point x="374" y="-120" type="curve"/>
      <point x="455" y="-123" type="line"/>
      <point x="455.67" y="-16.33"/>
      <point x="449.67" y="82"/>
      <point x="437" y="172" type="curve" smooth="yes"/>
      <point x="420.33" y="279.33"/>
      <point x="395.67" y="385"/>
      <point x="363" y="489" type="curve"/>
      <point x="308" y="400" type="line"/>
      <point x="332" y="316"/>
      <point x="348.67" y="236"/>
      <point x="358" y="160" type="curve" smooth="yes"/>
      <point x="369.33" y="84.67"/>
      <point x="374.67" y="-8.67"/>
    </contour>
  </outline>
</glyph>
<glyph name="u1B196" format="2">
  <advance width="740"/>
  <unicode hex="1B196"/>
  <note>
u1B196
</note>
  <outline>
    <contour>
      <point x="271" y="826" type="curve"/>
      <point x="201" y="815" type="line"/>
      <point x="151" y="654.33"/>
      <point x="93.67" y="505"/>
      <point x="29" y="367" type="curve"/>
      <point x="101" y="333" type="line"/>
      <point x="163" y="476.33"/>
      <point x="215" y="616"/>
      <point x="257" y="752" type="curve"/>
      <point x="230" y="746" type="line"/>
      <point x="301.33" y="620.67"/>
      <point x="354" y="487.5"/>
      <point x="388" y="346.5" type="curve" smooth="yes"/>
      <point x="422" y="205.5"/>
      <point x="438.67" y="50.33"/>
      <point x="438" y="-119" type="curve"/>
      <point x="513" y="-120" type="line"/>
      <point x="513.67" y="241.33"/>
      <point x="433" y="556.67"/>
    </contour>
    <contour>
      <point x="620" y="360" type="curve"/>
      <point x="695" y="367" type="line"/>
      <point x="678.33" y="580.33"/>
      <point x="635.33" y="791.33"/>
      <point x="566" y="1000" type="curve"/>
      <point x="493" y="999" type="line"/>
      <point x="404.33" y="675"/>
      <point x="296.33" y="352.67"/>
      <point x="169" y="32" type="curve"/>
      <point x="242" y="6" type="line"/>
      <point x="363.33" y="306.67"/>
      <point x="467" y="614"/>
      <point x="553" y="928" type="curve"/>
      <point x="515" y="928" type="line"/>
      <point x="571.67" y="737.33"/>
      <point x="606.67" y="548"/>
    </contour>
  </outline>
</glyph>
<glyph name="u1B197" format="2">
  <advance width="740"/>
  <unicode hex="1B197"/>
  <note>
u1B197
</note>
  <outline>
    <contour>
      <point x="584" y="990" type="curve"/>
      <point x="508" y="1000" type="line"/>
      <point x="488.67" y="886"/>
      <point x="455.67" y="786.33"/>
      <point x="409" y="701" type="curve" smooth="yes"/>
      <point x="339.67" y="572.33"/>
      <point x="234" y="458.33"/>
      <point x="92" y="359" type="curve"/>
      <point x="135" y="294" type="line"/>
      <point x="287" y="399.33"/>
      <point x="401" y="522.33"/>
      <point x="477" y="663" type="curve" smooth="yes"/>
      <point x="529.67" y="759.67"/>
      <point x="565.33" y="868.67"/>
    </contour>
    <contour>
      <point x="145" y="779" type="line"/>
      <point x="413" y="43" type="line"/>
      <point x="475" y="104" type="line"/>
      <point x="220" y="805" type="line"/>
    </contour>
    <contour>
      <point x="635" y="221" type="curve"/>
      <point x="571" y="266" type="line"/>
      <point x="528.33" y="209.33"/>
      <point x="476.33" y="151.67"/>
      <point x="415" y="93" type="curve" smooth="yes"/>
      <point x="353.67" y="34.33"/>
      <point x="294.33" y="-15.33"/>
      <point x="237" y="-56" type="curve"/>
      <point x="280" y="-121" type="line"/>
      <point x="338.67" y="-80.33"/>
      <point x="401.83" y="-27.5"/>
      <point x="469.5" y="37.5" type="curve" smooth="yes"/>
      <point x="537.17" y="102.5"/>
      <point x="592.33" y="163.67"/>
    </contour>
    <contour>
      <point x="563" y="437" type="curve"/>
      <point x="499" y="481" type="line"/>
      <point x="407" y="351.67"/>
      <point x="297.33" y="240"/>
      <point x="170" y="146" type="curve"/>
      <point x="215" y="83" type="line"/>
      <point x="353" y="183.67"/>
      <point x="469" y="301.67"/>
    </contour>
  </outline>
</glyph>
<glyph name="u1B198" format="2">
  <advance width="740"/>
  <unicode hex="1B198"/>
  <note>
u1B198
</note>
  <outline>
    <contour>
      <point x="475" y="143" type="curve"/>
      <point x="562" y="156" type="line"/>
      <point x="628" y="243.33"/>
      <point x="649.67" y="344.17"/>
      <point x="627" y="458.5" type="curve" smooth="yes"/>
      <point x="604.33" y="572.83"/>
      <point x="543.33" y="673"/>
      <point x="444" y="759" type="curve"/>
      <point x="395" y="698" type="line"/>
      <point x="475.67" y="628"/>
      <point x="526.67" y="547.5"/>
      <point x="548" y="456.5" type="curve" smooth="yes"/>
      <point x="569.33" y="365.5"/>
      <point x="556.33" y="285.33"/>
      <point x="509" y="216" type="curve"/>
      <point x="467" y="262.67"/>
      <point x="448.83" y="317.17"/>
      <point x="454.5" y="379.5" type="curve" smooth="yes"/>
      <point x="460.17" y="441.83"/>
      <point x="489.67" y="497.33"/>
      <point x="543" y="546" type="curve"/>
      <point x="489" y="605" type="line"/>
      <point x="415.67" y="536.33"/>
      <point x="378" y="457.5"/>
      <point x="376" y="368.5" type="curve" smooth="yes"/>
      <point x="374" y="279.5"/>
      <point x="407" y="204.33"/>
    </contour>
    <contour>
      <point x="175" y="-84" type="curve"/>
      <point x="247" y="-120" type="line"/>
      <point x="293.67" y="-20.67"/>
      <point x="317" y="76"/>
      <point x="317" y="170" type="curve" smooth="yes"/>
      <point x="317" y="278"/>
      <point x="287.33" y="380"/>
      <point x="228" y="476" type="curve"/>
      <point x="306.67" y="534"/>
      <point x="373.67" y="603.5"/>
      <point x="429" y="684.5" type="curve" smooth="yes"/>
      <point x="484.33" y="765.5"/>
      <point x="531.33" y="863"/>
      <point x="570" y="977" type="curve"/>
      <point x="493" y="1000" type="line"/>
      <point x="455.67" y="887.33"/>
      <point x="406.83" y="790"/>
      <point x="346.5" y="708" type="curve" smooth="yes"/>
      <point x="286.17" y="626"/>
      <point x="210.67" y="554.67"/>
      <point x="120" y="494" type="curve"/>
      <point x="120" y="492" type="line"/>
      <point x="198" y="388"/>
      <point x="237" y="280.67"/>
      <point x="237" y="170" type="curve" smooth="yes"/>
      <point x="237" y="88.67"/>
      <point x="216.33" y="4"/>
    </contour>
  </outline>
</glyph>
<glyph name="u1B199" format="2">
  <advance width="740"/>
  <unicode hex="1B199"/>
  <note>
u1B199
</note>
  <outline>
    <contour>
      <point x="440" y="997" type="curve"/>
      <point x="359" y="1000" type="line"/>
      <point x="356.33" y="843.33"/>
      <point x="334.33" y="718"/>
      <point x="293" y="624" type="curve" smooth="yes"/>
      <point x="251.67" y="530"/>
      <point x="181.33" y="444"/>
      <point x="82" y="366" type="curve"/>
      <point x="131" y="301" type="line"/>
      <point x="240.33" y="386.33"/>
      <point x="318.5" y="481.5"/>
      <point x="365.5" y="586.5" type="curve" smooth="yes"/>
      <point x="412.5" y="691.5"/>
      <point x="437.33" y="828.33"/>
    </contour>
    <contour>
      <point x="589" y="326" type="curve"/>
      <point x="658" y="368" type="line"/>
      <point x="582.67" y="492.67"/>
      <point x="487" y="605"/>
      <point x="371" y="705" type="curve"/>
      <point x="318" y="646" type="line"/>
      <point x="428" y="550.67"/>
      <point x="518.33" y="444"/>
    </contour>
    <contour>
      <point x="129" y="-64" type="curve"/>
      <point x="183" y="-123" type="line"/>
      <point x="341.67" y="17"/>
      <point x="422.33" y="200"/>
      <point x="425" y="426" type="curve"/>
      <point x="345" y="428" type="line"/>
      <point x="342.33" y="224.67"/>
      <point x="270.33" y="60.67"/>
    </contour>
    <contour>
      <point x="533" y="-122" type="curve"/>
      <point x="604" y="-86" type="line"/>
      <point x="540.67" y="40.67"/>
      <point x="468.33" y="150.67"/>
      <point x="387" y="244" type="curve"/>
      <point x="334" y="183" type="line"/>
      <point x="412.67" y="93"/>
      <point x="479" y="-8.67"/>
    </contour>
  </outline>
</glyph>
<glyph name="u1B19A" format="2">
  <advance width="740"/>
  <unicode hex="1B19A"/>
  <note>
u1B19A
</note>
  <outline>
    <contour>
      <point x="564" y="996" type="curve"/>
      <point x="485" y="1000" type="line"/>
      <point x="473" y="851.33"/>
      <point x="437" y="719"/>
      <point x="377" y="603" type="curve" smooth="yes"/>
      <point x="339.67" y="531"/>
      <point x="291.67" y="463.67"/>
      <point x="233" y="401" type="curve"/>
      <point x="236" y="293" type="line"/>
      <point x="324" y="375"/>
      <point x="394.33" y="466.33"/>
      <point x="447" y="567" type="curve" smooth="yes"/>
      <point x="511.67" y="689.67"/>
      <point x="550.67" y="832.67"/>
    </contour>
    <contour>
      <point x="86" y="-83" type="curve"/>
      <point x="156" y="-120" type="line"/>
      <point x="244" y="49.33"/>
      <point x="288" y="214"/>
      <point x="288" y="374" type="curve" smooth="yes"/>
      <point x="288" y="510.67"/>
      <point x="255.33" y="656.33"/>
      <point x="190" y="811" type="curve"/>
      <point x="118" y="778" type="line"/>
      <point x="178.67" y="634.67"/>
      <point x="209" y="500"/>
      <point x="209" y="374" type="curve" smooth="yes"/>
      <point x="209" y="225.33"/>
      <point x="168" y="73"/>
    </contour>
    <contour>
      <point x="286" y="414" type="line"/>
      <point x="436" y="0" type="line"/>
      <point x="503" y="-8" type="line"/>
      <point x="541.67" y="43.33"/>
      <point x="577" y="105.17"/>
      <point x="609" y="177.5" type="curve" smooth="yes"/>
      <point x="641" y="249.83"/>
      <point x="664.33" y="317.67"/>
      <point x="679" y="381" type="curve"/>
      <point x="603" y="397" type="line"/>
      <point x="576.33" y="285.67"/>
      <point x="536.67" y="186.67"/>
      <point x="484" y="100" type="curve"/>
      <point x="361" y="441" type="line"/>
    </contour>
  </outline>
</glyph>
